<svg xmlns="http://www.w3.org/2000/svg" xmlns:xlink="http://www.w3.org/1999/xlink" width="500" zoomAndPan="magnify" viewBox="0 0 375 374.999991" height="500" preserveAspectRatio="xMidYMid meet" version="1.0"><defs><clipPath id="847fb277a3"><path d="M 23 2.496094 L 352.613281 2.496094 L 352.613281 372.246094 L 23 372.246094 Z M 23 2.496094 " clip-rule="nonzero"/></clipPath></defs><g clip-path="url(#847fb277a3)"><path fill="#ffffff" d="M 350.566406 5.566406 C 349.042969 3.90625 346.898438 2.957031 344.644531 2.957031 L 31.152344 2.957031 C 28.898438 2.957031 26.753906 3.90625 25.230469 5.566406 C 23.707031 7.226562 22.960938 9.457031 23.160156 11.695312 L 51.402344 328.039062 C 51.699219 331.34375 54.003906 334.128906 57.195312 335.042969 L 185.660156 371.734375 C 186.375 371.933594 187.113281 372.039062 187.859375 372.039062 C 188.605469 372.039062 189.34375 371.933594 190.054688 371.734375 L 318.625 335.042969 C 321.816406 334.128906 324.121094 331.34375 324.417969 328.039062 L 352.644531 11.695312 C 352.835938 9.449219 352.082031 7.226562 350.566406 5.566406 Z M 282.953125 114.636719 L 132.023438 114.636719 L 135.609375 155.476562 L 279.316406 155.476562 L 268.542969 276.148438 L 187.851562 300.550781 L 187.054688 300.308594 L 107.285156 276.140625 L 102.9375 226.957031 L 142.003906 226.957031 L 143.722656 246.054688 L 188.300781 255.394531 L 232.082031 246.039062 L 236.746094 194.40625 L 100 194.40625 L 89.402344 75.601562 L 286.449219 75.601562 Z M 282.953125 114.636719 " fill-opacity="1" fill-rule="nonzero"/></g></svg>