<svg xmlns="http://www.w3.org/2000/svg" xmlns:xlink="http://www.w3.org/1999/xlink" width="500" zoomAndPan="magnify" viewBox="0 0 375 374.999991" height="500" preserveAspectRatio="xMidYMid meet" version="1.0"><path fill="#ffffff" d="M 172.128906 8.851562 C 181.277344 3.671875 192.941406 3.648438 201.859375 8.851562 L 338.4375 85.839844 C 346.980469 90.644531 352.695312 100.167969 352.617188 110.015625 L 352.617188 264.382812 C 352.671875 274.640625 346.394531 284.371094 337.386719 289.082031 L 201.539062 365.71875 C 200.382812 366.355469 199.191406 366.917969 197.960938 367.394531 C 196.726562 367.875 195.472656 368.273438 194.1875 368.585938 C 192.902344 368.894531 191.605469 369.121094 190.289062 369.261719 C 188.976562 369.398438 187.660156 369.453125 186.339844 369.414062 C 185.019531 369.378906 183.707031 369.253906 182.402344 369.042969 C 181.097656 368.832031 179.8125 368.535156 178.546875 368.152344 C 177.285156 367.769531 176.050781 367.304688 174.847656 366.757812 C 173.644531 366.210938 172.484375 365.585938 171.363281 364.882812 L 130.597656 341.328125 C 127.820312 339.667969 124.699219 338.355469 122.730469 335.667969 C 124.46875 333.335938 127.558594 333.035156 130.074219 332.007812 C 135.746094 330.203125 140.9375 327.433594 146.152344 324.507812 C 147.464844 323.59375 149.078125 323.933594 150.335938 324.757812 L 185.097656 344.859375 C 187.578125 346.289062 190.09375 344.402344 192.222656 343.203125 L 325.605469 267.925781 C 327.253906 267.128906 328.167969 265.390625 328.03125 263.582031 L 328.03125 110.699219 C 328.214844 108.640625 327.035156 106.765625 325.171875 105.933594 L 189.671875 29.628906 C 189.28125 29.359375 188.859375 29.152344 188.40625 29.011719 C 187.953125 28.867188 187.488281 28.796875 187.015625 28.796875 C 186.539062 28.792969 186.074219 28.863281 185.621094 29.003906 C 185.167969 29.144531 184.746094 29.347656 184.355469 29.617188 L 49.046875 106.082031 C 47.21875 106.914062 45.960938 108.769531 46.1875 110.824219 L 46.1875 263.707031 C 46.027344 265.515625 46.988281 267.21875 48.648438 267.996094 L 84.804688 288.40625 C 91.59375 292.066406 99.929688 294.125 107.410156 291.4375 C 108.222656 291.132812 109.007812 290.765625 109.765625 290.339844 C 110.523438 289.914062 111.246094 289.433594 111.929688 288.894531 C 112.613281 288.359375 113.253906 287.777344 113.851562 287.144531 C 114.445312 286.511719 114.992188 285.835938 115.484375 285.121094 C 115.976562 284.40625 116.414062 283.65625 116.792969 282.875 C 117.171875 282.089844 117.492188 281.285156 117.746094 280.453125 C 118.003906 279.625 118.195312 278.777344 118.324219 277.917969 C 118.453125 277.058594 118.515625 276.195312 118.511719 275.324219 L 118.546875 123.359375 C 118.386719 121.105469 120.515625 119.242188 122.699219 119.46875 L 140.078125 119.46875 C 142.367188 119.414062 144.160156 121.835938 143.851562 124.101562 L 143.816406 277.03125 C 143.828125 290.613281 138.25 305.386719 125.683594 312.054688 C 110.199219 320.058594 91.058594 318.378906 75.757812 310.683594 L 36.878906 289.183594 C 27.734375 284.609375 21.59375 274.730469 21.648438 264.484375 L 21.648438 110.117188 C 21.660156 108.867188 21.75 107.625 21.925781 106.390625 C 22.101562 105.152344 22.355469 103.933594 22.695312 102.730469 C 23.03125 101.527344 23.449219 100.355469 23.941406 99.207031 C 24.433594 98.058594 25.003906 96.949219 25.644531 95.878906 C 26.285156 94.808594 26.996094 93.785156 27.773438 92.808594 C 28.550781 91.832031 29.390625 90.910156 30.292969 90.042969 C 31.191406 89.179688 32.144531 88.378906 33.152344 87.640625 C 34.160156 86.902344 35.210938 86.234375 36.308594 85.636719 Z M 211.511719 115.855469 C 231.257812 114.714844 252.402344 115.101562 270.171875 124.832031 C 283.925781 132.289062 291.554688 147.933594 291.804688 163.230469 C 291.417969 165.289062 289.269531 166.433594 287.300781 166.285156 C 281.582031 166.273438 275.84375 166.363281 270.101562 166.25 C 267.667969 166.339844 266.261719 164.101562 265.953125 161.949219 C 264.304688 154.632812 260.316406 147.394531 253.429688 143.859375 C 242.867188 138.566406 230.609375 138.828125 219.082031 138.945312 C 210.664062 139.402344 201.621094 140.121094 194.496094 145.0625 C 189.007812 148.8125 187.363281 156.496094 189.316406 162.464844 C 191.144531 166.84375 196.210938 168.25 200.339844 169.554688 C 224.148438 175.773438 249.359375 175.273438 272.722656 183.355469 C 282.382812 186.695312 291.839844 193.191406 295.15625 203.308594 C 299.480469 216.871094 297.59375 233.085938 287.953125 243.972656 C 280.132812 252.9375 268.742188 257.695312 257.363281 260.460938 C 242.238281 263.835938 226.546875 263.914062 211.191406 262.40625 C 196.75 260.757812 181.722656 256.960938 170.574219 247.128906 C 161.039062 238.847656 156.394531 225.949219 156.855469 213.511719 C 156.96875 211.40625 159.058594 209.941406 161.085938 210.113281 L 178.238281 210.113281 C 180.546875 209.953125 182.238281 211.941406 182.351562 214.117188 C 183.417969 220.976562 186.035156 228.410156 192.117188 232.410156 C 203.851562 239.980469 218.566406 239.457031 231.992188 239.671875 C 243.117188 239.179688 255.605469 239.03125 264.695312 231.667969 C 269.496094 227.472656 270.902344 220.460938 269.613281 214.425781 C 268.203125 209.324219 262.75 206.957031 258.175781 205.277344 C 234.679688 197.84375 209.179688 200.542969 185.910156 192.125 C 176.464844 188.789062 167.328125 182.476562 163.703125 172.769531 C 158.636719 159.046875 160.957031 142.042969 171.628906 131.523438 C 181.917969 121.058594 197.011719 117.023438 211.304688 115.582031 Z M 211.511719 115.855469 " fill-opacity="1" fill-rule="nonzero"/></svg>