<svg xmlns="http://www.w3.org/2000/svg" xmlns:xlink="http://www.w3.org/1999/xlink" width="500" zoomAndPan="magnify" viewBox="0 0 375 374.999991" height="500" preserveAspectRatio="xMidYMid meet" version="1.0"><defs><g/></defs><g fill="#ffffff" fill-opacity="1"><g transform="translate(-3.484553, 309.263124)"><g><path d="M 123.15625 0 L 123.15625 -206.578125 L 187.4375 -206.578125 L 187.4375 -257.859375 L 7.21875 -257.859375 L 7.21875 -206.578125 L 71.5 -206.578125 L 71.5 0 Z M 123.15625 0 "/></g></g></g><g fill="#ffffff" fill-opacity="1"><g transform="translate(194.053045, 309.263124)"><g><path d="M 16.96875 -16.609375 C 52 1.4375 84.140625 3.25 98.59375 2.171875 C 146.984375 -0.359375 176.59375 -33.21875 176.59375 -76.203125 C 176.59375 -117.375 141.921875 -140.484375 101.84375 -155.296875 C 87.03125 -160.34375 74.390625 -166.84375 72.953125 -181.296875 C 71.859375 -195.734375 80.171875 -209.09375 98.59375 -210.1875 C 106.53125 -210.546875 122.78125 -210.90625 151.3125 -199.34375 L 157.8125 -249.1875 C 124.59375 -260.75 106.890625 -260.75 93.53125 -260.015625 C 50.5625 -257.859375 20.578125 -224.625 20.578125 -181.296875 C 20.578125 -137.953125 56.703125 -117.375 97.140625 -102.5625 C 111.59375 -97.515625 122.78125 -91 123.875 -76.203125 C 125.3125 -62.109375 112.3125 -51.28125 97.140625 -50.203125 C 85.234375 -49.109375 53.09375 -49.84375 23.46875 -70.78125 Z M 16.96875 -16.609375 "/></g></g></g></svg>