<svg xmlns="http://www.w3.org/2000/svg" xmlns:xlink="http://www.w3.org/1999/xlink" width="500" zoomAndPan="magnify" viewBox="0 0 375 374.999991" height="500" preserveAspectRatio="xMidYMid meet" version="1.0"><defs><clipPath id="26b2a4cc4d"><path d="M 4.277344 92.222656 L 371 92.222656 L 371 282.722656 L 4.277344 282.722656 Z M 4.277344 92.222656 " clip-rule="nonzero"/></clipPath><clipPath id="5713e010b0"><path d="M 4.277344 187.527344 C 4.277344 240.027344 86.308594 282.589844 187.488281 282.589844 C 288.671875 282.589844 370.703125 240.027344 370.703125 187.527344 C 370.703125 135.027344 288.671875 92.464844 187.488281 92.464844 C 86.308594 92.464844 4.277344 135.03125 4.277344 187.527344 " clip-rule="nonzero"/></clipPath><clipPath id="adafb822ae"><path d="M 4.277344 187.527344 C 4.277344 240.027344 86.308594 282.589844 187.488281 282.589844 C 288.671875 282.589844 370.703125 240.027344 370.703125 187.527344 C 370.703125 135.027344 288.671875 92.464844 187.488281 92.464844 C 86.308594 92.464844 4.277344 135.03125 4.277344 187.527344 " clip-rule="nonzero"/></clipPath><radialGradient gradientTransform="matrix(1.006876, 0, 0, 0.993124, 114.278895, 125.885557)" gradientUnits="userSpaceOnUse" r="238.941794" cx="0" id="02950bf42f" cy="0" fx="0" fy="0"><stop stop-opacity="1" stop-color="rgb(100%, 100%, 100%)" offset="0"/><stop stop-opacity="1" stop-color="rgb(100%, 100%, 100%)" offset="1"/></radialGradient></defs><g clip-path="url(#26b2a4cc4d)"><g clip-path="url(#5713e010b0)"><g clip-path="url(#adafb822ae)"><path fill="url(#02950bf42f)" d="M 4.277344 92.464844 L 4.277344 282.589844 L 370.703125 282.589844 L 370.703125 92.464844 Z M 4.277344 92.464844 " fill-rule="nonzero"/></g></g></g><path fill="#ffffff" d="M 187.488281 275.527344 C 284.722656 275.527344 363.542969 236.128906 363.542969 187.527344 C 363.542969 138.925781 284.722656 99.527344 187.488281 99.527344 C 90.257812 99.527344 11.433594 138.925781 11.433594 187.527344 C 11.433594 236.128906 90.257812 275.527344 187.488281 275.527344 " fill-opacity="1" fill-rule="nonzero"/><path fill="#000000" d="M 103.816406 198.4375 C 111.808594 198.4375 117.777344 196.980469 121.554688 194.117188 C 125.289062 191.277344 127.871094 186.363281 129.222656 179.503906 C 130.484375 173.097656 130.003906 168.621094 127.796875 166.207031 C 125.539062 163.738281 120.65625 162.488281 113.289062 162.488281 L 100.511719 162.488281 L 93.429688 198.4375 Z M 62.027344 242.71875 C 61.433594 242.71875 60.871094 242.457031 60.496094 242.007812 C 60.097656 241.53125 59.957031 240.992188 60.078125 240.386719 L 78.847656 145.121094 C 78.894531 144.898438 78.972656 144.6875 79.09375 144.492188 C 79.210938 144.296875 79.359375 144.128906 79.535156 143.984375 C 79.714844 143.839844 79.910156 143.726562 80.128906 143.652344 C 80.347656 143.574219 80.570312 143.535156 80.800781 143.535156 L 121.257812 143.535156 C 133.972656 143.535156 143.4375 146.933594 149.386719 153.65625 C 155.367188 160.410156 157.214844 169.847656 154.875 181.710938 C 153.921875 186.542969 152.285156 191.03125 150.011719 195.050781 C 147.730469 199.074219 144.722656 202.796875 141.058594 206.117188 C 136.675781 210.164062 131.710938 213.097656 126.324219 214.824219 C 121.019531 216.527344 114.210938 217.394531 106.082031 217.394531 L 89.699219 217.394531 L 85.019531 241.132812 C 84.976562 241.359375 84.894531 241.566406 84.777344 241.761719 C 84.660156 241.957031 84.511719 242.128906 84.332031 242.273438 C 84.15625 242.417969 83.957031 242.527344 83.742188 242.605469 C 83.523438 242.683594 83.300781 242.722656 83.070312 242.722656 L 62.023438 242.722656 Z M 62.027344 242.71875 " fill-opacity="1" fill-rule="nonzero"/><path fill="#ffffff" d="M 102.152344 164.449219 L 113.289062 164.449219 C 122.183594 164.449219 125.273438 166.375 126.324219 167.519531 C 128.0625 169.425781 128.394531 173.441406 127.273438 179.132812 C 126.015625 185.503906 123.683594 190.023438 120.34375 192.5625 C 116.921875 195.160156 111.363281 196.476562 103.816406 196.476562 L 95.84375 196.476562 L 102.15625 164.449219 Z M 121.257812 141.570312 L 80.800781 141.570312 C 80.339844 141.570312 79.890625 141.648438 79.457031 141.804688 C 79.023438 141.957031 78.628906 142.179688 78.273438 142.46875 C 77.917969 142.757812 77.621094 143.097656 77.386719 143.488281 C 77.148438 143.878906 76.988281 144.296875 76.898438 144.746094 L 58.128906 240.015625 C 58.070312 240.300781 58.046875 240.585938 58.054688 240.875 C 58.066406 241.164062 58.105469 241.449219 58.175781 241.730469 C 58.25 242.007812 58.351562 242.277344 58.484375 242.535156 C 58.617188 242.792969 58.777344 243.035156 58.964844 243.257812 C 59.148438 243.480469 59.359375 243.679688 59.589844 243.859375 C 59.820312 244.035156 60.070312 244.1875 60.335938 244.308594 C 60.601562 244.433594 60.875 244.527344 61.160156 244.589844 C 61.449219 244.652344 61.738281 244.683594 62.03125 244.683594 L 83.070312 244.683594 C 83.53125 244.683594 83.980469 244.609375 84.414062 244.453125 C 84.847656 244.300781 85.242188 244.078125 85.597656 243.789062 C 85.953125 243.5 86.25 243.160156 86.488281 242.769531 C 86.722656 242.378906 86.882812 241.957031 86.972656 241.511719 L 91.339844 219.355469 L 106.082031 219.355469 C 114.421875 219.355469 121.4375 218.460938 126.941406 216.691406 C 132.601562 214.878906 137.8125 211.804688 142.417969 207.550781 C 146.230469 204.09375 149.375 200.210938 151.75 196.011719 C 154.121094 191.8125 155.835938 187.125 156.832031 182.089844 C 159.292969 169.601562 157.292969 159.601562 150.886719 152.371094 C 144.542969 145.210938 134.574219 141.578125 121.261719 141.578125 M 91.023438 200.402344 L 103.820312 200.402344 C 112.300781 200.402344 118.621094 198.828125 122.773438 195.675781 C 126.921875 192.523438 129.726562 187.257812 131.179688 179.886719 C 132.570312 172.804688 131.9375 167.808594 129.277344 164.898438 C 126.617188 161.988281 121.285156 160.53125 113.292969 160.53125 L 98.878906 160.53125 L 91.023438 200.402344 M 121.261719 145.5 C 133.433594 145.5 142.3125 148.648438 147.894531 154.949219 C 153.472656 161.25 155.152344 170.046875 152.925781 181.339844 C 152.011719 185.992188 150.460938 190.246094 148.277344 194.097656 C 146.097656 197.953125 143.242188 201.480469 139.714844 204.675781 C 135.515625 208.554688 130.847656 211.316406 125.710938 212.964844 C 120.574219 214.613281 114.035156 215.4375 106.082031 215.4375 L 88.0625 215.4375 L 83.074219 240.761719 L 62.03125 240.761719 L 80.804688 145.507812 L 121.265625 145.507812 " fill-opacity="1" fill-rule="nonzero"/><path fill="#000000" d="M 203.113281 217.390625 C 202.519531 217.390625 201.957031 217.128906 201.582031 216.675781 C 201.203125 216.226562 201.050781 215.632812 201.164062 215.054688 L 209.46875 172.90625 C 210.257812 168.894531 210.0625 166.019531 208.917969 164.804688 C 208.21875 164.058594 206.117188 162.8125 199.902344 162.8125 L 184.859375 162.8125 L 174.417969 215.804688 C 174.375 216.027344 174.292969 216.234375 174.175781 216.429688 C 174.058594 216.628906 173.910156 216.796875 173.730469 216.941406 C 173.554688 217.085938 173.355469 217.199219 173.140625 217.273438 C 172.921875 217.351562 172.699219 217.390625 172.46875 217.390625 L 151.59375 217.390625 C 151.296875 217.390625 151.015625 217.328125 150.746094 217.203125 C 150.476562 217.078125 150.25 216.902344 150.058594 216.675781 C 149.871094 216.449219 149.738281 216.195312 149.667969 215.910156 C 149.59375 215.628906 149.585938 215.34375 149.640625 215.054688 L 168.414062 119.792969 C 168.457031 119.570312 168.539062 119.359375 168.65625 119.164062 C 168.773438 118.96875 168.921875 118.796875 169.101562 118.652344 C 169.277344 118.507812 169.476562 118.398438 169.691406 118.320312 C 169.910156 118.242188 170.132812 118.207031 170.363281 118.207031 L 191.238281 118.207031 C 191.535156 118.207031 191.816406 118.269531 192.085938 118.394531 C 192.355469 118.519531 192.582031 118.691406 192.773438 118.917969 C 192.960938 119.144531 193.09375 119.398438 193.164062 119.683594 C 193.238281 119.96875 193.246094 120.253906 193.191406 120.539062 L 188.660156 143.53125 L 204.84375 143.53125 C 217.171875 143.53125 225.53125 145.675781 230.402344 150.085938 C 235.371094 154.585938 236.914062 161.78125 235.007812 171.472656 L 226.273438 215.804688 C 226.226562 216.027344 226.148438 216.238281 226.027344 216.433594 C 225.910156 216.628906 225.761719 216.796875 225.585938 216.945312 C 225.40625 217.089844 225.210938 217.199219 224.992188 217.277344 C 224.773438 217.351562 224.550781 217.390625 224.320312 217.390625 Z M 203.113281 217.390625 " fill-opacity="1" fill-rule="nonzero"/><path fill="#ffffff" d="M 191.238281 116.246094 L 170.367188 116.246094 C 169.90625 116.246094 169.457031 116.320312 169.023438 116.476562 C 168.589844 116.628906 168.191406 116.851562 167.835938 117.140625 C 167.480469 117.429688 167.183594 117.769531 166.949219 118.160156 C 166.714844 118.550781 166.550781 118.972656 166.464844 119.417969 L 147.691406 214.679688 C 147.636719 214.964844 147.613281 215.25 147.621094 215.539062 C 147.628906 215.828125 147.667969 216.113281 147.742188 216.394531 C 147.8125 216.675781 147.914062 216.945312 148.046875 217.203125 C 148.179688 217.460938 148.339844 217.699219 148.527344 217.925781 C 148.714844 218.148438 148.921875 218.347656 149.152344 218.523438 C 149.386719 218.703125 149.632812 218.851562 149.898438 218.976562 C 150.164062 219.097656 150.4375 219.191406 150.726562 219.257812 C 151.011719 219.320312 151.300781 219.351562 151.59375 219.351562 L 172.46875 219.351562 C 172.929688 219.351562 173.378906 219.273438 173.8125 219.121094 C 174.246094 218.964844 174.640625 218.746094 174.996094 218.457031 C 175.351562 218.164062 175.648438 217.824219 175.886719 217.433594 C 176.121094 217.042969 176.285156 216.625 176.371094 216.175781 L 186.5 164.773438 L 199.90625 164.773438 C 206.109375 164.773438 207.410156 166.082031 207.464844 166.136719 C 207.839844 166.535156 208.335938 168.386719 207.519531 172.53125 L 199.214844 214.679688 C 199.160156 214.964844 199.136719 215.25 199.144531 215.539062 C 199.152344 215.828125 199.191406 216.113281 199.265625 216.394531 C 199.335938 216.675781 199.4375 216.945312 199.570312 217.203125 C 199.703125 217.460938 199.863281 217.699219 200.050781 217.925781 C 200.234375 218.148438 200.445312 218.347656 200.675781 218.523438 C 200.90625 218.703125 201.15625 218.851562 201.421875 218.976562 C 201.6875 219.097656 201.960938 219.191406 202.25 219.257812 C 202.535156 219.320312 202.824219 219.351562 203.117188 219.351562 L 224.324219 219.351562 C 224.785156 219.351562 225.230469 219.273438 225.667969 219.121094 C 226.101562 218.964844 226.496094 218.746094 226.851562 218.457031 C 227.207031 218.164062 227.503906 217.824219 227.738281 217.433594 C 227.976562 217.042969 228.136719 216.625 228.226562 216.175781 L 236.960938 171.847656 C 239.007812 161.441406 237.253906 153.632812 231.75 148.644531 C 226.496094 143.886719 217.699219 141.570312 204.847656 141.570312 L 191.074219 141.570312 L 195.144531 120.914062 C 195.199219 120.628906 195.226562 120.34375 195.214844 120.054688 C 195.207031 119.765625 195.167969 119.480469 195.097656 119.199219 C 195.023438 118.921875 194.921875 118.652344 194.789062 118.394531 C 194.65625 118.136719 194.496094 117.894531 194.308594 117.671875 C 194.125 117.449219 193.914062 117.246094 193.683594 117.070312 C 193.453125 116.894531 193.203125 116.742188 192.9375 116.617188 C 192.671875 116.496094 192.398438 116.402344 192.109375 116.339844 C 191.824219 116.277344 191.535156 116.246094 191.242188 116.246094 M 191.242188 120.164062 L 186.253906 145.492188 L 204.847656 145.492188 C 216.546875 145.492188 224.617188 147.507812 229.0625 151.53125 C 233.503906 155.554688 234.832031 162.082031 233.058594 171.097656 L 224.324219 215.429688 L 203.121094 215.429688 L 211.421875 173.28125 C 212.367188 168.484375 212.019531 165.214844 210.378906 163.46875 C 208.738281 161.726562 205.246094 160.851562 199.90625 160.851562 L 183.21875 160.851562 L 172.46875 215.429688 L 151.59375 215.429688 L 170.367188 120.164062 L 191.238281 120.164062 " fill-opacity="1" fill-rule="nonzero"/><path fill="#000000" d="M 268.035156 198.4375 C 276.03125 198.4375 282 196.980469 285.773438 194.117188 C 289.511719 191.277344 292.089844 186.363281 293.445312 179.503906 C 294.707031 173.097656 294.226562 168.621094 292.015625 166.207031 C 289.757812 163.738281 284.878906 162.488281 277.507812 162.488281 L 264.734375 162.488281 L 257.648438 198.4375 Z M 226.246094 242.71875 C 225.652344 242.71875 225.089844 242.457031 224.714844 242.003906 C 224.316406 241.527344 224.175781 240.988281 224.296875 240.382812 L 243.066406 145.121094 C 243.109375 144.898438 243.191406 144.6875 243.308594 144.492188 C 243.429688 144.296875 243.578125 144.125 243.753906 143.980469 C 243.933594 143.835938 244.128906 143.726562 244.347656 143.648438 C 244.566406 143.570312 244.789062 143.535156 245.019531 143.535156 L 285.476562 143.535156 C 298.191406 143.535156 307.65625 146.933594 313.605469 153.65625 C 319.585938 160.40625 321.429688 169.847656 319.09375 181.707031 C 318.140625 186.542969 316.503906 191.03125 314.230469 195.050781 C 311.949219 199.070312 308.9375 202.792969 305.277344 206.113281 C 300.890625 210.160156 295.929688 213.097656 290.542969 214.824219 C 285.238281 216.527344 278.429688 217.390625 270.296875 217.390625 L 253.90625 217.390625 L 249.226562 241.132812 C 249.183594 241.355469 249.101562 241.566406 248.984375 241.761719 C 248.867188 241.957031 248.71875 242.125 248.539062 242.273438 C 248.363281 242.417969 248.164062 242.527344 247.949219 242.605469 C 247.730469 242.679688 247.507812 242.71875 247.277344 242.71875 L 226.238281 242.71875 Z M 226.246094 242.71875 " fill-opacity="1" fill-rule="nonzero"/><path fill="#ffffff" d="M 266.371094 164.449219 L 277.511719 164.449219 C 286.402344 164.449219 289.492188 166.375 290.542969 167.519531 C 292.285156 169.425781 292.613281 173.441406 291.492188 179.132812 C 290.234375 185.503906 287.902344 190.023438 284.5625 192.5625 C 281.144531 195.160156 275.582031 196.476562 268.035156 196.476562 L 260.0625 196.476562 Z M 285.476562 141.570312 L 245.019531 141.570312 C 244.558594 141.570312 244.109375 141.648438 243.675781 141.804688 C 243.242188 141.957031 242.847656 142.179688 242.488281 142.46875 C 242.132812 142.757812 241.839844 143.097656 241.601562 143.488281 C 241.367188 143.878906 241.203125 144.296875 241.117188 144.746094 L 222.34375 240.015625 C 222.289062 240.300781 222.261719 240.585938 222.273438 240.875 C 222.28125 241.164062 222.320312 241.449219 222.394531 241.730469 C 222.464844 242.007812 222.566406 242.277344 222.699219 242.535156 C 222.832031 242.792969 222.992188 243.035156 223.179688 243.257812 C 223.363281 243.480469 223.574219 243.679688 223.804688 243.859375 C 224.035156 244.035156 224.285156 244.1875 224.550781 244.308594 C 224.816406 244.433594 225.089844 244.527344 225.375 244.589844 C 225.664062 244.652344 225.953125 244.683594 226.246094 244.683594 L 247.285156 244.683594 C 247.746094 244.683594 248.195312 244.609375 248.628906 244.453125 C 249.0625 244.300781 249.457031 244.078125 249.8125 243.789062 C 250.171875 243.5 250.464844 243.160156 250.703125 242.769531 C 250.9375 242.378906 251.101562 241.957031 251.1875 241.511719 L 255.554688 219.355469 L 270.296875 219.355469 C 278.636719 219.355469 285.652344 218.460938 291.15625 216.691406 C 296.816406 214.878906 302.023438 211.804688 306.632812 207.550781 C 310.445312 204.09375 313.585938 200.210938 315.964844 196.011719 C 318.34375 191.8125 320.050781 187.125 321.042969 182.089844 C 323.507812 169.601562 321.507812 159.601562 315.101562 152.371094 C 308.757812 145.210938 298.789062 141.578125 285.476562 141.578125 M 255.238281 200.402344 L 268.035156 200.402344 C 276.515625 200.402344 282.835938 198.828125 286.988281 195.675781 C 291.136719 192.523438 293.941406 187.257812 295.394531 179.886719 C 296.789062 172.804688 296.152344 167.808594 293.492188 164.898438 C 290.832031 161.988281 285.5 160.53125 277.507812 160.53125 L 263.09375 160.53125 L 255.238281 200.402344 M 285.476562 145.5 C 297.648438 145.5 306.527344 148.648438 312.109375 154.949219 C 317.6875 161.25 319.367188 170.046875 317.140625 181.339844 C 316.226562 185.992188 314.675781 190.246094 312.492188 194.097656 C 310.3125 197.953125 307.457031 201.480469 303.929688 204.675781 C 299.730469 208.554688 295.0625 211.316406 289.925781 212.964844 C 284.789062 214.613281 278.25 215.4375 270.296875 215.4375 L 252.277344 215.4375 L 247.285156 240.761719 L 226.246094 240.761719 L 245.019531 145.5 L 285.476562 145.5 " fill-opacity="1" fill-rule="nonzero"/></svg>