<svg xmlns="http://www.w3.org/2000/svg" xmlns:xlink="http://www.w3.org/1999/xlink" width="500" zoomAndPan="magnify" viewBox="0 0 375 374.999991" height="500" preserveAspectRatio="xMidYMid meet" version="1.0"><defs><clipPath id="a75ca4e8af"><path d="M 3.28125 3.28125 L 371.53125 3.28125 L 371.53125 371.53125 L 3.28125 371.53125 Z M 3.28125 3.28125 " clip-rule="nonzero"/></clipPath></defs><g clip-path="url(#a75ca4e8af)"><path fill="#ffffff" d="M 364.753906 171.089844 L 203.902344 10.234375 C 203.351562 9.6875 202.777344 9.164062 202.175781 8.671875 C 201.574219 8.179688 200.953125 7.714844 200.308594 7.285156 C 199.660156 6.851562 198.996094 6.453125 198.308594 6.085938 C 197.625 5.722656 196.921875 5.390625 196.207031 5.089844 C 195.488281 4.792969 194.757812 4.53125 194.011719 4.308594 C 193.269531 4.082031 192.515625 3.894531 191.753906 3.742188 C 190.992188 3.589844 190.226562 3.476562 189.453125 3.398438 C 188.679688 3.324219 187.902344 3.285156 187.125 3.285156 C 186.347656 3.285156 185.574219 3.324219 184.800781 3.398438 C 184.027344 3.476562 183.261719 3.589844 182.496094 3.742188 C 181.734375 3.894531 180.984375 4.082031 180.238281 4.308594 C 179.496094 4.53125 178.765625 4.792969 178.046875 5.089844 C 177.328125 5.390625 176.628906 5.722656 175.941406 6.085938 C 175.257812 6.453125 174.59375 6.851562 173.945312 7.285156 C 173.300781 7.714844 172.675781 8.179688 172.078125 8.671875 C 171.476562 9.164062 170.902344 9.6875 170.351562 10.234375 L 136.964844 43.625 L 179.332031 85.992188 C 189.1875 82.539062 200.46875 84.898438 208.324219 92.75 C 209.253906 93.683594 210.113281 94.675781 210.902344 95.726562 C 211.695312 96.777344 212.410156 97.882812 213.046875 99.03125 C 213.683594 100.183594 214.234375 101.375 214.707031 102.605469 C 215.175781 103.835938 215.558594 105.089844 215.851562 106.375 C 216.148438 107.65625 216.351562 108.953125 216.460938 110.265625 C 216.574219 111.578125 216.597656 112.890625 216.523438 114.203125 C 216.453125 115.519531 216.292969 116.820312 216.039062 118.113281 C 215.785156 119.402344 215.441406 120.671875 215.011719 121.914062 L 255.847656 162.753906 C 265.726562 159.34375 277.125 161.542969 285.011719 169.453125 C 285.667969 170.105469 286.289062 170.792969 286.875 171.507812 C 287.460938 172.222656 288.011719 172.964844 288.527344 173.734375 C 289.039062 174.5 289.515625 175.292969 289.953125 176.109375 C 290.386719 176.925781 290.785156 177.761719 291.136719 178.617188 C 291.492188 179.46875 291.804688 180.339844 292.074219 181.226562 C 292.339844 182.109375 292.566406 183.007812 292.746094 183.914062 C 292.925781 184.820312 293.0625 185.734375 293.152344 186.65625 C 293.246094 187.578125 293.289062 188.5 293.289062 189.425781 C 293.289062 190.347656 293.246094 191.273438 293.152344 192.191406 C 293.0625 193.113281 292.929688 194.027344 292.746094 194.933594 C 292.566406 195.84375 292.34375 196.738281 292.074219 197.625 C 291.804688 198.507812 291.496094 199.378906 291.140625 200.234375 C 290.785156 201.089844 290.390625 201.921875 289.953125 202.738281 C 289.519531 203.554688 289.042969 204.347656 288.53125 205.117188 C 288.015625 205.886719 287.464844 206.628906 286.878906 207.34375 C 286.292969 208.058594 285.671875 208.742188 285.015625 209.398438 C 284.363281 210.050781 283.675781 210.671875 282.960938 211.257812 C 282.246094 211.84375 281.503906 212.394531 280.734375 212.910156 C 279.964844 213.421875 279.171875 213.898438 278.359375 214.332031 C 277.542969 214.769531 276.707031 215.164062 275.851562 215.519531 C 274.996094 215.871094 274.125 216.183594 273.242188 216.453125 C 272.355469 216.71875 271.460938 216.945312 270.550781 217.125 C 269.644531 217.304688 268.730469 217.441406 267.808594 217.53125 C 266.890625 217.621094 265.964844 217.664062 265.042969 217.664062 C 264.117188 217.664062 263.195312 217.617188 262.273438 217.527344 C 261.351562 217.4375 260.4375 217.300781 259.53125 217.121094 C 258.625 216.9375 257.726562 216.714844 256.84375 216.445312 C 255.957031 216.175781 255.085938 215.863281 254.234375 215.511719 C 253.378906 215.15625 252.542969 214.761719 251.726562 214.324219 C 250.914062 213.886719 250.121094 213.410156 249.351562 212.898438 C 248.582031 212.382812 247.839844 211.832031 247.125 211.246094 C 246.410156 210.65625 245.726562 210.035156 245.074219 209.382812 C 236.785156 201.09375 234.734375 188.886719 238.925781 178.675781 L 200.839844 140.589844 L 200.839844 240.8125 C 203.621094 242.191406 206.117188 243.96875 208.324219 246.15625 C 208.976562 246.808594 209.597656 247.492188 210.183594 248.207031 C 210.769531 248.921875 211.320312 249.664062 211.832031 250.433594 C 212.347656 251.203125 212.820312 251.996094 213.257812 252.808594 C 213.695312 253.625 214.089844 254.460938 214.441406 255.316406 C 214.796875 256.167969 215.109375 257.039062 215.375 257.921875 C 215.644531 258.808594 215.867188 259.703125 216.050781 260.609375 C 216.230469 261.519531 216.363281 262.429688 216.457031 263.351562 C 216.546875 264.273438 216.589844 265.195312 216.589844 266.117188 C 216.589844 267.042969 216.546875 267.964844 216.457031 268.886719 C 216.363281 269.808594 216.230469 270.71875 216.050781 271.628906 C 215.867188 272.535156 215.644531 273.429688 215.375 274.316406 C 215.109375 275.199219 214.796875 276.070312 214.441406 276.921875 C 214.089844 277.777344 213.695312 278.613281 213.257812 279.429688 C 212.820312 280.242188 212.347656 281.035156 211.832031 281.804688 C 211.320312 282.574219 210.769531 283.316406 210.183594 284.03125 C 209.597656 284.746094 208.976562 285.429688 208.324219 286.082031 C 207.667969 286.738281 206.984375 287.355469 206.269531 287.945312 C 205.554688 288.53125 204.8125 289.082031 204.042969 289.59375 C 203.273438 290.109375 202.484375 290.582031 201.667969 291.019531 C 200.851562 291.453125 200.015625 291.847656 199.164062 292.203125 C 198.308594 292.558594 197.4375 292.867188 196.554688 293.136719 C 195.667969 293.40625 194.773438 293.628906 193.867188 293.808594 C 192.960938 293.992188 192.046875 294.125 191.125 294.214844 C 190.207031 294.308594 189.28125 294.351562 188.359375 294.351562 C 187.433594 294.351562 186.511719 294.308594 185.589844 294.214844 C 184.671875 294.125 183.757812 293.992188 182.851562 293.808594 C 181.941406 293.628906 181.046875 293.40625 180.164062 293.136719 C 179.277344 292.867188 178.40625 292.558594 177.554688 292.203125 C 176.699219 291.847656 175.863281 291.453125 175.050781 291.019531 C 174.234375 290.582031 173.441406 290.109375 172.671875 289.59375 C 171.902344 289.082031 171.160156 288.53125 170.445312 287.945312 C 169.730469 287.355469 169.046875 286.738281 168.394531 286.082031 C 167.738281 285.429688 167.117188 284.746094 166.53125 284.03125 C 165.945312 283.316406 165.394531 282.574219 164.878906 281.804688 C 164.363281 281.039062 163.890625 280.246094 163.453125 279.429688 C 163.015625 278.613281 162.621094 277.78125 162.265625 276.925781 C 161.910156 276.070312 161.601562 275.203125 161.332031 274.316406 C 161.0625 273.433594 160.839844 272.535156 160.65625 271.628906 C 160.476562 270.722656 160.339844 269.808594 160.25 268.886719 C 160.160156 267.964844 160.113281 267.042969 160.113281 266.117188 C 160.113281 265.195312 160.160156 264.273438 160.25 263.351562 C 160.339844 262.429688 160.476562 261.515625 160.65625 260.609375 C 160.839844 259.703125 161.0625 258.804688 161.332031 257.921875 C 161.601562 257.035156 161.910156 256.167969 162.265625 255.3125 C 162.621094 254.457031 163.015625 253.625 163.453125 252.808594 C 163.890625 251.992188 164.363281 251.199219 164.878906 250.433594 C 165.394531 249.664062 165.945312 248.921875 166.53125 248.207031 C 167.117188 247.492188 167.738281 246.808594 168.394531 246.15625 C 171.121094 243.4375 174.152344 241.378906 177.640625 239.996094 L 177.640625 138.839844 C 174.277344 137.457031 171.121094 135.421875 168.394531 132.679688 C 167.410156 131.695312 166.5 130.644531 165.671875 129.523438 C 164.839844 128.40625 164.097656 127.230469 163.441406 126.003906 C 162.785156 124.773438 162.226562 123.503906 161.757812 122.191406 C 161.289062 120.878906 160.921875 119.539062 160.652344 118.171875 C 160.382812 116.804688 160.214844 115.425781 160.152344 114.035156 C 160.085938 112.644531 160.125 111.253906 160.265625 109.867188 C 160.40625 108.484375 160.648438 107.113281 160.992188 105.765625 C 161.335938 104.414062 161.777344 103.097656 162.316406 101.8125 L 120.523438 60.042969 L 10.222656 170.226562 C 9.675781 170.773438 9.152344 171.347656 8.660156 171.949219 C 8.164062 172.550781 7.703125 173.175781 7.269531 173.820312 C 6.839844 174.464844 6.4375 175.132812 6.074219 175.816406 C 5.707031 176.503906 5.375 177.203125 5.074219 177.921875 C 4.777344 178.640625 4.515625 179.371094 4.289062 180.117188 C 4.066406 180.859375 3.875 181.613281 3.722656 182.375 C 3.574219 183.136719 3.457031 183.90625 3.382812 184.679688 C 3.304688 185.453125 3.269531 186.226562 3.269531 187.003906 C 3.269531 187.78125 3.304688 188.558594 3.382812 189.332031 C 3.457031 190.105469 3.574219 190.875 3.722656 191.636719 C 3.875 192.398438 4.066406 193.152344 4.289062 193.894531 C 4.515625 194.640625 4.777344 195.371094 5.074219 196.089844 C 5.375 196.804688 5.707031 197.507812 6.074219 198.195312 C 6.4375 198.878906 6.839844 199.542969 7.269531 200.191406 C 7.703125 200.835938 8.164062 201.460938 8.660156 202.0625 C 9.152344 202.660156 9.675781 203.238281 10.222656 203.785156 L 171.089844 364.625 C 171.636719 365.175781 172.210938 365.699219 172.8125 366.191406 C 173.414062 366.683594 174.035156 367.144531 174.683594 367.578125 C 175.328125 368.011719 175.996094 368.410156 176.679688 368.777344 C 177.363281 369.140625 178.066406 369.472656 178.785156 369.769531 C 179.503906 370.070312 180.234375 370.332031 180.976562 370.554688 C 181.71875 370.78125 182.472656 370.96875 183.234375 371.121094 C 183.996094 371.273438 184.765625 371.386719 185.539062 371.464844 C 186.3125 371.539062 187.085938 371.578125 187.863281 371.578125 C 188.640625 371.578125 189.414062 371.539062 190.1875 371.464844 C 190.960938 371.386719 191.730469 371.273438 192.492188 371.121094 C 193.253906 370.96875 194.007812 370.78125 194.75 370.554688 C 195.492188 370.332031 196.222656 370.070312 196.941406 369.769531 C 197.660156 369.472656 198.363281 369.140625 199.046875 368.777344 C 199.730469 368.410156 200.398438 368.011719 201.042969 367.578125 C 201.691406 367.144531 202.3125 366.683594 202.914062 366.191406 C 203.515625 365.699219 204.089844 365.175781 204.636719 364.625 L 364.753906 204.765625 C 365.304688 204.214844 365.824219 203.640625 366.320312 203.039062 C 366.8125 202.4375 367.273438 201.816406 367.707031 201.167969 C 368.140625 200.523438 368.539062 199.859375 368.90625 199.171875 C 369.273438 198.488281 369.605469 197.785156 369.902344 197.066406 C 370.199219 196.347656 370.460938 195.617188 370.6875 194.875 C 370.914062 194.128906 371.101562 193.375 371.253906 192.613281 C 371.40625 191.851562 371.519531 191.085938 371.597656 190.308594 C 371.671875 189.535156 371.710938 188.761719 371.710938 187.984375 C 371.710938 187.207031 371.671875 186.429688 371.597656 185.65625 C 371.519531 184.882812 371.40625 184.117188 371.253906 183.355469 C 371.101562 182.589844 370.914062 181.839844 370.6875 181.09375 C 370.460938 180.351562 370.199219 179.621094 369.902344 178.902344 C 369.605469 178.183594 369.273438 177.480469 368.90625 176.796875 C 368.539062 176.109375 368.140625 175.445312 367.707031 174.796875 C 367.273438 174.152344 366.8125 173.527344 366.320312 172.929688 C 365.824219 172.328125 365.304688 171.753906 364.753906 171.203125 " fill-opacity="1" fill-rule="nonzero"/></g></svg>