<svg xmlns="http://www.w3.org/2000/svg" xmlns:xlink="http://www.w3.org/1999/xlink" width="500" zoomAndPan="magnify" viewBox="0 0 375 374.999991" height="500" preserveAspectRatio="xMidYMid meet" version="1.0"><defs><clipPath id="4ccf9bf769"><path d="M 8 16 L 371.742188 16 L 371.742188 372 L 8 372 Z M 8 16 " clip-rule="nonzero"/></clipPath></defs><g clip-path="url(#4ccf9bf769)"><path fill="#ffffff" d="M 343.324219 291.167969 C 323.550781 290.617188 308.210938 292.644531 295.355469 298.050781 C 291.652344 299.539062 285.714844 299.539062 285.226562 304.199219 C 287.203125 306.152344 287.441406 309.355469 289.175781 312.0625 C 292.140625 316.980469 297.339844 323.605469 302.035156 327.042969 L 317.855469 338.351562 C 327.5 344.242188 338.375 347.683594 347.769531 353.582031 C 353.210938 357.027344 358.648438 361.449219 364.089844 365.136719 C 366.863281 367.105469 368.539062 370.304688 372.003906 371.527344 L 372.003906 370.785156 C 370.273438 368.582031 369.777344 365.386719 368.054688 362.917969 L 360.628906 355.796875 C 353.460938 346.214844 344.554688 337.855469 334.914062 330.980469 C 327 325.574219 309.699219 318.203125 306.484375 309.117188 L 305.996094 308.566406 C 311.425781 308.015625 317.855469 306.105469 323.054688 304.628906 C 331.464844 302.425781 339.125 302.910156 347.769531 300.703125 L 359.644531 297.257812 L 359.644531 295.054688 C 355.195312 290.632812 351.980469 284.734375 347.289062 280.5625 C 334.679688 269.75 320.824219 259.179688 306.484375 250.335938 C 298.820312 245.421875 288.925781 242.222656 280.769531 238.054688 C 277.792969 236.578125 272.855469 235.839844 271.128906 233.382812 C 266.667969 227.988281 264.199219 220.855469 260.984375 214.460938 L 240.714844 171.707031 C 236.265625 162.125 233.539062 152.542969 228.105469 143.695312 C 202.636719 101.921875 174.9375 76.617188 132.410156 51.792969 C 123.265625 46.632812 112.386719 44.414062 100.824219 41.714844 L 82.28125 40.722656 C 78.316406 39.003906 74.367188 34.335938 70.902344 32.121094 C 56.808594 23.277344 20.460938 4.109375 10.070312 29.367188 C 3.394531 45.339844 19.960938 61.0625 25.585938 69.175781 C 29.800781 74.824219 35.230469 81.214844 38.207031 87.601562 C 39.867188 91.777344 40.421875 96.207031 42.15625 100.628906 C 46.109375 111.4375 49.820312 123.484375 55.015625 133.5625 C 57.785156 138.722656 60.695312 144.136719 64.160156 148.800781 C 66.136719 151.554688 69.601562 152.734375 70.335938 157.15625 C 66.875 162.074219 66.636719 169.4375 64.65625 175.589844 C 55.75 203.359375 59.214844 237.757812 71.824219 258.199219 C 75.785156 264.339844 85.121094 277.863281 97.792969 272.695312 C 108.917969 268.273438 106.4375 254.269531 109.652344 241.980469 C 110.398438 239.035156 109.898438 237.070312 111.378906 235.097656 L 111.378906 235.648438 L 121.519531 256.042969 C 129.1875 268.082031 142.542969 280.617188 153.664062 288.976562 C 159.59375 293.398438 164.292969 301.019531 171.707031 303.71875 L 171.707031 302.976562 L 171.21875 302.976562 C 169.734375 300.773438 167.507812 299.78125 165.527344 298.0625 C 161.078125 293.640625 156.136719 288.234375 152.671875 283.320312 C 142.292969 269.5625 133.148438 254.324219 124.984375 238.601562 C 121.023438 230.984375 117.558594 222.628906 114.355469 215.011719 C 112.859375 212.058594 112.859375 207.632812 110.394531 206.167969 C 106.679688 211.5625 101.25 216.246094 98.515625 222.875 C 93.816406 233.441406 93.332031 246.464844 91.601562 259.980469 C 90.605469 260.226562 91.046875 259.980469 90.605469 260.53125 C 82.703125 258.570312 79.976562 250.453125 77.011719 243.578125 C 69.59375 226.132812 68.355469 198.121094 74.78125 177.96875 C 76.511719 172.808594 83.9375 156.589844 80.972656 151.675781 C 79.476562 147.007812 74.542969 144.308594 71.816406 140.617188 C 68.601562 135.945312 65.152344 130.054688 62.921875 124.894531 C 56.992188 111.125 54.027344 95.898438 47.59375 82.132812 C 44.617188 75.746094 39.429688 69.109375 35.226562 63.214844 C 30.527344 56.578125 25.34375 51.910156 21.632812 44.050781 C 20.394531 41.296875 18.667969 36.925781 20.644531 33.972656 C 21.132812 32.003906 22.128906 31.21875 24.097656 30.777344 C 27.3125 28.023438 36.464844 31.515625 39.679688 32.980469 C 48.824219 36.671875 56.488281 40.105469 64.152344 45.261719 C 67.617188 47.71875 71.328125 52.390625 75.78125 53.621094 L 80.976562 53.621094 C 88.890625 55.339844 97.785156 54.171875 105.195312 56.375 C 118.300781 60.5625 130.167969 66.695312 140.808594 73.339844 C 173.191406 93.734375 199.90625 122.730469 217.949219 157.382812 C 220.914062 163.03125 222.148438 168.191406 224.875 174.089844 C 230.074219 186.136719 236.503906 198.417969 241.683594 210.21875 C 246.882812 221.769531 251.824219 233.570312 259.242188 243.15625 C 262.953125 248.316406 277.78125 251.015625 284.457031 253.71875 C 289.40625 255.921875 297.0625 257.902344 301.523438 260.601562 C 309.925781 265.761719 318.332031 271.660156 326.242188 277.3125 C 330.191406 280.253906 342.5625 286.398438 343.296875 291.300781 Z M 91.175781 77.636719 C 87.742188 77.605469 84.367188 78.015625 81.042969 78.863281 L 81.042969 79.414062 L 81.53125 79.414062 C 83.511719 83.347656 86.972656 86.050781 89.445312 89.492188 L 95.136719 101.289062 L 95.625 100.738281 C 99.089844 98.28125 100.824219 94.351562 100.824219 88.457031 C 99.335938 86.738281 99.09375 85.015625 97.859375 83.296875 C 96.371094 80.839844 93.160156 79.605469 91.175781 77.644531 Z M 91.175781 77.636719 " fill-opacity="1" fill-rule="evenodd"/></g></svg>