<svg xmlns="http://www.w3.org/2000/svg" xmlns:xlink="http://www.w3.org/1999/xlink" width="500" zoomAndPan="magnify" viewBox="0 0 375 374.999991" height="500" preserveAspectRatio="xMidYMid meet" version="1.0"><defs><clipPath id="c89671617a"><path d="M 102 5.121094 L 273 5.121094 L 273 369.621094 L 102 369.621094 Z M 102 5.121094 " clip-rule="nonzero"/></clipPath></defs><g clip-path="url(#c89671617a)"><path fill="#ffffff" d="M 219 46.355469 C 203.746094 28.257812 190.613281 9.878906 187.929688 6.0625 C 187.863281 5.992188 187.789062 5.941406 187.703125 5.902344 C 187.617188 5.867188 187.527344 5.847656 187.433594 5.847656 C 187.34375 5.847656 187.25 5.867188 187.164062 5.902344 C 187.082031 5.941406 187.003906 5.992188 186.941406 6.0625 C 184.257812 9.878906 171.121094 28.257812 155.871094 46.355469 C 24.953125 213.324219 176.488281 326.003906 176.488281 326.003906 L 177.761719 326.855469 C 178.890625 344.242188 181.714844 369.269531 181.714844 369.269531 L 193.011719 369.269531 C 193.011719 369.269531 195.835938 344.386719 196.96875 326.855469 L 198.238281 325.863281 C 198.378906 326.007812 349.917969 213.324219 219 46.355469 Z M 187.363281 323.460938 C 187.363281 323.460938 180.585938 317.664062 178.75 314.695312 L 178.75 314.410156 L 186.941406 132.597656 C 186.941406 132.03125 187.789062 132.03125 187.789062 132.597656 L 195.980469 314.410156 L 195.980469 314.695312 C 194.144531 317.664062 187.363281 323.460938 187.363281 323.460938 Z M 187.363281 323.460938 " fill-opacity="1" fill-rule="nonzero"/></g></svg>