<?xml version="1.0" encoding="UTF-8"?>
<svg version="1.1" xmlns="http://www.w3.org/2000/svg" width="500" height="500">
<path d="M0 0 C165 0 330 0 500 0 C500 165 500 330 500 500 C335 500 170 500 0 500 C0 335 0 170 0 0 Z " fill="#050505" transform="translate(0,0)"/>
<path d="M0 0 C165 0 330 0 500 0 C500 165 500 330 500 500 C335 500 170 500 0 500 C0 335 0 170 0 0 Z M287 23 C284.6433883 22.93591414 282.28854169 22.79915124 279.9375 22.625 C278.66777344 22.53476562 277.39804687 22.44453125 276.08984375 22.3515625 C273.3798813 22.13802864 270.69901833 21.83168495 268.00390625 21.48046875 C250.18410241 19.46809437 230.05426181 19.16415626 213 25 C211.70985218 25.41343746 210.41948418 25.82618837 209.12890625 26.23828125 C204.19689594 27.89597046 199.53728255 29.48841661 195.1875 32.375 C188.10151598 35.98746244 180.61061456 32.30055821 173.5 30.08911133 C166.46747752 27.98402086 159.33922881 26.58243293 152.125 25.25 C150.43238037 24.93434082 150.43238037 24.93434082 148.70556641 24.61230469 C128.93869927 21.0626924 107.78789944 20.12309558 88 24 C86.74832031 24.23332031 85.49664062 24.46664063 84.20703125 24.70703125 C61.01045594 29.49390062 40.40072443 42.65487538 26.8203125 62.125 C20.30505976 72.35271752 15.39184583 82.73432921 12.25 94.4375 C12.05124268 95.17564941 11.85248535 95.91379883 11.64770508 96.67431641 C8.48390022 109.22375926 7.58674497 121.79945155 7.625 134.6875 C7.6262085 135.45000061 7.62741699 136.21250122 7.62866211 136.99810791 C7.69092661 151.61621834 9.14848336 165.64597957 12 180 C12.13575439 180.68729187 12.27150879 181.37458374 12.41137695 182.08270264 C30.09727781 282.47375274 30.09727781 282.47375274 86.90234375 362.69140625 C97.09451367 369.04965005 107.47824368 372.97648578 119.578125 370.46484375 C127.00932399 368.37909311 133.43098017 364.97985367 140 361 C141.05574219 361.88751953 141.05574219 361.88751953 142.1328125 362.79296875 C155.31742049 373.3440976 170.29228572 377.40070804 187.0625 377.375 C188.05749512 377.37483887 189.05249023 377.37467773 190.07763672 377.37451172 C200.93528082 377.20902541 210.94578787 375.10108845 221 371 C220.99476318 371.68288086 220.98952637 372.36576172 220.98413086 373.06933594 C220.29569811 429.76796934 220.29569811 429.76796934 245.4375 479.0625 C257.94609201 490.30001107 272.61015721 492.73895835 288.94091797 492.140625 C294.43459189 491.76543456 299.69499144 490.40177903 305 489 C306.15242188 488.7215625 307.30484375 488.443125 308.4921875 488.15625 C328.3904386 483.01549916 344.37267831 472.27038705 355.0625 454.625 C371.53629993 425.07815777 372.16439741 390.94712346 374 358 C374.59654892 358.00425491 375.19309784 358.00850983 375.807724 358.01289368 C378.54758999 358.02993064 381.28744478 358.04039982 384.02734375 358.05078125 C384.96557983 358.05758911 385.90381592 358.06439697 386.8704834 358.07141113 C413.61041098 358.14726081 440.77028408 348.99733054 460.02734375 330 C466.56343484 322.92499231 470.50870062 315.25284314 470.33203125 305.50390625 C469.57725331 299.81199261 467.16978601 294.93445995 462.875 291.10546875 C453.23475638 284.41266448 443.27039525 283.6399135 431.84765625 285.67578125 C429.18038839 286.18538121 426.53884763 286.75499374 423.88671875 287.34375 C419.52446153 288.08029192 415.40773783 288.13685085 411 288 C411.6290625 286.88625 412.258125 285.7725 412.90625 284.625 C429.61238947 254.9040324 444.50410026 223.81990222 454 191 C454.28230469 190.02820801 454.56460937 189.05641602 454.85546875 188.05517578 C461.63035468 164.47250788 467.17529508 140.71775989 467.35009766 116.11547852 C467.36654343 114.42946459 467.39368038 112.74351702 467.43212891 111.05786133 C467.8847199 91.0238225 463.15832647 75.17217087 449.1628418 60.32373047 C447.77870365 58.87914859 446.38947162 57.43945262 445 56 C444.34128906 55.278125 443.68257813 54.55625 443.00390625 53.8125 C420.59841853 29.91331309 385.03136284 17.13369448 352.96459961 15.79101562 C348.93232872 15.6978355 344.90794255 15.66687038 340.875 15.6875 C340.16476685 15.68865814 339.45453369 15.68981628 338.72277832 15.69100952 C312.19908456 15.68587405 312.19908456 15.68587405 287 23 Z " fill="#000000" transform="translate(0,0)"/>
<path d="M0 0 C1.24136719 0.23332031 2.48273438 0.46664062 3.76171875 0.70703125 C27.58857812 5.67133365 47.27930276 18.88805932 65 35 C65.68578125 35.61359375 66.3715625 36.2271875 67.078125 36.859375 C79.35262231 48.44558274 88.94382182 64.09698679 96.125 79.25 C96.42043701 79.86987793 96.71587402 80.48975586 97.02026367 81.12841797 C98.50802068 84.40538778 99 86.31356052 99 90 C98.42668945 90.01458252 97.85337891 90.02916504 97.26269531 90.04418945 C74.20120699 90.63123658 74.20120699 90.63123658 54.25 101.3125 C44.90914076 112.46963742 43.84737921 123.9092108 45 138 C45.76130484 143.16564854 47.34274658 148.05950867 49 153 C49.39429887 154.27571153 49.78750509 155.55176123 50.1796875 156.828125 C57.24997263 178.98349449 69.20371861 199.55704179 80.31103516 219.89575195 C81.42066967 221.93521463 82.51966435 223.9805092 83.60693359 226.03198242 C86.3752899 231.22716748 89.22317705 235.94546459 92.875 240.5625 C97 245.7970297 97 245.7970297 97 248 C96.41992188 248.20753906 95.83984375 248.41507813 95.2421875 248.62890625 C87.92930639 251.51302933 84.06768186 255.11114824 80.39453125 262.01953125 C78.36383553 266.96658235 78.33783414 272.09237947 78.0625 277.375 C77.39436743 287.69123233 76.40157577 297.93198501 75.125 308.1875 C75.03904572 308.87840729 74.95309143 309.56931458 74.86453247 310.28115845 C74.42566179 313.79390813 73.98095776 317.30587992 73.53222656 320.81738281 C73.09323291 324.2551331 72.6651575 327.69412728 72.24093628 331.13372803 C64.48762787 393.93067501 64.48762787 393.93067501 50.125 405.375 C45.95064536 408.20278863 41.73325011 410.27579215 37 412 C35.78441406 412.44730469 34.56882812 412.89460938 33.31640625 413.35546875 C20.83426478 417.64313642 6.68960448 420.16848394 -5.75 414.5 C-16.75322461 407.91032509 -22.35092372 397.02109053 -26 385 C-27.73774208 375.18445363 -28.51180215 365.21253345 -29.1328125 355.2734375 C-29.17541325 354.59941265 -29.21801399 353.9253878 -29.26190567 353.23093796 C-29.93725324 342.26518998 -30.13532611 331.3361609 -30.0546875 320.3515625 C-30.04950356 319.62181969 -30.04431961 318.89207687 -30.03897858 318.14022064 C-29.98690785 311.44292652 -29.90680207 304.74607655 -29.80810547 298.04931641 C-29.75425032 294.31661152 -29.72039942 290.58413755 -29.69836807 286.85111618 C-29.68612027 285.45816527 -29.66633366 284.06525577 -29.6382103 282.67253494 C-29.40739686 271.20162753 -31.01353418 262.14396181 -39.0859375 253.625 C-44.49659517 249.03146206 -51.14151858 248.46040732 -58 248 C-57.40919832 242.24543819 -55.8585884 237.27156496 -53.8125 231.875 C-53.50078857 231.0396875 -53.18907715 230.204375 -52.86791992 229.34375 C-50.61252626 223.38891525 -48.06597699 217.65030374 -45.34375 211.89453125 C-34.26161734 188.02284433 -33.87390576 160.26253153 -38.25 134.75 C-38.45447754 133.54956055 -38.65895508 132.34912109 -38.86962891 131.11230469 C-41.11632788 118.92952433 -44.14597735 107.11832901 -54.3125 99.1875 C-61.46009727 94.64746165 -68.77594951 93.46480494 -77.125 93.5625 C-78.04152344 93.57007324 -78.95804688 93.57764648 -79.90234375 93.58544922 C-92.12440871 93.87818049 -102.59902339 97.41698087 -113.48828125 102.828125 C-116 104 -116 104 -118 104 C-118.25928194 96.83641053 -117.33581931 90.42809792 -115.8125 83.4375 C-115.58473877 82.38046875 -115.35697754 81.3234375 -115.12231445 80.234375 C-109.04064151 52.6959897 -97.56124909 25.92799152 -73.15625 9.93359375 C-51.11620445 -3.56866188 -25.00540433 -4.85514585 0 0 Z " fill="#FEFEFE" transform="translate(274,49)"/>
<path d="M0 0 C1.27141846 0.00418945 2.54283691 0.00837891 3.8527832 0.01269531 C14.8188112 0.1424953 25.36998597 1.21722493 36.125 3.3125 C37.3330127 3.54525635 37.3330127 3.54525635 38.56542969 3.78271484 C47.98441351 5.64187443 57.10172748 7.98627405 66.125 11.3125 C65.34125 12.17875 64.5575 13.045 63.75 13.9375 C51.08831579 28.83886892 42.81017973 44.67039901 37.125 63.3125 C36.79242188 64.28058594 36.45984375 65.24867187 36.1171875 66.24609375 C34.9427412 69.87578015 34.00813775 73.54151142 33.125 77.25 C32.96 77.90806641 32.795 78.56613281 32.625 79.24414062 C29.80736521 91.05399268 28.8246205 102.79432708 28.97467041 114.90922928 C29.00087472 117.0479552 29.01339405 119.18642499 29.02294922 121.32528687 C29.04547527 125.86280857 29.08395625 130.40011292 29.125 134.9375 C29.17264822 140.21397931 29.21326382 145.49033301 29.23687744 150.76697922 C29.24959557 152.84789117 29.27458889 154.92840039 29.30029297 157.00918579 C29.33780085 164.34443545 28.88461139 171.28844719 27.59091187 178.5138092 C24.55697139 196.73841761 28.09243487 215.76293444 38.125 231.3125 C40.47985486 234.16246982 42.98927936 236.84758476 45.65649414 239.40722656 C47.0625 240.7890625 47.0625 240.7890625 49.125 243.3125 C48.8103999 246.70684702 47.39474325 248.42871245 45.0625 250.81640625 C44.4348877 251.46915527 43.80727539 252.1219043 43.16064453 252.79443359 C42.48888184 253.48102051 41.81711914 254.16760742 41.125 254.875 C35.87693675 260.34580585 30.90228448 265.86090591 26.17578125 271.7890625 C23.30661362 275.31950495 20.25551344 278.66934841 17.18359375 282.0234375 C15.37954019 284.0294629 13.68726813 286.08400922 12 288.1875 C8.01977339 292.80020098 3.91457332 295.45505513 -2.25 295.9375 C-9.69762827 295.54551956 -14.93495892 290.54003305 -19.875 285.375 C-61.37867178 235.98152131 -84.84197922 134.00253599 -79.56640625 70.875 C-77.40740092 52.83870769 -72.08208078 36.06617925 -59.875 22.3125 C-59.36710937 21.71179688 -58.85921875 21.11109375 -58.3359375 20.4921875 C-43.58984941 4.29328284 -20.89398322 -0.09468783 0 0 Z " fill="#FDFDFD" transform="translate(113.875,47.6875)"/>
<path d="M0 0 C1.09915741 -0.00200912 1.09915741 -0.00200912 2.22052002 -0.00405884 C14.11985563 0.00065293 25.58600744 0.7328559 37.25 3.25 C38.21035156 3.44335938 39.17070312 3.63671875 40.16015625 3.8359375 C42.92877768 4.49492931 45.55670086 5.32599648 48.25 6.25 C49.34900635 6.6227002 49.34900635 6.6227002 50.47021484 7.00292969 C77.04466516 16.1522736 106.09487406 32.80258257 120.25 58.25 C124.70227844 67.44180064 127.55140513 76.28123135 127.5859375 86.5 C127.59427109 87.26727921 127.60260468 88.03455841 127.6111908 88.8250885 C127.6305487 91.30026368 127.63064843 93.77476147 127.625 96.25 C127.62478851 97.09803192 127.62457703 97.94606384 127.62435913 98.8197937 C127.58913132 112.97920318 126.39846895 126.41458218 123.25 140.25 C123.05744629 141.14380371 122.86489258 142.03760742 122.66650391 142.95849609 C120.03430122 155.16074562 116.69564407 167.13024892 112.94677734 179.03369141 C112.33453124 180.98112312 111.73824223 182.93355648 111.14453125 184.88671875 C101.58191286 215.16258997 87.84868101 245.18570994 71.25 272.25 C77.05621292 272.56104712 82.25919377 271.93292388 87.9375 270.75 C100.88166535 268.15266102 111.44582782 268.16314496 123.0625 274.875 C127.41037021 279.5955448 130.51033685 285.30735736 130.75 291.8125 C129.9808623 303.03402189 124.19349612 310.68119709 116.25 318.25 C106.88217914 326.24536329 95.76758075 332.03909259 84.25 336.25 C83.46109375 336.54519531 82.6721875 336.84039062 81.859375 337.14453125 C69.61743983 341.48913412 57.02517037 342.43026841 44.125 342.3125 C43.16851562 342.30798828 42.21203125 342.30347656 41.2265625 342.29882812 C38.90097242 342.28720017 36.5755224 342.27086102 34.25 342.25 C34.18530518 343.41120361 34.12061035 344.57240723 34.05395508 345.76879883 C29.26251572 429.8542693 29.26251572 429.8542693 1.4375 455.9375 C-16.7010409 471.60136741 -41.25451189 477.17464585 -64.75 476.25 C-67.89049483 475.88461106 -70.74295527 475.21203442 -73.75 474.25 C-74.63042969 473.99347656 -75.51085937 473.73695313 -76.41796875 473.47265625 C-89.71250662 469.20006684 -98.24934377 459.90880002 -104.953125 447.984375 C-119.45198936 419.20872954 -118.99036143 386.59313094 -118.75 355.25 C-119.50023437 355.51554687 -120.25046875 355.78109375 -121.0234375 356.0546875 C-142.0716978 363.31819294 -165.62180022 364.47764753 -186.25 354.9375 C-191.14516111 352.24600248 -195.47778432 348.83081846 -199.75 345.25 C-200.45125 345.64832031 -201.1525 346.04664063 -201.875 346.45703125 C-214.3110004 353.40159126 -224.997893 357.64031909 -239.1875 353.6875 C-261.29702208 346.25703782 -274.63331347 325.70245001 -284.609375 305.71875 C-301.37815185 271.07758393 -311.96789309 233.6108333 -320.75 196.25 C-320.9003772 195.61066528 -321.05075439 194.97133057 -321.20568848 194.31262207 C-329.56178391 158.67536133 -337.60174459 120.61495937 -328.75 84.25 C-328.48316406 82.99574219 -328.21632813 81.74148437 -327.94140625 80.44921875 C-324.56790164 66.01061903 -318.20915948 52.6948609 -308.75 41.25 C-308.07453125 40.41210938 -307.3990625 39.57421875 -306.703125 38.7109375 C-292.48938131 21.95531994 -273.13612814 12.23649763 -251.75 8.25 C-250.04263672 7.91548828 -250.04263672 7.91548828 -248.30078125 7.57421875 C-231.42372796 4.79602521 -213.55518163 5.29228803 -196.75 8.25 C-194.9899 8.52288372 -193.22945358 8.79353821 -191.46875 9.0625 C-180.6036305 10.77886861 -170.13211835 12.98820045 -159.66357422 16.40722656 C-153.91713008 18.21367814 -149.32674793 18.89425592 -143.6171875 16.26953125 C-142.95976562 15.87121094 -142.30234375 15.47289062 -141.625 15.0625 C-127.00043609 7.28540633 -110.33211414 5.04648419 -94.0625 5.0625 C-93.32067474 5.0617749 -92.57884949 5.0610498 -91.81454468 5.06030273 C-81.82420743 5.06138518 -72.0165182 5.40194993 -62.11328125 6.8125 C-57.2448265 7.44579493 -53.19486974 7.63226942 -48.5625 5.9375 C-41.22680104 3.58159059 -33.5781036 2.63805004 -25.96875 1.56445312 C-24.02577418 1.28908419 -22.08667927 0.98661082 -20.1484375 0.6796875 C-13.47471499 -0.12658957 -6.71335128 0.0072235 0 0 Z M-43.8125 17.8125 C-45.59487815 18.25200806 -47.37742481 18.69083342 -49.16015625 19.12890625 C-49.92465088 19.3204126 -50.68914551 19.51191895 -51.47680664 19.70922852 C-56.82979134 20.98265362 -60.00805976 21.11071897 -65.4375 19.8125 C-73.76212877 18.11729242 -82.10672877 17.88122448 -90.57217407 17.82711792 C-92.04145522 17.817531 -93.51071108 17.80110549 -94.97982788 17.77713013 C-111.91817691 17.53274201 -127.9387365 21.2374939 -142.5625 30.125 C-145.48818575 31.78114711 -146.60140114 32.24719625 -150.0625 32.3125 C-153.02800391 31.45803277 -155.8998002 30.51112293 -158.8125 29.5 C-168.25279524 26.25894983 -177.98913597 24.26376209 -187.75 22.25 C-188.5327832 22.08048828 -189.31556641 21.91097656 -190.12207031 21.73632812 C-201.98873157 19.23097082 -213.85475091 18.91744472 -225.9375 18.8125 C-227.0700119 18.79417618 -227.0700119 18.79417618 -228.22540283 18.77548218 C-252.78192585 18.44078735 -275.20002869 25.77296024 -293.37109375 42.77734375 C-316.05279042 66.35290039 -319.24573706 96.67768568 -318.9609375 127.828125 C-317.76273533 185.9039487 -295.91852907 286.13865939 -252.75 328.25 C-251.925 329.1575 -251.1 330.065 -250.25 331 C-242.05373867 338.37663519 -235.92504699 340.59115571 -225 340.45703125 C-215.61200497 339.85899791 -208.61470938 334.62375256 -202.49609375 327.69921875 C-200.98450432 325.84062096 -199.48859947 323.96916831 -198.0078125 322.0859375 C-195.10589113 318.4409636 -191.99492609 315.01791883 -188.859375 311.57421875 C-187.00373343 309.52957665 -185.18243624 307.46215851 -183.375 305.375 C-179.85591776 301.32722935 -176.22163779 297.38839328 -172.56884766 293.46142578 C-170.13225352 290.82621045 -167.83684248 288.17157947 -165.75 285.25 C-162.69831716 286.26722761 -159.64715762 287.28496131 -156.6015625 288.3203125 C-150.4222179 290.34019512 -145.25557533 291.7602412 -138.75 291.25 C-147.99601043 304.86218202 -147.99601043 304.86218202 -155.75 307.25 C-157.38195312 307.76433594 -157.38195312 307.76433594 -159.046875 308.2890625 C-164.16101795 309.81452574 -169.25672049 311.1909975 -174.5 312.1875 C-180.81350668 313.53280797 -186.53371224 316.29755602 -191.375 320.5625 C-193.26129726 324.24935373 -193.82545238 327.27741059 -192.75 331.25 C-189.12347694 337.28690093 -184.18342235 340.70186017 -177.75 343.25 C-176.93789062 343.5903125 -176.12578125 343.930625 -175.2890625 344.28125 C-159.39410706 350.34578684 -140.16443926 348.77345883 -124.75 342.25 C-118.84235336 339.47702301 -113.81821806 336.35009013 -108.75 332.25 C-108.76571045 334.21114746 -108.76571045 334.21114746 -108.78173828 336.21191406 C-110.73563628 386.14378121 -110.73563628 386.14378121 -99.75 434.25 C-99.47671875 434.93191406 -99.2034375 435.61382812 -98.921875 436.31640625 C-93.25372576 449.06974203 -83.21380134 457.43935974 -70.46850586 462.41430664 C-66.04774869 463.77328749 -61.84532126 463.84511554 -57.25 463.75 C-56.29802734 463.73791504 -55.34605469 463.72583008 -54.36523438 463.71337891 C-36.49200629 463.22153724 -18.26117609 458.43442733 -4.75 446.25 C-4.13769531 445.75242187 -3.52539062 445.25484375 -2.89453125 444.7421875 C10.26899593 433.17688106 13.13034275 412.85046754 15.6875 396.4375 C15.89141357 395.1494043 16.09532715 393.86130859 16.30541992 392.53417969 C18.13878746 380.72230681 19.62551689 368.86564141 21.0625 357 C21.173591 356.09599457 21.28468201 355.19198914 21.3991394 354.2605896 C23.10680045 340.30066013 23.10680045 340.30066013 23.25 326.25 C23.8493335 326.39074951 24.44866699 326.53149902 25.06616211 326.67651367 C31.37880424 328.06215602 37.35759114 328.60240938 43.8125 328.5625 C44.76705078 328.55758545 45.72160156 328.5526709 46.70507812 328.54760742 C69.82721914 328.17111965 93.44398635 320.73992232 110.3203125 304.375 C113.97756191 300.34758364 115.95837687 297.12934903 116.8125 291.625 C116.10202182 287.3621309 114.52196387 285.96333589 111.25 283.25 C110.92 282.92 110.59 282.59 110.25 282.25 C107.75941086 282.15002358 105.30272605 282.11120373 102.8125 282.125 C102.11833984 282.12113281 101.42417969 282.11726563 100.70898438 282.11328125 C96.85230243 282.05640165 96.85230243 282.05640165 93.25 283.25 C84.4686708 284.98850014 75.68454075 285.47816964 66.75 285.5625 C65.81897461 285.57998291 64.88794922 285.59746582 63.92871094 285.61547852 C58.2544743 285.61087778 54.29540394 284.87665947 49.25 282.25 C52.2126947 276.67387135 55.27594851 271.17631794 58.53710938 265.77001953 C74.9131467 238.49640181 88.51543312 209.55449213 98.25 179.25 C98.68022461 177.93201416 98.68022461 177.93201416 99.11914062 176.58740234 C117.24477202 121.30280293 117.24477202 121.30280293 109.125 65.375 C105.79999401 60.14431894 101.53065488 55.70215547 97.25 51.25 C96.1053125 50.01056641 96.1053125 50.01056641 94.9375 48.74609375 C75.07679087 27.87274978 44.99834236 14.56154247 16.2104187 13.1499939 C14.09544688 13.10314056 11.98267271 13.08528231 9.8671875 13.08203125 C9.09045685 13.07870285 8.3137262 13.07537445 7.51345825 13.07194519 C5.87811875 13.06691423 4.24276911 13.06453567 2.60742188 13.06469727 C0.15216376 13.06252404 -2.30263435 13.0443638 -4.7578125 13.02539062 C-18.16189741 12.97569601 -30.79390388 14.53107375 -43.8125 17.8125 Z " fill="#F8F8F8" transform="translate(339.75,15.75)"/>
<path d="M0 0 C1.28970703 -0.00773437 2.57941406 -0.01546875 3.90820312 -0.0234375 C37.30589298 0.04345822 66.62381056 11.4910418 90.29296875 34.95703125 C103.11623517 48.57521467 102.22039167 62.97461331 101.85456848 80.58950806 C101.49279237 92.38288812 99.20174848 103.78050883 96.5625 115.25 C96.19294189 116.90708984 96.19294189 116.90708984 95.81591797 118.59765625 C89.98889775 144.29515356 80.57343138 168.82602873 69.68408203 192.77636719 C68.65584192 195.04413576 67.65141259 197.3208386 66.65234375 199.6015625 C61.35989797 211.47130094 54.72272899 222.54432132 48.07617188 233.69628906 C46.20072512 236.86034923 44.37378747 240.04886324 42.5625 243.25 C41.9025 243.25 41.2425 243.25 40.5625 243.25 C39.3806043 239.76531397 39.49162039 239.3943844 41.25 235.8125 C41.62125 235.12671875 41.9925 234.4409375 42.375 233.734375 C47.60312302 222.79659132 48.75625402 211.91234367 48.75 200 C48.7509668 198.09855225 48.7509668 198.09855225 48.75195312 196.15869141 C48.71484423 189.55583752 48.48240535 183.16219975 47.5625 176.625 C45.53151272 161.9405236 45.50587034 146.73494937 48.0625 132.125 C51.4097242 112.46406167 50.75539066 96.14364831 41.5625 78.25 C41.01746826 77.1676709 41.01746826 77.1676709 40.46142578 76.06347656 C24.34706221 44.53252972 -0.71436418 19.90194367 -32.4375 4.25 C-23.7840882 -1.5189412 -10.03243468 -0.05998466 0 0 Z " fill="#FDFDFD" transform="translate(338.4375,41.75)"/>
<path d="M0 0 C0.75990234 -0.02449219 1.51980469 -0.04898438 2.30273438 -0.07421875 C9.50267934 -0.11111001 14.99773429 2.2838791 20.3125 7.125 C30.38688896 19.93699466 29.53641056 43.32201303 29.5625 59 C29.56384949 59.74167419 29.56519897 60.48334839 29.56658936 61.24749756 C29.52966444 74.11289573 27.89031541 85.39646647 23.0625 97.375 C22.67674805 98.3355127 22.29099609 99.29602539 21.89355469 100.28564453 C19.81107835 105.406903 17.66161075 110.49602016 15.4765625 115.57421875 C12.17569256 123.34485494 9.5650115 131.3181337 7.0625 139.375 C-5.71327343 139.77624917 -17.00588557 134.68454647 -26.375 126.15625 C-37.48928776 114.591383 -42.89805846 100.91173529 -43.25 84.9375 C-43.12626094 80.52448961 -42.62935191 76.34786238 -41.890625 72 C-40.87105452 65.17997329 -40.88169886 58.5042104 -41.05859375 51.62109375 C-41.08141922 50.58292007 -41.10424469 49.5447464 -41.12776184 48.47511292 C-41.22729771 44.15253341 -41.33436492 39.83184495 -41.5065918 35.51147461 C-41.62759954 32.31843918 -41.69142296 29.12836179 -41.74609375 25.93359375 C-41.82518227 24.47571693 -41.82518227 24.47571693 -41.90586853 22.98838806 C-41.92781859 20.18239017 -41.83810078 18.03589175 -40.9375 15.375 C-38.25469306 12.69069572 -35.3315024 11.02744706 -31.9375 9.375 C-31.19981888 9.00432907 -30.46213776 8.63365814 -29.70210266 8.25175476 C-27.76275146 7.30771124 -25.80203465 6.45755576 -23.8125 5.625 C-23.14863281 5.33496094 -22.48476562 5.04492188 -21.80078125 4.74609375 C-14.52763496 1.62903105 -7.90935615 0.01334912 0 0 Z " fill="#FCFCFC" transform="translate(195.9375,154.625)"/>
<path d="M0 0 C1.24716797 0.01804688 2.49433594 0.03609375 3.77929688 0.0546875 C6.83284591 0.10148519 9.8847556 0.16703632 12.9375 0.25 C12.5276474 7.01256782 12.0654728 13.58353902 10.9140625 20.26171875 C9.72369185 27.80597757 9.63137213 35.25349132 9.6875 42.875 C9.68927246 43.57720673 9.69104492 44.27941345 9.69287109 45.00289917 C9.71691935 53.15259889 9.91823524 61.21644694 10.9375 69.3125 C13.01965197 85.98276419 13.33327264 101.51183089 6.9375 117.25 C3.58648345 114.49701102 2.07155995 110.76529833 0.25 106.9375 C-2.25414998 101.78521718 -4.86435604 96.79267646 -7.8125 91.875 C-11.7336266 85.12972865 -15.03714535 78.14120363 -18.3125 71.0625 C-18.82006836 69.96953613 -19.32763672 68.87657227 -19.85058594 67.75048828 C-36.33258047 31.70906138 -36.33258047 31.70906138 -31.33203125 13.60546875 C-28.35222857 7.04990286 -23.18619543 3.8765286 -16.85083008 1.09667969 C-11.35057561 -0.57347901 -5.6931271 -0.15738576 0 0 Z " fill="#FAFAFA" transform="translate(363.0625,152.75)"/>
<path d="M0 0 C4.18869596 0.80008799 6.53046164 2.63217129 9.03125 6.04296875 C11.17922515 10.25453431 11.52968018 13.65691182 10.125 18.1875 C2.77642401 29.38753092 -8.33088072 36.28174434 -21.1328125 39.53125 C-33.63489852 41.72368262 -48.00685381 41.28060455 -58.875 34.1875 C-55.25252802 31.77251868 -51.5912424 30.90370856 -47.4375 29.8125 C-45.80297721 29.36346244 -44.16886214 28.91293813 -42.53515625 28.4609375 C-39.8183992 27.71356866 -37.10075591 26.98897588 -34.37109375 26.2890625 C-23.18039688 23.10839507 -16.51997807 15.50777953 -9.6640625 6.44921875 C-4.74419245 0.2295577 -4.74419245 0.2295577 0 0 Z " fill="#F7F7F7" transform="translate(220.875,309.8125)"/>
<path d="M0 0 C6.41060757 2.59451234 13.143244 2.12118509 19.94140625 2.125 C21.06675781 2.13724609 22.19210937 2.14949219 23.3515625 2.16210938 C29.76489041 2.17323075 35.74256438 1.71660968 42.02026367 0.38061523 C44.81272319 -0.15828046 47.48075316 -0.21577855 50.31640625 -0.0625 C42.98761407 8.57500507 32.0273817 13.08123988 21.31640625 15.9375 C20.21039063 16.2365625 19.104375 16.535625 17.96484375 16.84375 C10.39297181 18.62536693 3.13895701 19.23913175 -4.62109375 19.3125 C-5.49693115 19.32635742 -6.37276855 19.34021484 -7.27514648 19.35449219 C-13.06490996 19.31254138 -17.37743068 18.26163631 -22.68359375 15.9375 C-23.04026363 10.92430673 -23.24664732 7.08446097 -20.99609375 2.5 C-13.89456036 -5.36926673 -8.62284275 -4.07897953 0 0 Z " fill="#F6F6F6" transform="translate(387.68359375,312.0625)"/>
<path d="M0 0 C7.47767857 2.47767857 7.47767857 2.47767857 10 5 C9.91784285 9.35432895 9.66708034 11.34959667 6.5 14.4375 C2.10517044 16.39947748 -1.27235473 17.07334754 -6 16 C-8.93989054 14.45067221 -11.04487508 12.69048534 -13 10 C-13.9375 6.125 -13.9375 6.125 -14 3 C-9.53439365 -0.85247962 -5.68664568 -0.77921967 0 0 Z " fill="#090909" transform="translate(204,162)"/>
<path d="M0 0 C1.43859375 -0.02126953 1.43859375 -0.02126953 2.90625 -0.04296875 C5.5 0.1875 5.5 0.1875 8.5 2.1875 C9.125 4.4375 9.125 4.4375 8.5 7.1875 C5.19549837 10.76737677 1.69073045 13.93855336 -3.25 14.5 C-7.38466018 14.10243652 -9.36815404 12.8823442 -12.5 10.1875 C-13.375 7.4375 -13.375 7.4375 -13.5 5.1875 C-8.88885501 1.32410825 -5.99996852 0.04032237 0 0 Z " fill="#080808" transform="translate(354.5,158.8125)"/>
</svg>
