<?xml version="1.0" encoding="UTF-8"?>
<svg version="1.1" xmlns="http://www.w3.org/2000/svg" width="500" height="500">
<path d="M0 0 C165 0 330 0 500 0 C500 165 500 330 500 500 C335 500 170 500 0 500 C0 335 0 170 0 0 Z " fill="#FDFDFD" transform="translate(0,0)"/>
<path d="M0 0 C165 0 330 0 500 0 C500 165 500 330 500 500 C335 500 170 500 0 500 C0 335 0 170 0 0 Z M220 12 C219.37480469 12.52335938 218.74960938 13.04671875 218.10546875 13.5859375 C211.30034701 19.66458655 206.54306596 29.05021742 205 38 C204.70400644 44.80785192 204.82083751 51.28553707 206 58 C205.2879541 58.40613525 204.5759082 58.81227051 203.84228516 59.23071289 C188.69118468 67.87481188 173.55599579 76.5452444 158.453125 85.2734375 C154.07127892 87.80573382 149.68558205 90.33117618 145.296875 92.8515625 C143.63736816 93.80579102 143.63736816 93.80579102 141.94433594 94.77929688 C139.75581178 96.03742462 137.56637834 97.29397216 135.37597656 98.54882812 C130.21971392 101.51466618 125.10771889 104.52811193 120.0625 107.6796875 C119.14130371 108.25114502 118.22010742 108.82260254 117.27099609 109.41137695 C115.55150471 110.48435354 113.84029656 111.57076156 112.13916016 112.67260742 C111.38425293 113.14287354 110.6293457 113.61313965 109.8515625 114.09765625 C108.87437256 114.72426147 108.87437256 114.72426147 107.87744141 115.36352539 C106 116 106 116 103.88476562 115.2043457 C101.83930653 113.89731853 99.8522881 112.53317934 97.875 111.125 C86.91698985 103.71702289 75.33408063 101.40224853 62.24609375 103.42578125 C50.32417249 106.54499981 40.30956134 114.54814973 33.75 124.8125 C27.89913808 135.21577052 26.23819796 146.31402084 28.625 158.125 C32.4968947 170.74250302 39.20006275 180.30806687 50.66796875 186.7734375 C51.43753906 187.17820313 52.20710938 187.58296875 53 188 C53.65613281 188.38414062 54.31226562 188.76828125 54.98828125 189.1640625 C57.40645877 190.31976997 57.40645877 190.31976997 62 190 C62 229.6 62 269.2 62 310 C59.69 310.33 57.38 310.66 55 311 C42.86361015 316.90148627 34.48153894 326.05776906 29.6875 338.5625 C25.90768524 350.87788006 27.3786587 362.51599719 33 374 C35.04236938 377.33620047 37.29970711 380.17542585 40 383 C40.89332031 383.93585938 40.89332031 383.93585938 41.8046875 384.890625 C49.3044439 392.04806887 58.55202861 396.88885137 69 397 C69.78890625 397.04898437 70.5778125 397.09796875 71.390625 397.1484375 C82.17020323 397.58911208 91.28160259 394.24601605 100 388 C100.69609375 387.13375 100.69609375 387.13375 101.40625 386.25 C103 385 103 385 105.79199219 385.25732422 C108.98596912 385.99675176 111.12693094 386.95350673 113.921875 388.6328125 C114.85112793 389.18380615 115.78038086 389.7347998 116.73779297 390.30249023 C118.22883545 391.20463257 118.22883545 391.20463257 119.75 392.125 C121.91360121 393.41093269 124.07768002 394.6960621 126.2421875 395.98046875 C127.91619629 396.97892822 127.91619629 396.97892822 129.62402344 397.99755859 C135.01253035 401.19372099 140.44350403 404.31514128 145.875 407.4375 C148.05348255 408.69253975 150.23186738 409.94774913 152.41015625 411.203125 C153.49441895 411.82767578 154.57868164 412.45222656 155.69580078 413.09570312 C159.02614252 415.01506662 162.35509148 416.93682353 165.68359375 418.859375 C179.10190146 426.60902794 192.53753017 434.32730329 206 442 C205.75830078 443.30324219 205.75830078 443.30324219 205.51171875 444.6328125 C204.310491 452.53707452 204.39954237 460.40785933 207 468 C207.24492187 468.77859375 207.48984375 469.5571875 207.7421875 470.359375 C212.00166579 482.49700341 220.32603554 490.27002262 231.4140625 496.31640625 C241.9030667 500.9763818 255.41603663 500.73340016 266.125 496.9375 C279.83512433 490.75313642 287.52647914 480.86647628 293.12890625 467.2578125 C294.24650291 463.07810122 294.25457878 459.24113359 294.1875 454.9375 C294.18685547 454.14794922 294.18621094 453.35839844 294.18554688 452.54492188 C294.15537067 448.54489838 293.85837745 444.92199293 293 441 C305.31364649 433.79885058 317.63911799 426.61978587 330 419.5 C339.32100394 414.13102964 348.62131981 408.72803656 357.90820312 403.30029297 C369.57763358 396.48536111 381.28853743 389.74235857 393 383 C393.5158667 383.39541992 394.0317334 383.79083984 394.56323242 384.19824219 C406.56497956 393.31405709 417.69607516 398.18316058 433 397 C444.06535362 395.21526555 454.93373478 389.53224835 461.8359375 380.6328125 C469.8483255 368.96920972 472.37211029 356.8783239 471 343 C468.54885274 330.94341941 460.90188106 321.77797358 451.1015625 314.75390625 C446.9496445 312.40603323 442.42864216 310.77145686 438 309 C438 270.06 438 231.12 438 191 C443.445 189.02 443.445 189.02 449 187 C459.26330249 180.96038949 467.04696754 170.84789701 470.375 159.4375 C472.91800891 145.45095097 471.38017817 133.25098136 463.4375 121.3125 C455.87952733 111.49695108 445.2489849 104.99530976 433 103 C417.66521279 101.74439997 406.04044583 106.90820262 394 116 C381.38377688 108.91939397 368.8208269 101.75795612 356.33789062 94.44482422 C348.00434844 89.5693001 339.62769968 84.77177302 331.23654175 79.99642944 C324.78893323 76.32679004 318.35524538 72.63691291 311.9609375 68.875 C310.85105469 68.22273438 309.74117188 67.57046875 308.59765625 66.8984375 C306.49119168 65.65753837 304.38692394 64.41290045 302.28515625 63.1640625 C300.88716797 62.34035156 300.88716797 62.34035156 299.4609375 61.5 C298.64415527 61.0153125 297.82737305 60.530625 296.98583984 60.03125 C295.07711669 58.84637838 295.07711669 58.84637838 293 59 C293.15984375 57.99582031 293.3196875 56.99164063 293.484375 55.95703125 C295.39552383 41.29041184 293.99397476 29.8156139 285 18 C284.5359375 17.3709375 284.071875 16.741875 283.59375 16.09375 C276.77475321 7.45635407 267.68069421 3.10772014 257 1 C242.76608729 -0.46834047 230.6013642 2.21092108 220 12 Z " fill="#000000" transform="translate(0,0)"/>
<path d="M0 0 C1.74563668 0.24284932 3.49018754 0.49478985 5.23046875 0.7734375 C5.58125488 1.40507813 5.93204102 2.03671875 6.29345703 2.6875 C13.94032014 16.44045885 21.71136914 30.10712801 29.66796875 43.68359375 C33.36260185 49.98914169 37.01899556 56.31638186 40.66796875 62.6484375 C41.29050537 63.72859131 41.91304199 64.80874512 42.55444336 65.92163086 C43.81623701 68.11140084 45.07787409 70.30126105 46.33935547 72.49121094 C49.46727023 77.92003692 52.59905323 83.34663031 55.73046875 88.7734375 C56.98048754 90.94009333 58.23048753 93.10676 59.48046875 95.2734375 C60.40859375 96.8821875 60.40859375 96.8821875 61.35546875 98.5234375 C63.23046875 101.7734375 65.10546875 105.0234375 66.98046875 108.2734375 C67.59913818 109.34577637 68.21780762 110.41811523 68.85522461 111.52294922 C70.10611355 113.69120014 71.35692727 115.85949447 72.60766602 118.02783203 C75.7184521 123.42061665 78.83051113 128.81265843 81.9453125 134.203125 C88.08245206 144.82729753 94.20065945 155.46164387 100.27862549 166.11975098 C105.57361962 175.40470909 110.89988559 184.66998394 116.29296875 193.8984375 C116.84863525 194.85347168 117.40430176 195.80850586 117.97680664 196.79248047 C120.76133189 201.57385883 123.56517548 206.34186567 126.41539001 211.08432007 C127.84980328 213.47661837 129.27148839 215.87634099 130.69137573 218.27728271 C131.71135153 219.99131177 132.74823251 221.69524476 133.78540039 223.39892578 C134.39633545 224.4351709 135.00727051 225.47141602 135.63671875 226.5390625 C136.18650391 227.45461914 136.73628906 228.37017578 137.30273438 229.31347656 C138.23046875 231.7734375 138.23046875 231.7734375 137.47802734 233.97509766 C136.86048584 234.86527588 136.86048584 234.86527588 136.23046875 235.7734375 C135.77929688 236.43601562 135.328125 237.09859375 134.86328125 237.78125 C133.86720477 239.17988589 132.86726924 240.57578237 131.86328125 241.96875 C129.51724234 245.99854889 127.96224789 250.44398965 126.23046875 254.7734375 C37.46046875 254.7734375 -51.30953125 254.7734375 -142.76953125 254.7734375 C-144.08953125 251.1434375 -145.40953125 247.5134375 -146.76953125 243.7734375 C-149.04745833 240.62964602 -149.04745833 240.62964602 -151.5 237.625 C-153.12177802 235.25969914 -153.50102368 233.63434322 -153.76953125 230.7734375 C-152.74414062 228.23168945 -152.74414062 228.23168945 -151.11328125 225.51171875 C-150.51064453 224.48884766 -149.90800781 223.46597656 -149.28710938 222.41210938 C-148.62130859 221.31447266 -147.95550781 220.21683594 -147.26953125 219.0859375 C-146.57984021 217.92474142 -145.89171427 216.76261447 -145.20507812 215.59960938 C-143.77687938 213.18335406 -142.34201726 210.77125096 -140.90234375 208.36181641 C-137.62792801 202.86914668 -134.45389753 197.31861248 -131.26953125 191.7734375 C-130.02000646 189.60649674 -128.77000478 187.4398309 -127.51953125 185.2734375 C-126.90078125 184.2009375 -126.28203125 183.1284375 -125.64453125 182.0234375 C-103.76953125 144.10677083 -81.89453125 106.19010417 -60.01953125 68.2734375 C-59.40062012 67.20061523 -58.78170898 66.12779297 -58.14404297 65.02246094 C-56.89582091 62.85896274 -55.64744886 60.69555107 -54.39892578 58.53222656 C-50.60802959 51.96318599 -46.81915017 45.39302126 -43.0456543 38.81396484 C-41.78666427 36.63486281 -40.51481985 34.46313293 -39.22973633 32.29931641 C-36.12352972 27.04550468 -33.29332102 21.84727479 -30.8515625 16.25 C-23.66523314 0.63136882 -17.08442541 -1.7831768 0 0 Z " fill="#000000" transform="translate(257.76953125,87.2265625)"/>
<path d="M0 0 C88.77 0 177.54 0 269 0 C268 4 268 4 265.53515625 5.83203125 C264.38917969 6.48558594 263.24320312 7.13914062 262.0625 7.8125 C261.41063721 8.18938965 260.75877441 8.5662793 260.0871582 8.95458984 C258.58568556 9.82077832 257.0807734 10.6810206 255.57324219 11.53662109 C252.75124184 13.14146645 249.94148615 14.76647872 247.1328125 16.39453125 C241.57311944 19.61463273 236.00571862 22.82114154 230.43603516 26.02392578 C224.91362964 29.19987791 219.39396489 32.38057365 213.875 35.5625 C212.80983154 36.17609375 211.74466309 36.7896875 210.6472168 37.421875 C205.21426709 40.55492134 199.79109151 43.70343962 194.3828125 46.87890625 C193.31047363 47.50788818 192.23813477 48.13687012 191.13330078 48.78491211 C189.11695917 49.9690454 187.10217981 51.15584504 185.08935547 52.34594727 C179.17381079 55.81965246 173.17764028 59.01670897 167 62 C166.53053955 61.52393311 166.0610791 61.04786621 165.57739258 60.55737305 C157.00701278 52.08777786 147.09161524 48.44677572 135.25 48.4375 C123.01853378 48.73568182 115.07464905 52.04329558 105 59 C104.01 59.66 103.02 60.32 102 61 C85.05263558 51.33359764 68.12792978 41.62960225 51.23535156 31.86767578 C47.94776071 29.96984375 44.65781144 28.07616129 41.3671875 26.18359375 C35.96515069 23.07607287 30.56787791 19.96045324 25.17480469 16.83740234 C23.02556887 15.59354286 20.87514186 14.35173973 18.72363281 13.11181641 C15.60298822 11.31122794 12.48828239 9.50078076 9.375 7.6875 C8.42592773 7.14206543 7.47685547 6.59663086 6.49902344 6.03466797 C5.64083008 5.53209473 4.78263672 5.02952148 3.8984375 4.51171875 C3.14224121 4.07303467 2.38604492 3.63435059 1.60693359 3.18237305 C1.07664551 2.79218994 0.54635742 2.40200684 0 2 C0 1.34 0 0.68 0 0 Z " fill="#000000" transform="translate(115,363)"/>
<path d="M0 0 C0.99 0.99 0.99 0.99 2 2 C-5.08060603 14.61622312 -12.24204388 27.1791731 -19.55517578 39.66210938 C-24.08915937 47.41186973 -28.55555697 55.19873011 -33 63 C-37.95363554 71.69410256 -42.94378504 80.36497459 -48 89 C-53.03189893 97.59517466 -58.00374921 106.22320217 -62.9375 114.875 C-72.85172698 132.25817946 -82.83475167 149.60057411 -92.9375 166.875 C-98.66633103 176.67246028 -104.31204223 186.51612447 -109.93334961 196.37548828 C-116.90999422 208.61000059 -123.95046064 220.80736193 -131 233 C-131.99 233 -132.98 233 -134 233 C-134 194.06 -134 155.12 -134 115 C-128.72 112.36 -123.44 109.72 -118 107 C-111.26473923 101.31965959 -107.29885362 96.1112989 -104 88 C-103.68160156 87.30519531 -103.36320312 86.61039062 -103.03515625 85.89453125 C-99.65192139 77.58455807 -100.15697067 67.63896916 -102 59 C-101.27748047 58.58862793 -100.55496094 58.17725586 -99.81054688 57.75341797 C-86.15105101 49.97233749 -72.5118608 42.16123284 -58.94335938 34.22216797 C-51.64489598 29.95346047 -44.32693771 25.71962827 -37 21.5 C-24.63905731 14.38032107 -12.31364538 7.20114876 0 0 Z " fill="#010101" transform="translate(217,76)"/>
<path d="M0 0 C3.3914178 0.67013395 6.0112775 1.97546055 9.015625 3.66796875 C10.00667236 4.22403809 10.99771973 4.78010742 12.01879883 5.35302734 C13.08509521 5.95840332 14.1513916 6.5637793 15.25 7.1875 C16.36463623 7.8160791 17.47927246 8.4446582 18.62768555 9.09228516 C27.04835161 13.85574211 35.4152792 18.70926224 43.76025391 23.60400391 C49.73365197 27.10524894 55.72360314 30.57529675 61.74372864 33.99555969 C64.72431051 35.68910037 67.69780757 37.39271015 70.65649414 39.12426758 C76.22639961 42.37118298 81.78979536 45.42474013 87.6640625 48.09375 C99.46525052 53.69237596 99.46525052 53.69237596 103 58 C105.14095457 64.66351848 103.91521334 71.603009 103.1484375 78.42333984 C102.67700897 86.60665679 108.08192759 94.00810273 113.1171875 100.03515625 C118.29427613 105.43780269 124.26447222 108.88694094 131 112 C132.32 112.66 133.64 113.32 135 114 C135 152.94 135 191.88 135 232 C131.07612434 230.69204145 130.7265064 229.2626032 128.734375 225.69140625 C128.09943115 224.56524902 127.4644873 223.4390918 126.81030273 222.27880859 C126.12350331 221.04005672 125.4367366 219.8012867 124.75 218.5625 C124.03367412 217.28668728 123.31629291 216.01146657 122.59790039 214.73681641 C121.11756612 212.1093667 119.64093264 209.47988874 118.16650391 206.84912109 C114.97305482 201.16255782 111.70528068 195.51907265 108.4375 189.875 C107.19646826 187.72664702 105.95558302 185.5782094 104.71484375 183.4296875 C104.10237793 182.36975586 103.48991211 181.30982422 102.85888672 180.21777344 C99.73675395 174.81329355 96.61858796 169.40652588 93.5 164 C92.25001878 161.8333225 91.00001879 159.66665583 89.75 157.5 C37.25 66.5 37.25 66.5 35.37402344 63.24829102 C34.12729744 61.08731012 32.88055273 58.92634002 31.63378906 56.76538086 C28.45854117 51.26181149 25.28364505 45.75803968 22.109375 40.25390625 C21.4687915 39.14337891 20.82820801 38.03285156 20.16821289 36.88867188 C18.90384799 34.69626926 17.64000103 32.50356786 16.37670898 30.31054688 C13.47120517 25.26933721 10.55642826 20.23418434 7.61328125 15.21484375 C7.09540039 14.32917725 6.57751953 13.44351074 6.04394531 12.53100586 C5.08211292 10.88774342 4.11681477 9.24650284 3.14746094 7.60766602 C0 2.22318174 0 2.22318174 0 0 Z " fill="#010101" transform="translate(281,77)"/>
</svg>
