<?xml version="1.0" encoding="UTF-8"?>
<svg version="1.1" xmlns="http://www.w3.org/2000/svg" width="500" height="500">
<path d="M0 0 C165 0 330 0 500 0 C500 165 500 330 500 500 C335 500 170 500 0 500 C0 335 0 170 0 0 Z " fill="#FDFDFD" transform="translate(0,0)"/>
<path d="M0 0 C165 0 330 0 500 0 C500 165 500 330 500 500 C335 500 170 500 0 500 C0 335 0 170 0 0 Z M166.1875 11.0625 C165.49156738 11.44462646 164.79563477 11.82675293 164.07861328 12.22045898 C157.12406775 16.20991922 151.5338454 21.25066218 146 27 C145.33742187 27.64324219 144.67484375 28.28648438 143.9921875 28.94921875 C128.91617593 44.53227106 126.36908356 64.70785997 126.609375 85.27734375 C126.6168552 87.18404033 126.62253969 89.0907447 126.62652588 90.99745178 C126.64164242 95.96395906 126.68079992 100.92998239 126.7253418 105.89630127 C126.76659992 110.98483742 126.78460147 116.07345341 126.8046875 121.16210938 C126.8473108 131.10828305 126.91538793 141.05410095 127 151 C126.31112198 150.99111755 125.62224396 150.98223511 124.91249084 150.9730835 C118.33975085 150.89209088 111.76715514 150.83161378 105.19402409 150.79275131 C101.81670981 150.77209827 98.43981632 150.74420424 95.06274414 150.69824219 C67.54202964 150.35136386 46.29627454 153.01060221 25.375 172.4375 C24.59125 173.283125 23.8075 174.12875 23 175 C22.11248047 175.86238281 22.11248047 175.86238281 21.20703125 176.7421875 C16.69580574 181.36684808 13.56819082 186.20637066 10.6875 191.9375 C10.19963013 192.90296753 10.19963013 192.90296753 9.7019043 193.88793945 C5.1314483 203.37659064 3.55500835 212.00230615 3.61181641 222.51123047 C3.60655945 223.72236511 3.60130249 224.93349976 3.59588623 226.18133545 C3.58501223 229.47495676 3.58746677 232.76821104 3.59702349 236.06182623 C3.60468002 239.52886502 3.59755767 242.99588127 3.59286499 246.46292114 C3.58742327 252.28473231 3.59455569 258.10642892 3.60888672 263.92822266 C3.62519488 270.62998941 3.61993179 277.33148203 3.6034075 284.03324211 C3.58972881 289.81534804 3.5879044 295.59737215 3.59572351 301.37948906 C3.60036716 304.82044018 3.6011176 308.26126311 3.59111404 311.70220566 C3.58344242 315.54498199 3.59518504 319.38724227 3.61181641 323.22998047 C3.60574371 324.34931976 3.59967102 325.46865906 3.59341431 326.62191772 C3.67743077 337.17158483 5.83816923 346.83157461 10.75 356.1875 C11.27170776 357.20420776 11.27170776 357.20420776 11.80395508 358.24145508 C15.78142695 365.78898574 20.73612989 372.19446185 27 378 C27.56074219 378.54269531 28.12148438 379.08539063 28.69921875 379.64453125 C43.49517773 393.42007927 62.74743697 398.36543798 82.4453125 398.1953125 C83.69633759 398.1924826 84.94736267 398.18965271 86.23629761 398.18673706 C89.52751564 398.17750168 92.81852961 398.15960118 96.10968018 398.1373291 C99.48194917 398.11669861 102.8542483 398.10769895 106.2265625 398.09765625 C112.8177867 398.07570393 119.4088767 398.04230798 126 398 C125.98952637 398.84594727 125.97905273 399.69189453 125.96826172 400.56347656 C125.93377355 403.76170812 125.90890643 406.95984358 125.89013672 410.15820312 C125.88020081 411.53128212 125.86664739 412.90434067 125.84912109 414.27734375 C125.70345214 425.99941039 126.38250885 437.067687 130.6875 448.0625 C131.07941528 449.07691162 131.07941528 449.07691162 131.47924805 450.11181641 C139.43607835 469.93211361 154.78652552 483.50822992 174 492 C183.43000714 495.8481195 192.68602932 496.15303786 202.76171875 496.19287109 C203.91736832 496.20104858 205.07301788 496.20922607 206.26368713 496.21765137 C210.07161967 496.24237297 213.87951521 496.25898896 217.6875 496.2734375 C218.99513306 496.27876118 220.30276611 496.28408485 221.65002441 496.28956985 C227.15246637 496.31116942 232.65490565 496.32989846 238.15737915 496.34119225 C245.99079691 496.35738717 253.82371547 496.3904892 261.65694523 496.44759309 C267.19361613 496.48655175 272.730155 496.50585536 278.26695919 496.51111281 C281.55960844 496.51473176 284.85160711 496.52896487 288.14413452 496.55921555 C312.76756287 496.7725153 333.60015132 492.9903565 352 475 C364.97057429 460.78496439 373.20479234 442.99945218 373.11352539 423.60791016 C373.11374443 422.37764603 373.11374443 422.37764603 373.1139679 421.12252808 C373.11327462 418.42801208 373.10550972 415.73356633 373.09765625 413.0390625 C373.09578999 411.16433754 373.09436707 409.2896121 373.09336853 407.41488647 C373.08955973 402.49284507 373.07974346 397.57083341 373.06866455 392.64880371 C373.05841519 387.62134198 373.05386337 382.59387543 373.04882812 377.56640625 C373.03811968 367.71092447 373.02106297 357.85546471 373 348 C374.10515457 348.0199855 374.10515457 348.0199855 375.2326355 348.04037476 C382.26121886 348.16184743 389.28942373 348.25256922 396.31876945 348.31087303 C399.93058826 348.34185857 403.54152231 348.38370595 407.15283203 348.45263672 C423.23506426 348.75149786 438.11373553 348.91588578 453 342 C454.07894531 341.50201904 455.15789062 341.00403809 456.26953125 340.4909668 C474.52263145 331.5732049 486.13584194 315.58364495 493.12890625 297 C495.77829216 288.60387846 496.14647937 280.53575423 496.12939453 271.79150391 C496.13114685 270.68327774 496.13289917 269.57505157 496.13470459 268.4332428 C496.13909463 264.78099996 496.13619471 261.12880581 496.1328125 257.4765625 C496.13348645 254.9297993 496.13445724 252.38303617 496.13571167 249.83627319 C496.13718487 244.50184456 496.13514259 239.16743324 496.13037109 233.83300781 C496.12493516 227.68516253 496.12668857 221.53735045 496.1321975 215.38950598 C496.13730151 209.45375331 496.13673659 203.51801086 496.13381577 197.58225632 C496.13315038 195.06655243 496.13396129 192.5508477 496.13629532 190.03514481 C496.13884602 186.51250239 496.13494694 182.98992291 496.12939453 179.46728516 C496.13243088 177.91931496 496.13243088 177.91931496 496.13552856 176.34007263 C496.10964052 167.43583345 495.58614603 159.39409993 492.3125 151.0625 C491.90994995 150.02391846 491.90994995 150.02391846 491.49926758 148.96435547 C484.34490291 131.03348067 470.39023149 116.39880745 453 108 C441.08394295 103.13435374 430.39589379 101.84888218 417.62890625 101.90234375 C416.35144028 101.9037587 415.0739743 101.90517365 413.75779724 101.90663147 C410.38275254 101.91126484 407.00777703 101.92022977 403.63275146 101.93133545 C400.18030389 101.94161574 396.72784913 101.94614319 393.27539062 101.95117188 C386.51690815 101.96217534 379.75845807 101.97889433 373 102 C373.01571045 101.00782471 373.0314209 100.01564941 373.04760742 98.9934082 C373.10264294 95.24919015 373.13661247 91.50500638 373.16479492 87.76049805 C373.17971634 86.15171257 373.20006091 84.54296656 373.22631836 82.93432617 C373.43468984 69.82326559 372.61004587 57.69263618 366.3125 45.875 C365.96364746 45.2039624 365.61479492 44.5329248 365.25537109 43.84155273 C355.45064795 25.44063653 340.90157362 13.46092501 321.4609375 6.0078125 C312.83221711 3.49516029 304.42025308 2.70142832 295.46435547 2.70947266 C294.36839554 2.70275543 293.27243561 2.69603821 292.14326477 2.68911743 C288.55119176 2.67025538 284.95930683 2.66621896 281.3671875 2.6640625 C278.84530565 2.65762561 276.32342452 2.65089661 273.80154419 2.64389038 C268.52458495 2.63194647 263.24767263 2.62812022 257.97070312 2.62939453 C251.91595347 2.63059292 245.86156197 2.60953543 239.80690277 2.5779072 C233.93308458 2.54834367 228.05940511 2.54142548 222.18552017 2.54261398 C219.70990667 2.54027306 217.23428975 2.53153599 214.75872421 2.51594925 C197.99606547 2.42029853 181.18255039 2.53807641 166.1875 11.0625 Z " fill="#000000" transform="translate(0,0)"/>
<path d="M0 0 C7.24073489 -0.07638722 14.48136492 -0.12874111 21.72241211 -0.16479492 C24.18306359 -0.1798334 26.64368849 -0.20026942 29.10424805 -0.22631836 C32.65159692 -0.26291856 36.19858977 -0.27977635 39.74609375 -0.29296875 C40.8370787 -0.30845261 41.92806366 -0.32393646 43.05210876 -0.33988953 C53.16863152 -0.34209285 61.67316154 1.71654644 69 9 C73.5976234 15.82619079 74.73080298 21.98271544 74.64697266 30.07421875 C74.66011505 31.6616539 74.66011505 31.6616539 74.67352295 33.28115845 C74.69537945 36.75036639 74.68101205 40.21828098 74.6640625 43.6875 C74.66743455 46.11548098 74.67229041 48.54346031 74.67855835 50.97143555 C74.68591112 56.04850408 74.67527497 61.12513138 74.65185547 66.20214844 C74.6233696 72.69183987 74.63978202 79.18049721 74.66971779 85.67015076 C74.68783343 90.68037631 74.68201299 95.69035895 74.66907883 100.70059204 C74.66575665 103.0926628 74.66978979 105.48475602 74.68147659 107.87680054 C74.69425496 111.22705032 74.67470841 114.57565331 74.64697266 117.92578125 C74.65709381 118.90269928 74.66721497 119.87961731 74.67764282 120.88613892 C74.56092202 128.54260687 72.49883611 135.17356919 67.24471474 140.91963196 C61.38817202 146.40791877 55.31556048 148.37308798 47.3785553 148.38526917 C46.27549149 148.39312271 46.27549149 148.39312271 45.15014356 148.40113491 C42.70287137 148.41502738 40.25613193 148.40781276 37.80883789 148.40063477 C36.04740432 148.40638093 34.28597469 148.41346519 32.52455139 148.42178345 C28.73937901 148.43687088 24.95434744 148.44267302 21.16914558 148.44125557 C15.18042824 148.43921843 9.19189963 148.45881214 3.20323181 148.48143005 C-8.42963573 148.5223764 -20.06248832 148.54100151 -31.69541168 148.55760193 C-46.49899699 148.57996684 -61.30253852 148.61355107 -76.10605246 148.66480106 C-82.05572262 148.6846903 -88.00529388 148.69430054 -93.95499599 148.69575322 C-97.66033385 148.69850936 -101.36561736 148.70935223 -105.07093239 148.72226334 C-106.78494639 148.72653204 -108.49897282 148.72741045 -110.21298981 148.72458839 C-112.55930849 148.72116936 -114.9052865 148.73001163 -117.25157166 148.74171448 C-119.21794539 148.74416593 -119.21794539 148.74416593 -121.22404385 148.74666691 C-129.2526034 149.28531188 -136.00685488 151.4967888 -142 157 C-146.20146082 162.57914914 -147.84428797 168.30982172 -147.48046875 175.26171875 C-146.1891942 182.62093386 -142.59174485 188.18028248 -136.84375 192.84375 C-132.01599321 195.87132629 -127.59282409 196.30249946 -121.99682617 196.31884766 C-121.20605682 196.32889328 -120.41528748 196.3389389 -119.60055542 196.34928894 C-116.99803363 196.38007317 -114.39561449 196.39714274 -111.79296875 196.4140625 C-109.98406596 196.43277799 -108.17517186 196.45235169 -106.36628723 196.4727478 C-101.61362844 196.5240348 -96.86094135 196.56367891 -92.1081543 196.60089111 C-87.25497457 196.64095226 -82.4019122 196.69203498 -77.54882812 196.7421875 C-68.03263456 196.83890616 -58.51637468 196.92332396 -49 197 C-48.93030261 207.01445548 -48.87708881 217.02885267 -48.84456348 227.04350185 C-48.82894816 231.69437198 -48.80778588 236.3450754 -48.77368164 240.99584961 C-48.74094013 245.48921903 -48.72311594 249.98242872 -48.71536827 254.47590828 C-48.7098512 256.18501358 -48.69907803 257.89411073 -48.68280983 259.60314751 C-48.48615482 281.13055057 -48.48615482 281.13055057 -56.25 289.49609375 C-61.09082229 293.6561754 -67.1200166 296.11309689 -73.48295593 296.14717102 C-74.86013542 296.15790398 -74.86013542 296.15790398 -76.26513672 296.16885376 C-77.77297729 296.17288712 -77.77297729 296.17288712 -79.3112793 296.17700195 C-80.90200005 296.18685875 -80.90200005 296.18685875 -82.52485657 296.19691467 C-86.04131133 296.21665666 -89.55772334 296.22831286 -93.07421875 296.23828125 C-94.27506418 296.24235678 -95.47590961 296.2464323 -96.7131443 296.25063133 C-103.07007297 296.27149676 -109.42698003 296.28579598 -115.78393555 296.29516602 C-122.34668627 296.3062262 -128.90909754 296.34062075 -135.47172832 296.38033772 C-140.52041754 296.40649769 -145.56902584 296.41485738 -150.61777687 296.41844749 C-153.03664248 296.42331568 -155.45550443 296.43493617 -157.87430382 296.45348549 C-161.26372444 296.47786079 -164.6522664 296.47691424 -168.04174805 296.4699707 C-169.03685394 296.48278076 -170.03195984 296.49559082 -171.05722046 296.50878906 C-178.33269737 296.45459622 -183.6412265 294.88319495 -189.20703125 290.10546875 C-189.73683594 289.47253906 -190.26664063 288.83960938 -190.8125 288.1875 C-191.62654297 287.24970703 -191.62654297 287.24970703 -192.45703125 286.29296875 C-197.40232743 278.94388303 -197.44538202 272.56247828 -197.43579102 263.87963867 C-197.45090477 261.91247139 -197.45090477 261.91247139 -197.46632385 259.90556335 C-197.49272139 256.32273363 -197.49985296 252.74011912 -197.50177121 249.15720153 C-197.50390977 246.91427573 -197.510326 244.67140393 -197.51826286 242.42849159 C-197.545983 234.59088315 -197.55827265 226.75342733 -197.5559082 218.91577148 C-197.55410702 211.63046824 -197.58574851 204.34583222 -197.63313919 197.06069773 C-197.67247351 190.78865837 -197.68845541 184.51683614 -197.68654197 178.2446745 C-197.68578012 174.506207 -197.69415913 170.76833295 -197.72607613 167.02998924 C-197.76074504 162.85571669 -197.74681491 158.68292258 -197.72875977 154.50854492 C-197.74561829 153.28379456 -197.76247681 152.05904419 -197.77984619 150.79718018 C-197.69165857 142.75206277 -196.02646254 137.35153425 -191 131 C-188.515625 128.74609375 -188.515625 128.74609375 -186.25 127.4375 C-185.49203125 126.98246094 -184.7340625 126.52742188 -183.953125 126.05859375 C-180.91029908 124.4093821 -179.17156471 123.87224237 -175.70890808 123.85523987 C-174.80780304 123.84834137 -173.906698 123.84144287 -172.97828674 123.83433533 C-171.98667038 123.83172195 -170.99505402 123.82910858 -169.97338867 123.82641602 C-168.93083923 123.819729 -167.88828979 123.81304199 -166.81414795 123.80615234 C-164.54262156 123.79207365 -162.27108078 123.78018865 -159.9995327 123.77020454 C-156.39582054 123.75380546 -152.79221316 123.73056273 -149.18855286 123.70530701 C-138.93931309 123.63453782 -128.69002811 123.57468138 -118.44067383 123.52319336 C-112.17483405 123.49123464 -105.90911067 123.44990526 -99.64336586 123.40299797 C-97.2621707 123.38706443 -94.88094869 123.37470338 -92.49971581 123.36609077 C-66.69248654 123.2714826 -41.56437113 121.08873812 -22 102 C-9.90326465 88.30354779 -1.07406625 71.50212495 -0.79467773 52.90283203 C-0.77473251 51.72206085 -0.75478729 50.54128967 -0.73423767 49.32473755 C-0.71752518 48.06515228 -0.70081268 46.80556702 -0.68359375 45.5078125 C-0.6524221 43.55619705 -0.6524221 43.55619705 -0.62062073 41.56515503 C-0.56568884 38.12277281 -0.51615348 34.6803337 -0.46777344 31.237854 C-0.41734613 27.71841427 -0.3617714 24.19905614 -0.30664062 20.6796875 C-0.19941292 13.78652921 -0.09789088 6.89329704 0 0 Z " fill="#010101" transform="translate(373,151)"/>
<path d="M0 0 C1.07735916 -0.00861557 2.15471832 -0.01723114 3.26472473 -0.02610779 C6.81499479 -0.04875094 10.36447426 -0.0420302 13.91479492 -0.03295898 C16.39190403 -0.03819612 18.86901114 -0.04447293 21.34611511 -0.05174255 C26.5352009 -0.06214444 31.72401244 -0.05758926 36.91308594 -0.04296875 C43.54743719 -0.0258021 50.18092065 -0.04925251 56.81517506 -0.08445835 C61.93089995 -0.10647255 67.04641863 -0.10498066 72.16217613 -0.09669304 C74.60728595 -0.09587534 77.05241118 -0.1027038 79.49747658 -0.11746407 C82.92463285 -0.13497846 86.35024804 -0.12030686 89.77734375 -0.09765625 C91.27784271 -0.11519455 91.27784271 -0.11519455 92.80865479 -0.13308716 C100.54087442 -0.02966055 106.94832916 2.0353545 112.92312336 7.09055233 C120.23209075 14.83772006 120.52371859 24.1865493 120.47094727 34.34594727 C120.4788327 36.22817993 120.4788327 36.22817993 120.48687744 38.1484375 C120.49776539 41.56594908 120.49528888 44.98291069 120.48574018 48.40039062 C120.47809826 51.99162487 120.4852017 55.58283702 120.48989868 59.17407227 C120.49534312 65.20276056 120.48819922 71.23133829 120.47387695 77.26000977 C120.4575529 84.21118024 120.46284234 91.16208665 120.47935617 98.11325073 C120.49300859 104.10165655 120.49487242 110.08998329 120.48704016 116.07839966 C120.4823842 119.64614179 120.48168111 123.21376016 120.49164963 126.78149414 C120.50199483 130.76141473 120.4876207 134.74104401 120.47094727 138.72094727 C120.47701996 139.89004639 120.48309265 141.05914551 120.48934937 142.26367188 C120.41855636 151.41215076 119.2287027 159.13791671 112.83276367 166.02954102 C107.98641919 170.1943683 101.95541166 172.65475007 95.58444214 172.66474915 C94.20152985 172.67076141 94.20152985 172.67076141 92.79067993 172.67689514 C91.78089081 172.67636642 90.77110168 172.67583771 89.73071289 172.67529297 C88.13241638 172.68050461 88.13241638 172.68050461 86.50183105 172.68582153 C84.18230589 172.69318322 81.86277367 172.6985264 79.54323959 172.7021122 C75.85853151 172.70928481 72.17395605 172.72496193 68.48928833 172.74345398 C58.01021249 172.79585434 47.53120569 172.8437993 37.05200195 172.859375 C30.6422635 172.8695264 24.23285385 172.89904081 17.823246 172.94069481 C15.39233019 172.95291846 12.96136772 172.95814206 10.53042221 172.95589638 C-6.10245876 172.94432294 -22.85696612 173.13910879 -37.72973633 181.59594727 C-38.42566895 181.97879883 -39.12160156 182.36165039 -39.83862305 182.75610352 C-52.80307265 190.2035756 -62.34398974 201.155895 -69.16723633 214.34594727 C-69.49691406 214.97331787 -69.8265918 215.60068848 -70.16625977 216.24707031 C-75.39843815 226.835939 -76.37137133 237.60459509 -76.42895508 249.26782227 C-76.44584867 250.64074253 -76.46400498 252.01364777 -76.48335266 253.38653564 C-76.53035217 256.9570648 -76.56048196 260.52753309 -76.58679199 264.0982666 C-76.61685393 267.75907418 -76.66329429 271.41967269 -76.70825195 275.08032227 C-76.79371332 282.23124327 -76.86130893 289.38222915 -76.91723633 296.53344727 C-84.13966033 296.6099102 -91.36197879 296.66221975 -98.5847168 296.69824219 C-101.03853252 296.71326951 -103.49232166 296.73369707 -105.94604492 296.75976562 C-109.48598825 296.79641546 -113.02557447 296.81323481 -116.56567383 296.82641602 C-118.19440933 296.8496418 -118.19440933 296.8496418 -119.85604858 296.87333679 C-128.7873276 296.87528211 -137.64720132 295.93814408 -144.27133369 289.3828764 C-150.29902475 282.60982239 -151.64958548 276.20626065 -151.5324707 267.34155273 C-151.53801971 266.25908264 -151.54356873 265.17661255 -151.54928589 264.06134033 C-151.56103198 260.50731196 -151.53685936 256.95457266 -151.51098633 253.40063477 C-151.50927406 250.91920022 -151.50934209 248.43776386 -151.5111084 245.95632935 C-151.50945809 240.76652625 -151.49080968 235.57715663 -151.45922852 230.38745117 C-151.41951046 223.74170382 -151.41518997 217.09685925 -151.42269135 210.45101738 C-151.42576316 205.33113435 -151.41363353 200.21137815 -151.39656067 195.09152603 C-151.38954042 192.64116334 -151.38640495 190.19078627 -151.38725281 187.74041367 C-151.38545155 184.31552976 -151.36404156 180.89131982 -151.3371582 177.46655273 C-151.34008881 176.45857635 -151.34301941 175.45059998 -151.34603882 174.41207886 C-151.2396998 165.61434123 -149.14307762 160.04886257 -142.91723633 153.53344727 C-136.97330655 149.04517376 -132.80750683 148.38345193 -125.51815796 148.40887451 C-124.77042228 148.40746436 -124.02268661 148.40605422 -123.25229228 148.40460134 C-120.74524301 148.40094973 -118.23825036 148.40428432 -115.73120117 148.4074707 C-113.93405106 148.4060758 -112.13690129 148.40417639 -110.3397522 148.40180969 C-106.46780508 148.39731256 -102.59586857 148.3954566 -98.72391891 148.3953476 C-92.59632433 148.39420689 -86.46878995 148.38136523 -80.34121704 148.36578369 C-79.30673915 148.36321084 -78.27226126 148.36063798 -77.20643556 148.35798717 C-75.09092581 148.35272051 -72.9754161 148.34743503 -70.85990644 148.34213114 C-56.5949902 148.30703675 -42.33014854 148.28046738 -28.06518555 148.28295898 C-18.44253462 148.28454938 -8.82008887 148.26846879 0.80249631 148.23225236 C5.89232777 148.21381902 10.98181679 148.20442653 16.07167435 148.21672821 C20.86367891 148.22819747 25.65507141 148.21638513 30.44699478 148.18709373 C32.20047399 148.18047447 33.95400961 148.18228329 35.70746613 148.1933918 C45.95362279 148.25288936 55.05115472 148.10025555 63.00234413 140.76179123 C68.74659692 134.7070516 69.49942169 128.55877037 69.32885742 120.43188477 C68.73272245 113.41073954 65.140322 108.18315505 60.08276367 103.53344727 C52.15666864 97.9129094 42.17664852 98.92859087 32.92260742 98.92407227 C31.16425567 98.90907319 29.40591792 98.89234244 27.64759827 98.8739624 C23.04618646 98.83047033 18.44496465 98.81033027 13.84338379 98.79522705 C9.13725636 98.77559021 4.43133218 98.73362778 -0.2746582 98.69360352 C-9.48878794 98.61849821 -18.70287176 98.56808791 -27.91723633 98.53344727 C-27.98688815 88.37133654 -28.04012457 78.20928305 -28.07267284 68.04698181 C-28.08829802 63.32770325 -28.10947857 58.60858856 -28.14355469 53.8894043 C-28.1762607 49.33120116 -28.194113 44.77315521 -28.20186806 40.21484375 C-28.20739144 38.47979256 -28.21817715 36.74474952 -28.2344265 35.00976562 C-28.25635062 32.57085894 -28.25919707 30.13259361 -28.2578125 27.69360352 C-28.26859833 26.98365738 -28.27938416 26.27371124 -28.29049683 25.54225159 C-28.25398389 19.55961355 -26.89351219 14.25327247 -23.33911133 9.36157227 C-22.78739258 8.84079102 -22.23567383 8.32000977 -21.66723633 7.78344727 C-21.12583008 7.25235352 -20.58442383 6.72125977 -20.02661133 6.17407227 C-13.21885391 0.87914983 -8.50405758 -0.05514324 0 0 Z " fill="#010101" transform="translate(203.917236328125,52.466552734375)"/>
<path d="M0 0 C5.81081428 3.72769218 8.84007966 8.53862128 11 15 C12.43312126 23.86042797 9.92850464 30.45576866 5.1875 37.8125 C2.33179097 40.66820903 -0.38795643 42.16229362 -4 44 C-4.78375 44.4125 -5.5675 44.825 -6.375 45.25 C-13.01930169 47.14837191 -18.72462202 46.32178552 -24.86328125 43.2578125 C-31.09295409 39.59061935 -36.08224829 35.17171052 -38 28 C-38.78926307 21.03495685 -39.1396344 13.90903579 -35.39453125 7.7421875 C-25.62994369 -4.456709 -13.72039664 -7.09433478 0 0 Z " fill="#FBFBFB" transform="translate(288,377)"/>
<path d="M0 0 C6.82797357 4.39105371 11.71982697 10.04986478 14.1953125 17.8671875 C15.65060046 26.23509329 12.88763209 32.96788709 8.1953125 39.8671875 C2.83531312 45.37607575 -3.02730343 47.88805701 -10.6796875 48.1796875 C-17.42583796 48.01761782 -23.3718371 46.16714992 -28.41796875 41.48046875 C-34.41455394 34.50415978 -35.62256633 27.41863823 -35.28515625 18.36328125 C-34.2660708 10.94798469 -30.19782806 6.77932033 -24.6484375 2.09375 C-17.77952609 -2.47582242 -7.61964177 -3.07757119 0 0 Z " fill="#FCFCFC" transform="translate(235.8046875,79.1328125)"/>
</svg>
