<?xml version="1.0" encoding="UTF-8"?>
<svg version="1.1" xmlns="http://www.w3.org/2000/svg" width="500" height="500">
<path d="M0 0 C165 0 330 0 500 0 C500 165 500 330 500 500 C335 500 170 500 0 500 C0 335 0 170 0 0 Z " fill="#000000" transform="translate(0,0)"/>
<path d="M0 0 C26.4 0 52.8 0 80 0 C80 121.11 80 242.22 80 367 C41.88292855 373.93037663 41.88292855 373.93037663 30.1184082 375.10668945 C27.99983845 375.31877285 25.88389857 375.54981183 23.76757812 375.78320312 C-27.80481892 381.33750229 -89.05172303 382.31203905 -131.9609375 348.59765625 C-155.89116289 328.14315768 -169.83123641 300.5889441 -172.79345703 269.10205078 C-175.29572364 231.52072743 -170.64529784 191.57236271 -145 162 C-129.07067253 144.24186237 -109.15231831 129.7917928 -86 123 C-84.90171875 122.66613281 -83.8034375 122.33226562 -82.671875 121.98828125 C-56.92201006 114.61943692 -25.82435095 111.39188302 0 120 C0 80.4 0 40.8 0 0 Z " fill="#FEFEFE" transform="translate(231,6)"/>
<path d="M0 0 C26.4 0 52.8 0 80 0 C80.04527748 28.92186057 80.08206491 57.84369211 80.10362434 86.76557922 C80.10566379 89.44772342 80.10774644 92.12986758 80.10986328 94.81201172 C80.1103879 95.47860459 80.11091252 96.14519747 80.11145304 96.83199012 C80.11957842 106.90769797 80.13364145 116.98338594 80.15087891 127.05908203 C80.17091426 138.77587527 80.18374033 150.49265132 80.18817699 162.20946121 C80.19076731 168.4041278 80.19678571 174.59874527 80.21146011 180.793396 C80.22520497 186.64397894 80.22918913 192.49449331 80.22621536 198.34509087 C80.22675807 200.47326469 80.2306335 202.60144122 80.23841095 204.72960091 C80.30665183 224.39514335 79.35563847 244.06906829 75.75 263.4375 C75.53384033 264.6121582 75.31768066 265.78681641 75.0949707 266.99707031 C70.35082685 291.56175668 59.35736536 313.8618535 42 332 C41.33742188 332.73734375 40.67484375 333.4746875 39.9921875 334.234375 C30.35596692 344.56674839 9.52602639 361.74797803 -5 363 C-7.47471913 362.08281872 -9.71641253 361.1068623 -12.0703125 359.94140625 C-13.12327515 359.43781837 -13.12327515 359.43781837 -14.19750977 358.92405701 C-16.51201304 357.81427546 -18.81829212 356.68838255 -21.125 355.5625 C-22.72710073 354.79106813 -24.32981075 354.02090041 -25.93310547 353.25195312 C-29.26750332 351.65182506 -32.59931334 350.04647253 -35.9296875 348.43798828 C-43.21901523 344.92456736 -50.5460134 341.4914314 -57.87249756 338.05636597 C-61.46056091 336.37365613 -65.04673804 334.68694313 -68.6328125 333 C-69.81762207 332.443125 -71.00243164 331.88625 -72.22314453 331.3125 C-73.82254167 330.55653385 -75.41770899 329.7911455 -77 329 C-77 328.34 -77 327.68 -77 327 C-76.24662354 326.61630249 -76.24662354 326.61630249 -75.47802734 326.22485352 C-44.56937483 310.41120625 -20.5839358 292.89074144 -8.84765625 258.63671875 C1.66101995 224.25550266 -0.83834082 186.70549457 -0.69667697 151.1886549 C-0.67446324 145.85429063 -0.64725158 140.51995163 -0.62062073 135.18560791 C-0.57116304 125.13196125 -0.52605484 115.07830021 -0.48259836 105.02462602 C-0.43281879 93.55863999 -0.37805479 82.09267936 -0.32291877 70.62671804 C-0.20982129 47.08450144 -0.10348905 23.54226094 0 0 Z " fill="#FEFEFE" transform="translate(362,132)"/>
<path d="M0 0 C1.18207031 -0.01611328 2.36414063 -0.03222656 3.58203125 -0.04882812 C4.76410156 -0.04947266 5.94617188 -0.05011719 7.1640625 -0.05078125 C8.73728271 -0.05525269 8.73728271 -0.05525269 10.34228516 -0.05981445 C16.43150071 0.5023634 22.39562911 2.03120624 28.375 3.3125 C28.375 45.5525 28.375 87.7925 28.375 131.3125 C22.35700749 133.3184975 15.68666829 133.06082284 9.375 133.3125 C8.49650391 133.34794922 7.61800781 133.38339844 6.71289062 133.41992188 C-12.35831634 134.081273 -28.92769097 131.7156113 -44.5 119.5 C-57.14068282 107.64153766 -62.44545258 89.99991207 -63.05859375 73.09375 C-63.08204512 70.66677962 -63.08301438 68.23949698 -63.0625 65.8125 C-63.05420166 64.53947021 -63.04590332 63.26644043 -63.03735352 61.95483398 C-62.87726125 53.08139246 -62.24627247 45.50857527 -58.625 37.3125 C-58.12742188 36.13042969 -57.62984375 34.94835937 -57.1171875 33.73046875 C-50.36174966 18.55640628 -39.58427668 9.08833213 -24.20703125 3.13671875 C-15.93890463 0.49742266 -8.67965177 -0.02320763 0 0 Z " fill="#010101" transform="translate(205.625,188.6875)"/>
<path d="M0 0 C26.4 0 52.8 0 80 0 C80 26.73 80 53.46 80 81 C53.6 81 27.2 81 0 81 C0 54.27 0 27.54 0 0 Z " fill="#FDFDFD" transform="translate(354,6)"/>
</svg>
