<svg xmlns="http://www.w3.org/2000/svg" xmlns:xlink="http://www.w3.org/1999/xlink" width="500" zoomAndPan="magnify" viewBox="0 0 375 374.999991" height="500" preserveAspectRatio="xMidYMid meet" version="1.0"><defs><clipPath id="7c382e91c2"><path d="M 21.617188 2.160156 L 353.117188 2.160156 L 353.117188 372.65625 L 21.617188 372.65625 Z M 21.617188 2.160156 " clip-rule="nonzero"/></clipPath><clipPath id="9911a7da92"><path d="M 83.367188 65.074219 L 301.316406 65.074219 L 301.316406 304.007812 L 83.367188 304.007812 Z M 83.367188 65.074219 " clip-rule="nonzero"/></clipPath><clipPath id="0932735dda"><path d="M 47.121094 83 L 168 83 L 168 282 L 47.121094 282 Z M 47.121094 83 " clip-rule="nonzero"/></clipPath></defs><g clip-path="url(#7c382e91c2)"><path fill="#ffffff" d="M 353.328125 2.160156 L 324.0625 333.816406 L 187.496094 372.832031 L 50.933594 333.816406 L 21.667969 2.160156 Z M 107.519531 216.761719 L 146.535156 216.761719 L 147.488281 241.148438 L 187.496094 254.789062 L 227.507812 241.148438 L 230.402344 197.25 L 144.59375 197.25 L 142.613281 158.230469 L 232.382812 158.230469 L 235.28125 119.214844 L 100.695312 119.214844 L 97.761719 80.195312 L 276.28125 80.195312 L 271.402344 158.230469 L 264.542969 270.410156 L 187.496094 295.789062 L 110.453125 270.410156 Z M 107.519531 216.761719 " fill-opacity="1" fill-rule="evenodd"/></g><g clip-path="url(#9911a7da92)"><path fill="#ffffff" d="M 83.367188 65.074219 L 301.316406 65.074219 L 301.316406 304.308594 L 83.367188 304.308594 Z M 83.367188 65.074219 " fill-opacity="1" fill-rule="nonzero"/></g><path fill="#000000" d="M 286.503906 218.9375 C 281.976562 201.847656 246.542969 197.863281 222.308594 179.722656 C 197.808594 163.179688 191.96875 123.164062 212.207031 100.203125 C 219.128906 91.667969 230.5625 85.265625 242.5625 82.328125 L 255.082031 80.746094 C 279.3125 80.195312 294.207031 86.597656 305.394531 99.136719 C 308.625 102.320312 311.003906 105.539062 315.796875 113.007812 C 302.996094 120.996094 302.996094 120.996094 284.640625 133.019531 C 280.628906 124.480469 274.234375 119.144531 267.3125 117.011719 C 256.660156 113.808594 243.078125 117.261719 240.417969 128.75 C 239.367188 132.21875 239.617188 135.417969 241.234375 141.289062 C 245.546875 151.160156 260.070312 155.425781 273.136719 161.5625 C 310.683594 176.824219 323.339844 193.183594 326.449219 212.660156 L 325.632812 211.46875 C 328.578125 228.277344 324.832031 239.214844 324.316406 240.816406 C 310.453125 288.300781 233.226562 289.902344 202.335938 258.671875 C 195.945312 251.199219 191.683594 247.484375 187.957031 238.945312 L 220.445312 220.253906 C 229.230469 233.59375 237.203125 240.816406 251.601562 244.015625 C 271.058594 246.417969 290.765625 239.746094 286.503906 218.9375 Z M 286.503906 218.9375 " fill-opacity="1" fill-rule="nonzero"/><g clip-path="url(#0932735dda)"><path fill="#000000" d="M 79.660156 225.109375 C 79.964844 225.109375 80.796875 226.726562 81.914062 228.597656 C 86.050781 235.515625 89.621094 240.316406 96.652344 243.800781 C 103.503906 245.953125 118.59375 247.519531 124.453125 235.265625 C 128.019531 229.078125 126.902344 208.960938 126.902344 187.050781 C 126.902344 152.527344 127.0625 118.273438 127.0625 83.804688 L 166.972656 83.804688 L 166.898438 84.800781 C 166.898438 121.617188 167.113281 158.167969 166.898438 194.695312 C 166.988281 217.390625 168.90625 237.667969 159.851562 254.207031 C 153.585938 267.011719 141.601562 275.28125 127.703125 279.300781 C 106.34375 284.105469 85.945312 281.167969 70.765625 272.097656 C 60.578125 265.964844 52.675781 256.324219 47.261719 245.117188 Z M 79.660156 225.109375 " fill-opacity="1" fill-rule="nonzero"/></g></svg>