<svg xmlns="http://www.w3.org/2000/svg" xmlns:xlink="http://www.w3.org/1999/xlink" width="500" zoomAndPan="magnify" viewBox="0 0 375 374.999991" height="500" preserveAspectRatio="xMidYMid meet" version="1.0"><defs><clipPath id="20153f17a3"><path d="M 3.417969 3.417969 L 371.667969 3.417969 L 371.667969 371.667969 L 3.417969 371.667969 Z M 3.417969 3.417969 " clip-rule="nonzero"/></clipPath></defs><g clip-path="url(#20153f17a3)"><path fill="#ffffff" d="M 187.496094 371.574219 C 289.152344 371.574219 371.574219 289.152344 371.574219 187.496094 C 371.574219 85.835938 289.152344 3.417969 187.496094 3.417969 C 85.835938 3.417969 3.417969 85.835938 3.417969 187.496094 C 3.417969 289.152344 85.835938 371.574219 187.496094 371.574219 Z M 101.761719 107.097656 C 125.523438 84.871094 158.578125 67.828125 189.089844 56.984375 C 240.402344 38.742188 294.628906 49.496094 302.941406 82.21875 L 301.824219 81.1875 C 309.875 113.402344 282.035156 151.84375 246.382812 165.636719 C 214.628906 178.046875 188.152344 175.988281 177.355469 172.539062 C 164.914062 168.394531 157.78125 160.34375 155.941406 155.742188 C 155.25 153.898438 154.101562 150.910156 155.941406 149.988281 C 157.089844 149.28125 157.550781 149.511719 160.757812 152.964844 C 163.765625 156.203125 175.5 164.929688 198.046875 162.398438 C 257.183594 155.742188 292.601562 109.9375 281.359375 85.332031 C 273.535156 68.074219 228.191406 60.234375 171.355469 88.550781 C 102.097656 123.066406 98.1875 151.582031 97.726562 162.398438 C 96.113281 192.082031 134.542969 207.726562 155.25 230.046875 C 155.925781 230.507812 156.402344 230.96875 156.859375 231.65625 C 163.058594 229.125 171.816406 227.976562 185.625 227.730469 C 219.203125 227.285156 238.085938 249.359375 237.394531 269.148438 C 236.703125 284.808594 222.421875 291.253906 219.890625 291.714844 C 218.066406 291.945312 216.902344 291.945312 216.671875 290.5625 C 216.457031 289.628906 217.144531 289.183594 219.449219 287.785156 C 221.765625 286.40625 228.40625 281.574219 229.785156 273.304688 C 231.183594 265.023438 224.738281 244.773438 192.511719 241.09375 C 181.003906 239.695312 172.046875 240.617188 164.4375 242.6875 C 169.992188 254.882812 171.125 279.734375 158.242188 299.078125 C 144.894531 318.847656 120.046875 331.058594 95.886719 324.371094 C 88.0625 322.316406 76.097656 306.195312 86.449219 283.644531 C 96.113281 262.230469 137.363281 241.535156 142.992188 238.777344 L 142.992188 238.683594 C 123.878906 222.222656 77.402344 200.042969 70.851562 166.125 C 68.996094 156.507812 73.488281 133.5 101.761719 107.097656 Z M 101.761719 107.097656 " fill-opacity="1" fill-rule="nonzero"/></g><path fill="#ffffff" d="M 107.773438 306.546875 C 114.183594 310.257812 129.125 305.839844 139.832031 294.199219 C 143.347656 290.363281 146.199219 286.222656 148.347656 281.773438 C 148.746094 280.914062 149.175781 280.007812 149.542969 279.074219 L 150.539062 276.3125 C 153.300781 267.96875 153.59375 258.71875 150.910156 248.824219 L 149.253906 249.757812 L 149.253906 249.804688 C 149.253906 249.804688 130.09375 258.871094 116.730469 272.953125 C 104.304688 286.066406 100.871094 302.527344 107.773438 306.546875 Z M 107.773438 306.546875 " fill-opacity="1" fill-rule="nonzero"/></svg>