<svg xmlns="http://www.w3.org/2000/svg" xmlns:xlink="http://www.w3.org/1999/xlink" width="500" zoomAndPan="magnify" viewBox="0 0 375 374.999991" height="500" preserveAspectRatio="xMidYMid meet" version="1.0"><defs><clipPath id="e6ef02241d"><path d="M 96 76 L 371.53125 76 L 371.53125 188 L 96 188 Z M 96 76 " clip-rule="nonzero"/></clipPath><clipPath id="97e1db714d"><path d="M 3.28125 187 L 279 187 L 279 299.894531 L 3.28125 299.894531 Z M 3.28125 187 " clip-rule="nonzero"/></clipPath></defs><g clip-path="url(#e6ef02241d)"><path fill="#ffffff" d="M 96.125 148.328125 C 105.148438 108.914062 130.660156 84.570312 165.472656 78.683594 C 187.90625 74.890625 209.847656 76.332031 230.980469 85.226562 C 243.019531 90.296875 253.265625 98.117188 262.59375 107.152344 C 268.816406 113.175781 275.027344 119.210938 281.058594 125.425781 C 305.296875 150.398438 339.695312 148.921875 362.683594 124.527344 C 365.203125 121.851562 367.699219 119.160156 370.207031 116.476562 L 371.707031 117.152344 C 368.242188 125.628906 365.417969 134.4375 361.199219 142.515625 C 347.191406 169.347656 324.617188 183.738281 294.648438 186.980469 C 271.09375 189.527344 248.457031 187.015625 227.429688 175.296875 C 213.492188 167.53125 202.890625 155.816406 191.453125 145.027344 C 184.3125 138.289062 176.953125 131.042969 168.332031 126.761719 C 148.5 116.910156 129.140625 120 111.75 133.574219 C 106.246094 137.867188 101.53125 143.171875 96.125 148.328125 Z M 96.125 148.328125 " fill-opacity="1" fill-rule="nonzero"/></g><g clip-path="url(#97e1db714d)"><path fill="#ffffff" d="M 3.28125 260.546875 C 6.175781 248.050781 10.375 237.71875 16.261719 228.097656 C 30.746094 204.417969 52.207031 191.914062 79.535156 188.878906 C 106.324219 185.90625 131.945312 189.152344 154.335938 205.226562 C 164.019531 212.179688 172.175781 221.230469 181.289062 229.027344 C 189.566406 236.105469 197.332031 244.5 206.851562 249.257812 C 226 258.824219 245.042969 255.871094 262.066406 242.859375 C 267.886719 238.410156 272.875 232.878906 278.84375 227.28125 C 276.238281 238.472656 271.960938 248.980469 266.003906 258.808594 C 248.964844 286.953125 222.613281 297.980469 191.109375 299.039062 C 160.292969 300.070312 133.480469 290.394531 111.554688 268.222656 C 105.21875 261.816406 98.847656 255.4375 92.265625 249.285156 C 67.546875 226.195312 37.207031 226.578125 12.960938 250.222656 C 9.964844 253.148438 7.21875 256.332031 3.28125 260.546875 Z M 3.28125 260.546875 " fill-opacity="1" fill-rule="nonzero"/></g></svg>