<svg xmlns="http://www.w3.org/2000/svg" xmlns:xlink="http://www.w3.org/1999/xlink" width="500" zoomAndPan="magnify" viewBox="0 0 375 374.999991" height="500" preserveAspectRatio="xMidYMid meet" version="1.0"><defs><clipPath id="bae5beca25"><path d="M 2.742188 2.742188 L 372.492188 2.742188 L 372.492188 372.492188 L 2.742188 372.492188 Z M 2.742188 2.742188 " clip-rule="nonzero"/></clipPath></defs><g clip-path="url(#bae5beca25)"><path fill="#ffffff" d="M 2.742188 324.601562 C 2.742188 350.914062 24.074219 372.246094 50.386719 372.246094 L 324.601562 372.246094 C 350.914062 372.246094 372.246094 350.914062 372.246094 324.601562 L 372.246094 50.390625 C 372.246094 24.074219 350.914062 2.742188 324.601562 2.742188 L 50.386719 2.742188 C 24.070312 2.742188 2.742188 24.074219 2.742188 50.386719 Z M 2.742188 324.601562 " fill-opacity="1" fill-rule="nonzero"/></g><path fill="#000000" d="M 155.972656 166.191406 L 155.972656 113.863281 L 202.03125 113.863281 C 206.417969 113.863281 210.648438 114.226562 214.71875 114.957031 C 218.789062 115.6875 222.398438 116.996094 225.527344 118.875 C 228.660156 120.753906 231.171875 123.367188 233.046875 126.707031 C 234.925781 130.050781 235.863281 134.332031 235.863281 139.554688 C 235.863281 148.957031 233.046875 155.742188 227.40625 159.925781 C 221.777344 164.097656 214.558594 166.191406 205.785156 166.191406 Z M 106.773438 75.632812 L 106.773438 299.355469 L 215.195312 299.355469 C 225.210938 299.355469 234.984375 298.101562 244.480469 295.589844 C 253.992188 293.09375 262.449219 289.226562 269.871094 284 C 277.289062 278.773438 283.175781 272.046875 287.566406 263.792969 C 291.953125 255.535156 294.148438 245.78125 294.148438 234.492188 C 294.148438 220.503906 290.753906 208.539062 283.972656 198.625 C 277.171875 188.695312 266.894531 181.75 253.097656 177.78125 C 263.128906 172.976562 270.707031 166.8125 275.816406 159.292969 C 280.941406 151.773438 283.496094 142.375 283.496094 131.09375 C 283.496094 120.648438 281.777344 111.878906 278.328125 104.773438 C 274.878906 97.671875 270.027344 91.980469 263.765625 87.699219 C 257.484375 83.414062 249.964844 80.332031 241.203125 78.453125 C 232.429688 76.574219 222.714844 75.632812 212.0625 75.632812 Z M 155.972656 261.136719 L 155.972656 199.722656 L 209.550781 199.722656 C 220.203125 199.722656 228.761719 202.175781 235.242188 207.082031 C 241.722656 211.988281 244.957031 220.1875 244.957031 231.675781 C 244.957031 237.523438 243.960938 242.328125 241.984375 246.097656 C 239.992188 249.851562 237.335938 252.824219 233.988281 255.015625 C 230.652344 257.210938 226.785156 258.785156 222.398438 259.722656 C 218.007812 260.660156 213.417969 261.136719 208.613281 261.136719 Z M 155.972656 261.136719 " fill-opacity="1" fill-rule="nonzero"/></svg>