<svg xmlns="http://www.w3.org/2000/svg" xmlns:xlink="http://www.w3.org/1999/xlink" width="500" zoomAndPan="magnify" viewBox="0 0 375 374.999991" height="500" preserveAspectRatio="xMidYMid meet" version="1.0"><path fill="#ffffff" d="M 305.714844 130.058594 C 301.917969 128.75 297.976562 127.507812 293.902344 126.335938 C 294.578125 123.613281 295.195312 120.925781 295.738281 118.28125 C 304.667969 74.878906 298.835938 39.917969 278.871094 28.40625 C 259.722656 17.367188 228.417969 28.875 196.800781 56.390625 C 193.761719 59.035156 190.710938 61.835938 187.671875 64.773438 C 185.636719 62.828125 183.617188 60.953125 181.59375 59.15625 C 148.457031 29.738281 115.246094 17.339844 95.304688 28.886719 C 76.179688 39.957031 70.515625 72.824219 78.566406 113.957031 C 79.34375 117.929688 80.25 121.984375 81.277344 126.109375 C 76.578125 127.445312 72.039062 128.867188 67.699219 130.378906 C 28.851562 143.921875 4.042969 165.148438 4.042969 187.167969 C 4.042969 209.898438 30.675781 232.71875 71.136719 246.546875 C 74.328125 247.636719 77.640625 248.667969 81.054688 249.644531 C 79.949219 254.101562 78.984375 258.472656 78.175781 262.742188 C 70.5 303.160156 76.496094 335.253906 95.566406 346.246094 C 115.265625 357.609375 148.328125 345.929688 180.519531 317.796875 C 183.070312 315.574219 185.621094 313.207031 188.171875 310.742188 C 191.5 313.925781 194.808594 316.949219 198.089844 319.789062 C 229.277344 346.617188 260.078125 357.453125 279.128906 346.433594 C 298.804688 335.039062 305.210938 300.554688 296.898438 258.617188 C 296.269531 255.40625 295.523438 252.136719 294.707031 248.8125 C 297.027344 248.125 299.308594 247.410156 301.527344 246.675781 C 343.59375 232.730469 370.957031 210.214844 370.957031 187.167969 C 370.957031 165.070312 345.34375 143.699219 305.714844 130.058594 Z M 296.597656 231.800781 C 294.59375 232.460938 292.527344 233.105469 290.4375 233.722656 C 285.792969 219.03125 279.527344 203.394531 271.847656 187.242188 C 279.171875 171.476562 285.191406 156.042969 289.703125 141.441406 C 293.460938 142.527344 297.101562 143.671875 300.613281 144.878906 C 334.566406 156.570312 355.277344 173.855469 355.277344 187.167969 C 355.277344 201.34375 332.917969 219.761719 296.597656 231.800781 Z M 281.519531 261.65625 C 285.203125 280.199219 285.71875 296.96875 283.285156 310.085938 C 281.105469 321.867188 276.707031 329.71875 271.273438 332.859375 C 259.707031 339.550781 234.984375 330.851562 208.324219 307.90625 C 205.257812 305.269531 202.175781 302.460938 199.09375 299.492188 C 209.429688 288.183594 219.761719 275.042969 229.851562 260.4375 C 247.582031 258.875 264.335938 256.292969 279.542969 252.78125 C 280.289062 255.808594 280.949219 258.757812 281.519531 261.65625 Z M 129.136719 331.699219 C 117.839844 335.695312 108.84375 335.8125 103.402344 332.671875 C 91.828125 325.992188 87.019531 300.222656 93.582031 265.667969 C 94.332031 261.710938 95.226562 257.640625 96.261719 253.484375 C 111.289062 256.808594 127.925781 259.203125 145.703125 260.636719 C 155.859375 274.925781 166.492188 288.054688 177.199219 299.550781 C 174.863281 301.816406 172.527344 303.964844 170.207031 305.984375 C 155.972656 318.441406 141.710938 327.269531 129.136719 331.699219 Z M 76.210938 231.714844 C 58.320312 225.59375 43.546875 217.652344 33.417969 208.96875 C 24.316406 201.1875 19.722656 193.445312 19.722656 187.167969 C 19.722656 173.8125 39.640625 156.765625 72.863281 145.183594 C 76.894531 143.777344 81.113281 142.453125 85.492188 141.207031 C 90.085938 156.140625 96.105469 171.761719 103.375 187.542969 C 96.011719 203.566406 89.902344 219.429688 85.265625 234.550781 C 82.144531 233.648438 79.121094 232.703125 76.210938 231.714844 Z M 93.953125 110.945312 C 87.058594 75.703125 91.636719 49.121094 103.160156 42.449219 C 115.4375 35.34375 142.578125 45.476562 171.179688 70.878906 C 173.015625 72.503906 174.851562 74.203125 176.699219 75.960938 C 166.035156 87.40625 155.5 100.4375 145.4375 114.640625 C 128.179688 116.238281 111.660156 118.808594 96.476562 122.25 C 95.519531 118.410156 94.675781 114.636719 93.953125 110.945312 Z M 252.210938 150.027344 C 248.585938 143.753906 244.859375 137.632812 241.0625 131.675781 C 252.769531 133.15625 263.980469 135.121094 274.515625 137.523438 C 271.359375 147.660156 267.417969 158.253906 262.777344 169.125 C 259.449219 162.800781 255.925781 156.429688 252.210938 150.027344 Z M 187.671875 87.164062 C 194.910156 94.996094 202.148438 103.738281 209.273438 113.226562 C 202.089844 112.890625 194.824219 112.710938 187.5 112.710938 C 180.25 112.710938 173.039062 112.886719 165.902344 113.21875 C 173.023438 103.816406 180.335938 95.085938 187.671875 87.164062 Z M 122.722656 150.136719 C 119.09375 156.421875 115.640625 162.757812 112.363281 169.109375 C 107.800781 158.28125 103.894531 147.636719 100.703125 137.359375 C 111.171875 135.015625 122.335938 133.101562 133.96875 131.648438 C 130.113281 137.660156 126.355469 143.828125 122.722656 150.132812 Z M 134.304688 243.796875 C 122.285156 242.464844 110.953125 240.644531 100.488281 238.363281 C 103.730469 227.902344 107.71875 217.039062 112.382812 205.972656 C 115.664062 212.324219 119.132812 218.65625 122.78125 224.964844 L 122.785156 224.964844 C 126.5 231.382812 130.351562 237.664062 134.304688 243.796875 Z M 188.101562 288.269531 C 180.679688 280.257812 173.269531 271.386719 166.03125 261.855469 C 173.054688 262.128906 180.21875 262.269531 187.5 262.269531 C 194.984375 262.269531 202.378906 262.097656 209.644531 261.785156 C 202.507812 271.488281 195.285156 280.375 188.101562 288.269531 Z M 262.917969 205.414062 C 267.820312 216.59375 271.960938 227.398438 275.246094 237.691406 C 264.609375 240.113281 253.117188 242.0625 241.019531 243.523438 C 244.832031 237.492188 248.585938 231.253906 252.285156 224.847656 C 256.023438 218.371094 259.566406 211.878906 262.917969 205.414062 Z M 238.695312 217.023438 C 232.964844 226.96875 227.074219 236.457031 221.097656 245.417969 C 210.21875 246.191406 198.96875 246.589844 187.5 246.589844 C 176.078125 246.589844 164.96875 246.246094 154.277344 245.546875 C 148.058594 236.472656 142.046875 226.957031 136.347656 217.109375 C 130.664062 207.292969 125.433594 197.386719 120.691406 187.542969 C 125.429688 177.679688 130.648438 167.761719 136.300781 157.964844 C 141.964844 148.140625 147.929688 138.664062 154.09375 129.640625 C 165 128.816406 176.191406 128.386719 187.5 128.386719 C 198.867188 128.386719 210.058594 128.820312 220.96875 129.652344 C 227.042969 138.609375 232.964844 148.050781 238.652344 157.878906 C 244.402344 167.820312 249.691406 177.667969 254.460938 187.328125 C 249.703125 197.144531 244.429688 207.089844 238.695312 217.023438 Z M 271.03125 41.980469 C 283.328125 49.066406 288.101562 77.640625 280.375 115.113281 C 279.886719 117.503906 279.328125 119.9375 278.726562 122.40625 C 263.507812 118.894531 246.980469 116.28125 229.683594 114.65625 C 219.589844 100.300781 209.144531 87.25 198.652344 75.949219 C 201.476562 73.238281 204.296875 70.648438 207.09375 68.207031 C 234.183594 44.636719 259.507812 35.328125 271.03125 41.980469 Z M 187.5 154.398438 C 205.589844 154.398438 220.265625 169.0625 220.265625 187.164062 C 220.265625 205.253906 205.589844 219.929688 187.5 219.929688 C 169.414062 219.929688 154.738281 205.253906 154.738281 187.164062 C 154.738281 169.0625 169.414062 154.398438 187.5 154.398438 Z M 187.5 154.398438 " fill-opacity="1" fill-rule="nonzero"/></svg>