<svg xmlns="http://www.w3.org/2000/svg" xmlns:xlink="http://www.w3.org/1999/xlink" width="1000" zoomAndPan="magnify" viewBox="0 0 750 374.999991" height="500" preserveAspectRatio="xMidYMid meet" version="1.0"><defs><clipPath id="35fa714f0b"><path d="M 317 5.179688 L 382 5.179688 L 382 44 L 317 44 Z M 317 5.179688 " clip-rule="nonzero"/></clipPath><clipPath id="8aca880616"><path d="M 63.136719 311 L 140 311 L 140 351 L 63.136719 351 Z M 63.136719 311 " clip-rule="nonzero"/></clipPath><clipPath id="9795bfe9c5"><path d="M 89 373 L 723.136719 373 L 723.136719 374.929688 L 89 374.929688 Z M 89 373 " clip-rule="nonzero"/></clipPath></defs><path fill="#e6e6e6" d="M 520.871094 122.554688 L 508.324219 122.554688 C 508.125 122.554688 507.929688 122.519531 507.742188 122.445312 C 507.554688 122.375 507.382812 122.269531 507.234375 122.136719 C 507.085938 122 506.964844 121.84375 506.875 121.664062 C 506.785156 121.484375 506.730469 121.292969 506.714844 121.09375 L 504.203125 95.367188 L 524.992188 95.367188 L 522.480469 121.09375 C 522.460938 121.292969 522.40625 121.484375 522.316406 121.664062 C 522.226562 121.84375 522.109375 122 521.957031 122.136719 C 521.808594 122.269531 521.640625 122.375 521.453125 122.445312 C 521.265625 122.519531 521.070312 122.554688 520.871094 122.554688 Z M 520.871094 122.554688 " fill-opacity="1" fill-rule="nonzero"/><path fill="#cccccc" d="M 524.957031 98.605469 L 504.234375 98.605469 C 504.019531 98.605469 503.8125 98.5625 503.617188 98.480469 C 503.417969 98.398438 503.242188 98.28125 503.089844 98.128906 C 502.9375 97.976562 502.820312 97.800781 502.738281 97.605469 C 502.65625 97.40625 502.617188 97.199219 502.617188 96.984375 L 502.617188 93.101562 C 502.617188 92.886719 502.65625 92.679688 502.738281 92.484375 C 502.820312 92.285156 502.9375 92.109375 503.089844 91.957031 C 503.242188 91.804688 503.417969 91.6875 503.617188 91.605469 C 503.8125 91.523438 504.019531 91.484375 504.234375 91.484375 L 524.957031 91.484375 C 525.171875 91.484375 525.378906 91.523438 525.578125 91.605469 C 525.777344 91.6875 525.949219 91.804688 526.101562 91.957031 C 526.253906 92.109375 526.371094 92.285156 526.453125 92.484375 C 526.535156 92.679688 526.578125 92.886719 526.578125 93.101562 L 526.578125 96.984375 C 526.578125 97.199219 526.535156 97.40625 526.453125 97.605469 C 526.371094 97.804688 526.253906 97.976562 526.101562 98.128906 C 525.949219 98.28125 525.777344 98.398438 525.578125 98.480469 C 525.378906 98.5625 525.171875 98.605469 524.957031 98.605469 Z M 524.957031 98.605469 " fill-opacity="1" fill-rule="nonzero"/><path fill="#ffffff" d="M 374.097656 94.917969 L 324.402344 94.917969 L 324.402344 79.839844 C 340.105469 68.914062 354.019531 69.863281 372.324219 80.726562 Z M 374.097656 94.917969 " fill-opacity="1" fill-rule="nonzero"/><path fill="#ffb8b8" d="M 312.894531 362.769531 L 302.011719 362.769531 L 300.386719 320.824219 L 312.894531 320.824219 Z M 312.894531 362.769531 " fill-opacity="1" fill-rule="nonzero"/><path fill="#2f2e41" d="M 315.667969 373.3125 L 280.585938 373.3125 L 280.585938 372.867188 C 280.585938 371.972656 280.671875 371.085938 280.847656 370.203125 C 281.023438 369.324219 281.28125 368.472656 281.625 367.644531 C 281.96875 366.816406 282.390625 366.03125 282.886719 365.285156 C 283.386719 364.539062 283.949219 363.851562 284.585938 363.214844 C 285.21875 362.582031 285.910156 362.015625 286.65625 361.519531 C 287.398438 361.019531 288.1875 360.601562 289.015625 360.257812 C 289.84375 359.914062 290.699219 359.65625 291.578125 359.480469 C 292.457031 359.304688 293.34375 359.21875 294.242188 359.21875 L 315.667969 359.21875 Z M 315.667969 373.3125 " fill-opacity="1" fill-rule="nonzero"/><path fill="#ffb8b8" d="M 374.171875 362.769531 L 385.054688 362.769531 L 386.679688 320.824219 L 374.171875 320.824219 Z M 374.171875 362.769531 " fill-opacity="1" fill-rule="nonzero"/><path fill="#2f2e41" d="M 371.398438 359.21875 L 392.828125 359.21875 C 393.722656 359.21875 394.609375 359.304688 395.492188 359.480469 C 396.371094 359.65625 397.222656 359.914062 398.050781 360.257812 C 398.878906 360.601562 399.667969 361.019531 400.414062 361.519531 C 401.15625 362.015625 401.847656 362.582031 402.480469 363.214844 C 403.117188 363.851562 403.683594 364.539062 404.179688 365.285156 C 404.679688 366.03125 405.097656 366.816406 405.441406 367.644531 C 405.785156 368.472656 406.042969 369.324219 406.21875 370.203125 C 406.394531 371.082031 406.480469 371.972656 406.480469 372.867188 L 406.480469 373.3125 L 371.398438 373.3125 Z M 371.398438 359.21875 " fill-opacity="1" fill-rule="nonzero"/><path fill="#2f2e41" d="M 374.460938 357.394531 C 374.007812 357.394531 373.566406 357.316406 373.136719 357.164062 C 372.710938 357.015625 372.316406 356.796875 371.964844 356.511719 C 371.609375 356.230469 371.3125 355.894531 371.070312 355.511719 C 370.832031 355.125 370.660156 354.710938 370.5625 354.269531 L 343.59375 236.699219 C 343.53125 236.390625 343.378906 236.140625 343.132812 235.941406 C 342.890625 235.746094 342.609375 235.652344 342.292969 235.660156 L 342.289062 235.660156 C 341.972656 235.652344 341.691406 235.75 341.445312 235.949219 C 341.203125 236.148438 341.050781 236.402344 340.992188 236.714844 L 316.226562 353.492188 C 316.132812 353.9375 315.964844 354.355469 315.722656 354.746094 C 315.484375 355.132812 315.1875 355.472656 314.832031 355.757812 C 314.476562 356.046875 314.082031 356.269531 313.652344 356.421875 C 313.222656 356.574219 312.777344 356.652344 312.320312 356.652344 L 300.523438 356.652344 C 300.253906 356.652344 299.984375 356.625 299.71875 356.570312 C 299.449219 356.515625 299.191406 356.433594 298.941406 356.328125 C 298.691406 356.21875 298.457031 356.085938 298.234375 355.929688 C 298.011719 355.773438 297.804688 355.597656 297.617188 355.398438 C 297.433594 355.203125 297.265625 354.988281 297.125 354.753906 C 296.980469 354.523438 296.863281 354.28125 296.769531 354.023438 C 296.679688 353.769531 296.613281 353.507812 296.574219 353.238281 C 296.535156 352.96875 296.523438 352.699219 296.539062 352.425781 L 305.324219 204.417969 L 308.859375 203.371094 L 308.925781 203.371094 L 378.375 203.980469 L 393.167969 351.828125 C 393.195312 352.089844 393.195312 352.351562 393.167969 352.617188 C 393.140625 352.878906 393.089844 353.140625 393.011719 353.390625 C 392.933594 353.644531 392.828125 353.886719 392.703125 354.121094 C 392.578125 354.355469 392.429688 354.570312 392.257812 354.773438 C 392.085938 354.976562 391.898438 355.164062 391.691406 355.328125 C 391.484375 355.492188 391.265625 355.636719 391.027344 355.757812 C 390.792969 355.882812 390.546875 355.976562 390.292969 356.050781 C 390.039062 356.125 389.78125 356.171875 389.515625 356.191406 L 374.78125 357.382812 C 374.671875 357.390625 374.566406 357.394531 374.460938 357.394531 Z M 374.460938 357.394531 " fill-opacity="1" fill-rule="nonzero"/><path fill="#ffb8b8" d="M 367.578125 46.105469 C 367.578125 46.816406 367.542969 47.53125 367.472656 48.238281 C 367.402344 48.949219 367.296875 49.65625 367.15625 50.355469 C 367.019531 51.054688 366.84375 51.746094 366.636719 52.429688 C 366.429688 53.113281 366.191406 53.78125 365.917969 54.441406 C 365.644531 55.101562 365.339844 55.746094 365.003906 56.375 C 364.667969 57.003906 364.300781 57.613281 363.902344 58.207031 C 363.507812 58.800781 363.082031 59.375 362.628906 59.925781 C 362.175781 60.476562 361.695312 61.003906 361.191406 61.511719 C 360.6875 62.015625 360.160156 62.492188 359.609375 62.945312 C 359.054688 63.398438 358.484375 63.824219 357.890625 64.21875 C 357.296875 64.617188 356.683594 64.980469 356.054688 65.320312 C 355.425781 65.65625 354.78125 65.960938 354.121094 66.234375 C 353.460938 66.503906 352.789062 66.746094 352.105469 66.953125 C 351.425781 67.160156 350.730469 67.332031 350.03125 67.472656 C 349.332031 67.613281 348.625 67.714844 347.917969 67.785156 C 347.207031 67.855469 346.492188 67.890625 345.78125 67.890625 C 345.066406 67.890625 344.355469 67.855469 343.644531 67.785156 C 342.933594 67.714844 342.226562 67.613281 341.527344 67.472656 C 340.828125 67.332031 340.136719 67.160156 339.453125 66.953125 C 338.769531 66.746094 338.097656 66.503906 337.4375 66.234375 C 336.777344 65.960938 336.132812 65.65625 335.503906 65.320312 C 334.875 64.980469 334.265625 64.617188 333.671875 64.21875 C 333.078125 63.824219 332.503906 63.398438 331.953125 62.945312 C 331.398438 62.492188 330.871094 62.015625 330.367188 61.511719 C 329.863281 61.003906 329.382812 60.476562 328.929688 59.925781 C 328.476562 59.375 328.054688 58.800781 327.65625 58.207031 C 327.261719 57.613281 326.894531 57.003906 326.558594 56.375 C 326.21875 55.746094 325.914062 55.101562 325.640625 54.441406 C 325.371094 53.78125 325.128906 53.113281 324.921875 52.429688 C 324.714844 51.746094 324.542969 51.054688 324.402344 50.355469 C 324.261719 49.65625 324.15625 48.949219 324.089844 48.238281 C 324.019531 47.53125 323.984375 46.816406 323.984375 46.105469 C 323.984375 45.390625 324.019531 44.679688 324.089844 43.96875 C 324.15625 43.257812 324.261719 42.554688 324.402344 41.855469 C 324.542969 41.152344 324.714844 40.460938 324.921875 39.78125 C 325.128906 39.097656 325.371094 38.425781 325.640625 37.765625 C 325.914062 37.105469 326.21875 36.464844 326.558594 35.832031 C 326.894531 35.203125 327.261719 34.59375 327.65625 34 C 328.054688 33.40625 328.476562 32.835938 328.929688 32.28125 C 329.382812 31.730469 329.863281 31.203125 330.367188 30.699219 C 330.871094 30.195312 331.398438 29.714844 331.953125 29.261719 C 332.503906 28.808594 333.078125 28.386719 333.671875 27.988281 C 334.265625 27.59375 334.875 27.226562 335.503906 26.890625 C 336.132812 26.554688 336.777344 26.25 337.4375 25.976562 C 338.097656 25.703125 338.769531 25.460938 339.453125 25.253906 C 340.136719 25.046875 340.828125 24.875 341.527344 24.734375 C 342.226562 24.597656 342.933594 24.492188 343.644531 24.421875 C 344.355469 24.351562 345.066406 24.316406 345.78125 24.316406 C 346.492188 24.316406 347.207031 24.351562 347.917969 24.421875 C 348.625 24.492188 349.332031 24.597656 350.03125 24.734375 C 350.730469 24.875 351.425781 25.046875 352.105469 25.253906 C 352.789062 25.460938 353.460938 25.703125 354.121094 25.976562 C 354.78125 26.25 355.425781 26.554688 356.054688 26.890625 C 356.683594 27.226562 357.296875 27.59375 357.890625 27.988281 C 358.484375 28.386719 359.054688 28.808594 359.609375 29.261719 C 360.160156 29.714844 360.6875 30.195312 361.191406 30.699219 C 361.695312 31.203125 362.175781 31.730469 362.628906 32.28125 C 363.082031 32.835938 363.507812 33.40625 363.902344 34 C 364.300781 34.59375 364.667969 35.203125 365.003906 35.832031 C 365.339844 36.464844 365.644531 37.105469 365.917969 37.765625 C 366.191406 38.425781 366.429688 39.097656 366.636719 39.78125 C 366.84375 40.460938 367.019531 41.152344 367.15625 41.855469 C 367.296875 42.554688 367.402344 43.257812 367.472656 43.96875 C 367.542969 44.679688 367.578125 45.390625 367.578125 46.105469 Z M 367.578125 46.105469 " fill-opacity="1" fill-rule="nonzero"/><path fill="#3f3d56" d="M 332.425781 220.644531 C 328.582031 220.691406 324.816406 220.160156 321.132812 219.054688 C 319.503906 218.5625 317.941406 217.914062 316.445312 217.101562 C 314.949219 216.292969 313.554688 215.339844 312.253906 214.242188 C 310.953125 213.144531 309.777344 211.929688 308.726562 210.59375 C 307.675781 209.253906 306.769531 207.824219 306.011719 206.304688 C 305.511719 205.351562 305.414062 204.359375 305.714844 203.328125 C 308.117188 195.128906 319.734375 152.5 312.324219 118.613281 C 311.800781 116.257812 311.515625 113.875 311.472656 111.464844 C 311.429688 109.054688 311.628906 106.664062 312.066406 104.292969 C 312.507812 101.921875 313.175781 99.617188 314.078125 97.382812 C 314.984375 95.144531 316.101562 93.023438 317.429688 91.011719 C 318.730469 89.015625 320.214844 87.171875 321.886719 85.472656 C 323.558594 83.777344 325.382812 82.265625 327.359375 80.9375 C 329.335938 79.609375 331.425781 78.488281 333.628906 77.582031 C 335.832031 76.671875 338.101562 75.992188 340.441406 75.542969 C 341.667969 75.300781 342.90625 75.105469 344.113281 74.957031 C 346.699219 74.636719 349.289062 74.605469 351.878906 74.859375 C 354.472656 75.113281 357.007812 75.648438 359.480469 76.460938 C 361.953125 77.273438 364.3125 78.347656 366.546875 79.683594 C 368.785156 81.019531 370.847656 82.582031 372.738281 84.371094 C 374.6875 86.195312 376.414062 88.210938 377.914062 90.417969 C 379.414062 92.625 380.65625 94.96875 381.640625 97.449219 C 382.625 99.933594 383.324219 102.492188 383.742188 105.128906 C 384.160156 107.761719 384.28125 110.414062 384.113281 113.078125 L 378.417969 204.445312 C 378.378906 205.144531 378.167969 205.785156 377.789062 206.371094 C 377.40625 206.957031 376.910156 207.410156 376.289062 207.730469 C 369.726562 211.167969 350.019531 220.644531 332.425781 220.644531 Z M 332.425781 220.644531 " fill-opacity="1" fill-rule="nonzero"/><path fill="#2f2e41" d="M 370.402344 30.066406 C 369.839844 28.65625 369.164062 27.300781 368.371094 26.003906 C 367.578125 24.707031 366.683594 23.488281 365.679688 22.34375 C 364.679688 21.203125 363.589844 20.152344 362.410156 19.191406 C 361.230469 18.234375 359.980469 17.382812 358.652344 16.640625 C 357.328125 15.894531 355.949219 15.269531 354.519531 14.757812 C 353.085938 14.246094 351.621094 13.863281 350.125 13.601562 C 348.628906 13.34375 347.117188 13.210938 345.597656 13.207031 C 344.078125 13.203125 342.570312 13.328125 341.070312 13.582031 L 347.945312 19.132812 C 339.40625 19.421875 330.417969 18.808594 324.320312 24.792969 C 326.261719 24.738281 328.804688 28.886719 330.746094 28.832031 C 327.117188 28.90625 323.828125 31.453125 322.222656 34.707031 C 321.480469 36.382812 321.027344 38.128906 320.855469 39.949219 C 320.6875 41.769531 320.8125 43.570312 321.234375 45.351562 C 321.953125 48.90625 327.417969 57.238281 328.890625 60.554688 C 328.636719 51.886719 345.707031 31.214844 354.042969 33.375 C 351.925781 34.160156 349.96875 35.234375 348.167969 36.597656 C 346.371094 37.964844 344.808594 39.5625 343.480469 41.386719 C 346.316406 39.957031 349.300781 38.988281 352.4375 38.472656 C 355.570312 37.960938 358.707031 37.929688 361.851562 38.382812 C 363.296875 38.714844 364.757812 38.796875 366.230469 38.628906 C 366.457031 38.585938 366.675781 38.527344 366.890625 38.453125 C 367.105469 38.382812 367.316406 38.296875 367.523438 38.199219 C 367.726562 38.097656 367.925781 37.988281 368.117188 37.863281 C 368.304688 37.738281 368.488281 37.601562 368.660156 37.457031 C 368.835938 37.308594 368.996094 37.148438 369.152344 36.980469 C 369.304688 36.8125 369.445312 36.636719 369.574219 36.449219 C 369.707031 36.261719 369.824219 36.070312 369.929688 35.867188 C 370.035156 35.664062 370.128906 35.457031 370.207031 35.246094 C 370.285156 35.03125 370.351562 34.8125 370.402344 34.59375 C 370.453125 34.371094 370.492188 34.148438 370.515625 33.921875 C 370.539062 33.695312 370.546875 33.46875 370.539062 33.238281 C 370.53125 33.011719 370.511719 32.785156 370.476562 32.5625 C 370.441406 32.335938 370.394531 32.113281 370.328125 31.898438 C 370.265625 31.679688 370.1875 31.464844 370.097656 31.257812 C 370.007812 31.046875 369.902344 30.84375 369.789062 30.648438 C 369.671875 30.453125 369.542969 30.265625 369.402344 30.089844 Z M 370.402344 30.066406 " fill-opacity="1" fill-rule="nonzero"/><path fill="#ffffff" d="M 330.925781 215.15625 C 330.371094 215.15625 329.835938 215.042969 329.328125 214.820312 L 287.972656 196.777344 C 287.53125 196.589844 287.140625 196.328125 286.792969 196 C 286.449219 195.667969 286.171875 195.289062 285.964844 194.859375 C 285.753906 194.429688 285.628906 193.976562 285.585938 193.5 C 285.539062 193.027344 285.582031 192.558594 285.707031 192.097656 L 313.082031 88.71875 C 313.210938 88.238281 313.359375 87.765625 313.535156 87.300781 C 313.707031 86.839844 313.90625 86.382812 314.125 85.9375 C 314.34375 85.492188 314.582031 85.058594 314.847656 84.636719 C 315.109375 84.21875 315.390625 83.808594 315.695312 83.417969 C 315.996094 83.023438 316.320312 82.644531 316.660156 82.285156 C 317 81.925781 317.355469 81.582031 317.730469 81.253906 C 318.105469 80.929688 318.496094 80.625 318.902344 80.335938 C 319.304688 80.050781 319.722656 79.785156 320.15625 79.539062 C 320.585938 79.292969 321.03125 79.070312 321.484375 78.867188 C 321.9375 78.667969 322.402344 78.488281 322.871094 78.335938 C 323.34375 78.179688 323.820312 78.046875 324.304688 77.941406 C 324.789062 77.832031 325.28125 77.75 325.773438 77.691406 C 326.265625 77.632812 326.761719 77.597656 327.257812 77.585938 C 327.753906 77.578125 328.25 77.59375 328.742188 77.632812 C 329.238281 77.671875 329.730469 77.734375 330.21875 77.824219 C 330.707031 77.910156 331.1875 78.023438 331.667969 78.160156 L 342.613281 81.285156 L 334.90625 211.398438 C 334.867188 212.050781 334.679688 212.652344 334.34375 213.214844 C 334.007812 213.773438 333.558594 214.222656 333.003906 214.5625 C 332.367188 214.957031 331.675781 215.15625 330.925781 215.15625 Z M 330.925781 215.15625 " fill-opacity="1" fill-rule="nonzero"/><path fill="#ffffff" d="M 407.464844 192.09375 L 405.648438 185.238281 L 403.011719 175.265625 L 401.742188 170.484375 L 399.105469 160.542969 L 380.089844 88.71875 C 379.960938 88.238281 379.8125 87.765625 379.636719 87.300781 C 379.464844 86.835938 379.269531 86.378906 379.050781 85.933594 C 378.832031 85.488281 378.589844 85.054688 378.328125 84.632812 C 378.066406 84.210938 377.78125 83.804688 377.480469 83.414062 C 377.175781 83.019531 376.855469 82.640625 376.515625 82.28125 C 376.175781 81.917969 375.816406 81.574219 375.441406 81.25 C 375.066406 80.925781 374.679688 80.617188 374.273438 80.332031 C 373.867188 80.042969 373.449219 79.777344 373.019531 79.53125 C 372.585938 79.289062 372.144531 79.0625 371.691406 78.863281 C 371.234375 78.664062 370.773438 78.484375 370.300781 78.328125 C 369.828125 78.175781 369.351562 78.042969 368.867188 77.933594 C 368.382812 77.828125 367.894531 77.746094 367.398438 77.6875 C 366.90625 77.628906 366.414062 77.59375 365.914062 77.582031 C 365.417969 77.574219 364.921875 77.589844 364.429688 77.628906 C 363.933594 77.667969 363.441406 77.734375 362.953125 77.824219 C 362.464844 77.910156 361.984375 78.023438 361.503906 78.160156 L 350.5625 81.285156 L 355.984375 172.800781 L 356.542969 182.355469 L 356.898438 188.378906 L 356.898438 188.386719 L 357.46875 197.886719 L 358.265625 211.398438 C 358.296875 211.90625 358.421875 212.386719 358.640625 212.847656 C 358.855469 213.308594 359.148438 213.710938 359.519531 214.0625 C 359.886719 214.410156 360.308594 214.679688 360.78125 214.871094 C 361.253906 215.058594 361.742188 215.15625 362.25 215.160156 C 362.804688 215.15625 363.339844 215.042969 363.847656 214.820312 L 405.203125 196.777344 C 405.640625 196.589844 406.035156 196.332031 406.378906 196 C 406.726562 195.671875 407.003906 195.289062 407.210938 194.859375 C 407.417969 194.429688 407.546875 193.976562 407.589844 193.5 C 407.632812 193.023438 407.59375 192.554688 407.464844 192.09375 Z M 407.464844 192.09375 " fill-opacity="1" fill-rule="nonzero"/><path fill="#cccccc" d="M 401.742188 170.488281 L 356.542969 182.355469 L 355.984375 172.800781 L 399.105469 160.542969 Z M 401.742188 170.488281 " fill-opacity="1" fill-rule="nonzero"/><path fill="#cccccc" d="M 405.644531 185.238281 L 357.464844 197.886719 L 356.898438 188.386719 L 356.898438 188.378906 L 403.011719 175.269531 Z M 405.644531 185.238281 " fill-opacity="1" fill-rule="nonzero"/><path fill="#cccccc" d="M 336.628906 174.859375 L 336.070312 184.234375 L 291.742188 171.035156 L 294.34375 161.226562 Z M 336.628906 174.859375 " fill-opacity="1" fill-rule="nonzero"/><path fill="#cccccc" d="M 335.707031 190.410156 L 290.472656 175.816406 L 287.871094 185.65625 L 335.15625 199.734375 Z M 335.707031 190.410156 " fill-opacity="1" fill-rule="nonzero"/><path fill="#ffb8b8" d="M 291.261719 200.214844 C 291.9375 200.039062 292.582031 199.792969 293.203125 199.476562 C 293.824219 199.15625 294.402344 198.777344 294.9375 198.332031 C 295.476562 197.886719 295.957031 197.390625 296.382812 196.839844 C 296.8125 196.289062 297.175781 195.699219 297.472656 195.070312 C 297.769531 194.441406 297.996094 193.785156 298.152344 193.105469 C 298.304688 192.425781 298.382812 191.738281 298.386719 191.042969 C 298.390625 190.34375 298.320312 189.65625 298.171875 188.976562 C 298.023438 188.296875 297.804688 187.640625 297.511719 187.007812 L 318.777344 120.277344 L 303.699219 117.121094 L 284.203125 182.542969 C 283.691406 182.820312 283.210938 183.144531 282.757812 183.507812 C 282.304688 183.875 281.890625 184.277344 281.511719 184.71875 C 281.132812 185.160156 280.792969 185.632812 280.5 186.132812 C 280.207031 186.636719 279.964844 187.160156 279.765625 187.707031 C 279.566406 188.253906 279.421875 188.816406 279.328125 189.386719 C 279.230469 189.960938 279.1875 190.539062 279.199219 191.121094 C 279.207031 191.703125 279.269531 192.277344 279.382812 192.847656 C 279.5 193.417969 279.664062 193.972656 279.878906 194.511719 C 280.09375 195.054688 280.359375 195.570312 280.667969 196.0625 C 280.976562 196.554688 281.328125 197.015625 281.722656 197.441406 C 282.117188 197.871094 282.546875 198.261719 283.011719 198.609375 C 283.476562 198.960938 283.96875 199.265625 284.488281 199.527344 C 285.007812 199.785156 285.546875 200 286.105469 200.160156 C 286.664062 200.324219 287.234375 200.433594 287.8125 200.492188 C 288.390625 200.550781 288.96875 200.558594 289.550781 200.511719 C 290.128906 200.464844 290.699219 200.367188 291.261719 200.214844 Z M 291.261719 200.214844 " fill-opacity="1" fill-rule="nonzero"/><path fill="#3f3d56" d="M 319.367188 87.472656 C 323.699219 87.914062 326.132812 92.78125 325.058594 98.839844 L 319.890625 127.914062 C 319.503906 130.09375 317.710938 131.820312 316.21875 131.449219 L 298.742188 127.082031 C 297.398438 126.746094 296.902344 124.835938 297.664062 122.925781 L 308.15625 96.621094 C 310.433594 90.910156 315.171875 87.042969 319.367188 87.472656 Z M 319.367188 87.472656 " fill-opacity="1" fill-rule="nonzero"/><g clip-path="url(#35fa714f0b)"><path fill="#ffffff" d="M 345.699219 5.324219 C 346.609375 5.324219 347.519531 5.367188 348.425781 5.457031 C 349.335938 5.542969 350.234375 5.675781 351.128906 5.851562 C 352.023438 6.023438 352.910156 6.242188 353.78125 6.5 C 354.65625 6.761719 355.515625 7.0625 356.359375 7.402344 C 357.203125 7.746094 358.03125 8.125 358.839844 8.546875 C 359.648438 8.96875 360.433594 9.429688 361.195312 9.925781 C 361.960938 10.425781 362.699219 10.957031 363.410156 11.527344 C 364.121094 12.09375 364.804688 12.695312 365.460938 13.328125 C 366.113281 13.964844 366.738281 14.628906 367.328125 15.320312 C 367.917969 16.015625 368.472656 16.738281 368.996094 17.484375 C 369.515625 18.230469 370 19.003906 370.445312 19.796875 C 370.890625 20.589844 371.300781 21.402344 371.667969 22.238281 C 372.035156 23.070312 372.363281 23.921875 372.648438 24.785156 C 372.9375 25.648438 373.179688 26.527344 373.382812 27.414062 C 373.585938 28.304688 373.742188 29.199219 373.859375 30.101562 C 373.976562 31.007812 374.046875 31.914062 374.074219 32.824219 L 379.421875 32.824219 C 379.65625 32.824219 379.882812 32.867188 380.101562 32.960938 C 380.320312 33.050781 380.511719 33.175781 380.679688 33.34375 C 380.84375 33.511719 380.972656 33.703125 381.0625 33.917969 C 381.152344 34.136719 381.199219 34.363281 381.199219 34.597656 L 381.199219 41.695312 C 381.199219 41.929688 381.152344 42.15625 381.0625 42.375 C 380.972656 42.589844 380.84375 42.78125 380.679688 42.949219 C 380.511719 43.117188 380.320312 43.242188 380.101562 43.332031 C 379.882812 43.421875 379.65625 43.46875 379.421875 43.46875 L 319.074219 43.46875 C 318.839844 43.46875 318.613281 43.421875 318.398438 43.332031 C 318.179688 43.242188 317.988281 43.117188 317.820312 42.949219 C 317.65625 42.78125 317.527344 42.589844 317.4375 42.375 C 317.347656 42.15625 317.300781 41.929688 317.300781 41.695312 L 317.300781 33.710938 C 317.300781 32.78125 317.347656 31.855469 317.4375 30.929688 C 317.527344 30.003906 317.664062 29.085938 317.847656 28.171875 C 318.027344 27.261719 318.253906 26.359375 318.523438 25.472656 C 318.792969 24.582031 319.105469 23.707031 319.460938 22.847656 C 319.820312 21.988281 320.214844 21.148438 320.65625 20.328125 C 321.09375 19.511719 321.570312 18.714844 322.085938 17.941406 C 322.605469 17.167969 323.15625 16.421875 323.746094 15.703125 C 324.335938 14.984375 324.960938 14.296875 325.617188 13.640625 C 326.277344 12.980469 326.964844 12.359375 327.683594 11.769531 C 328.402344 11.179688 329.148438 10.625 329.921875 10.109375 C 330.695312 9.59375 331.492188 9.113281 332.3125 8.675781 C 333.132812 8.238281 333.972656 7.839844 334.832031 7.484375 C 335.691406 7.128906 336.566406 6.816406 337.457031 6.546875 C 338.347656 6.277344 339.246094 6.050781 340.160156 5.871094 C 341.070312 5.6875 341.992188 5.554688 342.917969 5.460938 C 343.839844 5.371094 344.769531 5.324219 345.699219 5.324219 Z M 345.699219 5.324219 " fill-opacity="1" fill-rule="nonzero"/></g><path fill="#e6e6e6" d="M 349.09375 180.789062 L 336.546875 180.789062 C 336.347656 180.789062 336.152344 180.753906 335.964844 180.683594 C 335.777344 180.609375 335.609375 180.507812 335.460938 180.371094 C 335.308594 180.234375 335.191406 180.078125 335.101562 179.898438 C 335.011719 179.71875 334.957031 179.527344 334.9375 179.328125 L 332.425781 153.601562 L 353.214844 153.601562 L 350.703125 179.328125 C 350.6875 179.527344 350.632812 179.71875 350.542969 179.898438 C 350.449219 180.078125 350.332031 180.234375 350.183594 180.371094 C 350.03125 180.507812 349.863281 180.609375 349.675781 180.683594 C 349.488281 180.753906 349.292969 180.789062 349.09375 180.789062 Z M 349.09375 180.789062 " fill-opacity="1" fill-rule="nonzero"/><path fill="#cccccc" d="M 353.183594 156.839844 L 332.460938 156.839844 C 332.246094 156.839844 332.039062 156.796875 331.839844 156.714844 C 331.640625 156.632812 331.464844 156.515625 331.316406 156.363281 C 331.164062 156.210938 331.046875 156.039062 330.964844 155.839844 C 330.882812 155.640625 330.839844 155.433594 330.839844 155.21875 L 330.839844 151.335938 C 330.839844 151.121094 330.882812 150.914062 330.964844 150.71875 C 331.046875 150.519531 331.164062 150.34375 331.316406 150.191406 C 331.464844 150.042969 331.640625 149.925781 331.839844 149.84375 C 332.039062 149.761719 332.246094 149.71875 332.460938 149.71875 L 353.183594 149.71875 C 353.398438 149.71875 353.601562 149.761719 353.800781 149.84375 C 354 149.925781 354.175781 150.042969 354.328125 150.191406 C 354.476562 150.34375 354.59375 150.519531 354.675781 150.71875 C 354.761719 150.914062 354.800781 151.121094 354.800781 151.335938 L 354.800781 155.21875 C 354.800781 155.433594 354.761719 155.640625 354.675781 155.839844 C 354.59375 156.039062 354.476562 156.210938 354.328125 156.363281 C 354.175781 156.515625 354 156.632812 353.800781 156.714844 C 353.601562 156.796875 353.398438 156.839844 353.183594 156.839844 Z M 353.183594 156.839844 " fill-opacity="1" fill-rule="nonzero"/><path fill="#ffb8b8" d="M 343.089844 166.992188 C 343.578125 167.050781 344.058594 167.144531 344.535156 167.277344 L 377.941406 138.636719 L 375.988281 128.128906 L 391.46875 123.113281 L 396.734375 141.378906 C 396.949219 142.117188 397.039062 142.867188 397.007812 143.636719 C 396.972656 144.402344 396.824219 145.144531 396.550781 145.863281 C 396.277344 146.582031 395.898438 147.238281 395.410156 147.832031 C 394.925781 148.425781 394.359375 148.929688 393.707031 149.339844 L 351.398438 176.101562 C 351.40625 176.730469 351.355469 177.351562 351.238281 177.96875 C 351.121094 178.585938 350.945312 179.183594 350.710938 179.765625 C 350.472656 180.347656 350.179688 180.898438 349.832031 181.421875 C 349.480469 181.941406 349.085938 182.425781 348.636719 182.867188 C 348.191406 183.308594 347.707031 183.699219 347.179688 184.042969 C 346.65625 184.386719 346.101562 184.675781 345.515625 184.90625 C 344.933594 185.136719 344.332031 185.308594 343.714844 185.417969 C 343.097656 185.527344 342.472656 185.574219 341.84375 185.558594 C 341.21875 185.542969 340.597656 185.464844 339.984375 185.324219 C 339.375 185.179688 338.78125 184.980469 338.210938 184.71875 C 337.640625 184.457031 337.101562 184.144531 336.59375 183.773438 C 336.085938 183.402344 335.621094 182.988281 335.199219 182.523438 C 334.777344 182.058594 334.402344 181.558594 334.082031 181.019531 C 333.761719 180.480469 333.496094 179.914062 333.289062 179.320312 C 333.082031 178.730469 332.9375 178.121094 332.851562 177.5 C 332.765625 176.878906 332.746094 176.253906 332.789062 175.628906 C 332.832031 175 332.933594 174.386719 333.101562 173.78125 C 333.269531 173.175781 333.492188 172.59375 333.777344 172.03125 C 334.0625 171.472656 334.398438 170.949219 334.789062 170.457031 C 335.179688 169.964844 335.617188 169.519531 336.097656 169.113281 C 336.578125 168.710938 337.09375 168.359375 337.648438 168.0625 C 338.199219 167.761719 338.777344 167.523438 339.375 167.339844 C 339.976562 167.15625 340.589844 167.039062 341.214844 166.980469 C 341.839844 166.921875 342.464844 166.925781 343.089844 166.992188 Z M 343.089844 166.992188 " fill-opacity="1" fill-rule="nonzero"/><path fill="#3f3d56" d="M 378.027344 89.875 C 382.65625 88.578125 387.277344 92.097656 388.824219 98.09375 L 396.253906 126.859375 C 396.8125 129.015625 395.730469 131.308594 394.039062 131.550781 L 374.246094 134.398438 C 372.722656 134.617188 371.378906 133.054688 371.324219 131 L 370.554688 102.691406 C 370.386719 96.542969 373.546875 91.128906 378.027344 89.875 Z M 378.027344 89.875 " fill-opacity="1" fill-rule="nonzero"/><path fill="#cccccc" d="M 644.117188 273.632812 C 634.949219 261.445312 627.824219 248.15625 622.75 233.777344 C 622.605469 233.347656 622.535156 232.910156 622.546875 232.457031 C 622.554688 232.003906 622.644531 231.570312 622.808594 231.148438 C 622.972656 230.726562 623.207031 230.347656 623.507812 230.011719 C 623.804688 229.671875 624.15625 229.394531 624.554688 229.183594 L 655.742188 212.476562 C 656.253906 212.203125 656.800781 212.050781 657.378906 212.027344 C 657.960938 212.003906 658.515625 212.109375 659.050781 212.34375 C 659.589844 212.578125 660.054688 212.921875 660.4375 213.371094 C 660.820312 213.820312 661.085938 214.328125 661.234375 214.902344 C 663.046875 221.789062 665.640625 228.375 669.003906 234.652344 C 672.371094 240.933594 676.421875 246.734375 681.152344 252.0625 C 681.546875 252.5 681.824219 253.003906 681.988281 253.570312 C 682.148438 254.140625 682.179688 254.714844 682.074219 255.296875 C 681.972656 255.867188 681.753906 256.386719 681.414062 256.859375 C 681.070312 257.328125 680.644531 257.699219 680.132812 257.972656 L 648.941406 274.675781 C 648.542969 274.890625 648.121094 275.027344 647.671875 275.089844 C 647.222656 275.152344 646.777344 275.136719 646.335938 275.039062 C 645.894531 274.945312 645.484375 274.777344 645.101562 274.535156 C 644.71875 274.292969 644.390625 273.992188 644.117188 273.632812 Z M 644.117188 273.632812 " fill-opacity="1" fill-rule="nonzero"/><path fill="#ffffff" d="M 646.246094 272.035156 C 646.417969 272.25 646.640625 272.386719 646.910156 272.441406 C 647.179688 272.5 647.4375 272.460938 647.683594 272.332031 L 678.875 255.625 C 679.199219 255.457031 679.390625 255.191406 679.453125 254.832031 C 679.523438 254.449219 679.425781 254.117188 679.164062 253.832031 C 674.292969 248.347656 670.125 242.375 666.660156 235.910156 C 663.195312 229.445312 660.527344 222.667969 658.65625 215.578125 C 658.566406 215.199219 658.339844 214.9375 657.984375 214.78125 C 657.648438 214.632812 657.320312 214.644531 657 214.824219 L 625.8125 231.527344 C 625.566406 231.660156 625.394531 231.855469 625.289062 232.109375 C 625.1875 232.367188 625.175781 232.628906 625.261719 232.890625 C 630.246094 247.015625 637.238281 260.0625 646.246094 272.035156 Z M 646.246094 272.035156 " fill-opacity="1" fill-rule="nonzero"/><path fill="#cccccc" d="M 657.789062 236.316406 L 640.804688 243.8125 C 640.480469 243.953125 640.140625 244.027344 639.789062 244.035156 C 639.4375 244.042969 639.09375 243.984375 638.765625 243.859375 C 638.4375 243.730469 638.144531 243.542969 637.890625 243.300781 C 637.632812 243.058594 637.433594 242.773438 637.292969 242.453125 L 636.871094 241.5 C 636.730469 241.179688 636.65625 240.839844 636.648438 240.488281 C 636.640625 240.132812 636.699219 239.792969 636.828125 239.464844 C 636.953125 239.136719 637.140625 238.84375 637.382812 238.589844 C 637.625 238.332031 637.910156 238.132812 638.234375 237.992188 L 655.21875 230.496094 C 655.542969 230.355469 655.882812 230.277344 656.234375 230.269531 C 656.585938 230.261719 656.925781 230.324219 657.257812 230.449219 C 657.585938 230.578125 657.878906 230.761719 658.132812 231.007812 C 658.390625 231.25 658.585938 231.535156 658.730469 231.855469 L 659.152344 232.808594 C 659.292969 233.128906 659.367188 233.46875 659.375 233.820312 C 659.382812 234.171875 659.324219 234.515625 659.195312 234.84375 C 659.070312 235.171875 658.882812 235.464844 658.640625 235.71875 C 658.394531 235.976562 658.113281 236.175781 657.789062 236.316406 Z M 657.789062 236.316406 " fill-opacity="1" fill-rule="nonzero"/><path fill="#cccccc" d="M 664.003906 247.847656 L 647.015625 255.34375 C 646.691406 255.484375 646.355469 255.5625 646 255.570312 C 645.648438 255.578125 645.308594 255.515625 644.980469 255.390625 C 644.648438 255.261719 644.355469 255.078125 644.101562 254.832031 C 643.847656 254.589844 643.648438 254.304688 643.503906 253.984375 L 643.085938 253.03125 C 642.941406 252.710938 642.867188 252.371094 642.859375 252.019531 C 642.851562 251.667969 642.910156 251.324219 643.039062 250.996094 C 643.167969 250.667969 643.351562 250.375 643.59375 250.121094 C 643.839844 249.863281 644.121094 249.664062 644.445312 249.523438 L 661.433594 242.027344 C 661.753906 241.886719 662.09375 241.8125 662.445312 241.804688 C 662.796875 241.796875 663.140625 241.855469 663.46875 241.980469 C 663.796875 242.109375 664.089844 242.296875 664.34375 242.539062 C 664.601562 242.78125 664.800781 243.066406 664.941406 243.386719 L 665.363281 244.339844 C 665.503906 244.660156 665.582031 245 665.589844 245.351562 C 665.597656 245.707031 665.535156 246.046875 665.410156 246.375 C 665.28125 246.703125 665.097656 246.996094 664.851562 247.25 C 664.609375 247.507812 664.324219 247.707031 664.003906 247.847656 Z M 664.003906 247.847656 " fill-opacity="1" fill-rule="nonzero"/><path fill="#a0616a" d="M 624.160156 238.238281 C 623.574219 237.863281 623.039062 237.425781 622.546875 236.933594 C 622.058594 236.4375 621.625 235.894531 621.253906 235.304688 C 620.882812 234.714844 620.578125 234.09375 620.34375 233.4375 C 620.109375 232.78125 619.949219 232.109375 619.859375 231.417969 C 619.773438 230.726562 619.761719 230.035156 619.828125 229.339844 C 619.890625 228.648438 620.03125 227.96875 620.246094 227.304688 C 620.457031 226.644531 620.742188 226.011719 621.09375 225.410156 C 621.445312 224.808594 621.859375 224.253906 622.332031 223.742188 L 615.167969 122.121094 L 635.804688 124.125 L 636.371094 223.640625 C 636.769531 224.0625 637.128906 224.519531 637.445312 225.003906 C 637.761719 225.492188 638.03125 226.007812 638.253906 226.542969 C 638.476562 227.082031 638.648438 227.632812 638.769531 228.203125 C 638.894531 228.769531 638.964844 229.34375 638.980469 229.925781 C 638.996094 230.507812 638.960938 231.085938 638.875 231.660156 C 638.789062 232.234375 638.648438 232.796875 638.457031 233.347656 C 638.269531 233.898438 638.03125 234.425781 637.742188 234.929688 C 637.457031 235.4375 637.128906 235.914062 636.753906 236.359375 C 636.382812 236.804688 635.972656 237.214844 635.523438 237.585938 C 635.074219 237.957031 634.597656 238.285156 634.089844 238.570312 C 633.582031 238.855469 633.054688 239.089844 632.503906 239.28125 C 631.953125 239.46875 631.390625 239.605469 630.816406 239.691406 C 630.238281 239.777344 629.660156 239.808594 629.082031 239.789062 C 628.5 239.773438 627.921875 239.699219 627.355469 239.574219 C 626.785156 239.453125 626.234375 239.277344 625.699219 239.054688 C 625.160156 238.828125 624.648438 238.558594 624.160156 238.238281 Z M 624.160156 238.238281 " fill-opacity="1" fill-rule="nonzero"/><path fill="#3f3d56" d="M 619.839844 156.269531 C 619.351562 155.917969 618.960938 155.476562 618.671875 154.949219 C 618.382812 154.417969 618.222656 153.855469 618.191406 153.25 L 616.675781 125.863281 C 616.640625 125.191406 616.664062 124.519531 616.75 123.851562 C 616.835938 123.183594 616.984375 122.527344 617.191406 121.886719 C 617.398438 121.246094 617.660156 120.628906 617.980469 120.035156 C 618.300781 119.445312 618.671875 118.882812 619.09375 118.359375 C 619.515625 117.835938 619.984375 117.351562 620.496094 116.914062 C 621.007812 116.476562 621.554688 116.085938 622.136719 115.75 C 622.71875 115.410156 623.328125 115.128906 623.960938 114.902344 C 624.597656 114.675781 625.246094 114.507812 625.910156 114.398438 C 626.578125 114.292969 627.246094 114.246094 627.921875 114.261719 C 628.59375 114.277344 629.261719 114.355469 629.921875 114.492188 C 630.582031 114.632812 631.222656 114.828125 631.84375 115.085938 C 632.46875 115.339844 633.0625 115.652344 633.628906 116.015625 C 634.195312 116.382812 634.726562 116.796875 635.214844 117.257812 C 635.707031 117.71875 636.148438 118.222656 636.546875 118.765625 C 636.945312 119.3125 637.289062 119.886719 637.582031 120.492188 C 637.875 121.101562 638.109375 121.730469 638.285156 122.378906 L 644.925781 146.867188 C 644.996094 147.121094 645.039062 147.375 645.054688 147.636719 C 645.074219 147.898438 645.066406 148.160156 645.03125 148.421875 C 644.996094 148.679688 644.9375 148.933594 644.855469 149.183594 C 644.773438 149.429688 644.664062 149.667969 644.535156 149.894531 C 644.402344 150.125 644.253906 150.335938 644.082031 150.535156 C 643.910156 150.730469 643.71875 150.910156 643.511719 151.070312 C 643.304688 151.230469 643.082031 151.367188 642.847656 151.484375 C 642.613281 151.601562 642.371094 151.695312 642.117188 151.765625 L 623.222656 156.882812 C 622.640625 157.042969 622.054688 157.070312 621.460938 156.960938 C 620.867188 156.851562 620.328125 156.621094 619.839844 156.269531 Z M 619.839844 156.269531 " fill-opacity="1" fill-rule="nonzero"/><path fill="#a0616a" d="M 584.667969 363.171875 L 573.789062 363.171875 L 568.613281 321.222656 L 584.667969 321.222656 Z M 584.667969 363.171875 " fill-opacity="1" fill-rule="nonzero"/><path fill="#2f2e41" d="M 566.015625 360.0625 L 587 360.0625 L 587 373.269531 L 552.804688 373.269531 C 552.804688 372.402344 552.890625 371.542969 553.058594 370.691406 C 553.226562 369.84375 553.480469 369.015625 553.8125 368.214844 C 554.144531 367.414062 554.550781 366.652344 555.03125 365.933594 C 555.515625 365.210938 556.0625 364.542969 556.675781 363.929688 C 557.289062 363.316406 557.957031 362.769531 558.675781 362.289062 C 559.398438 361.808594 560.160156 361.402344 560.960938 361.070312 C 561.761719 360.738281 562.589844 360.488281 563.4375 360.316406 C 564.289062 360.148438 565.148438 360.0625 566.015625 360.0625 Z M 566.015625 360.0625 " fill-opacity="1" fill-rule="nonzero"/><path fill="#a0616a" d="M 625.492188 363.171875 L 614.609375 363.171875 L 609.433594 321.222656 L 625.492188 321.222656 Z M 625.492188 363.171875 " fill-opacity="1" fill-rule="nonzero"/><path fill="#2f2e41" d="M 606.839844 360.0625 L 627.820312 360.0625 L 627.820312 373.269531 L 593.628906 373.269531 C 593.628906 372.402344 593.710938 371.542969 593.882812 370.691406 C 594.050781 369.84375 594.300781 369.015625 594.632812 368.214844 C 594.964844 367.414062 595.371094 366.652344 595.855469 365.933594 C 596.335938 365.210938 596.882812 364.542969 597.496094 363.929688 C 598.109375 363.316406 598.777344 362.769531 599.5 362.289062 C 600.222656 361.808594 600.980469 361.402344 601.785156 361.070312 C 602.585938 360.738281 603.410156 360.488281 604.261719 360.316406 C 605.113281 360.148438 605.972656 360.0625 606.839844 360.0625 Z M 606.839844 360.0625 " fill-opacity="1" fill-rule="nonzero"/><path fill="#2f2e41" d="M 584.152344 342.039062 L 572.175781 341.46875 C 571.667969 341.445312 571.179688 341.328125 570.714844 341.113281 C 570.25 340.902344 569.839844 340.613281 569.484375 340.246094 C 569.132812 339.878906 568.859375 339.457031 568.667969 338.984375 C 568.476562 338.511719 568.375 338.019531 568.375 337.507812 C 565.214844 288.792969 560.84375 236.554688 567.539062 216.375 C 567.535156 216.089844 567.5625 215.804688 567.625 215.523438 C 567.683594 215.242188 567.773438 214.96875 567.890625 214.707031 C 568.007812 214.445312 568.152344 214.199219 568.324219 213.96875 C 568.496094 213.738281 568.691406 213.527344 568.90625 213.339844 C 569.125 213.148438 569.359375 212.984375 569.609375 212.847656 C 569.863281 212.710938 570.128906 212.601562 570.402344 212.519531 C 570.679688 212.4375 570.960938 212.386719 571.246094 212.367188 C 571.535156 212.34375 571.820312 212.355469 572.105469 212.398438 L 620.019531 219.351562 C 620.496094 219.414062 620.941406 219.5625 621.363281 219.789062 C 621.78125 220.019531 622.148438 220.3125 622.464844 220.671875 C 622.777344 221.03125 623.019531 221.4375 623.1875 221.882812 C 623.355469 222.332031 623.441406 222.792969 623.441406 223.269531 C 629.558594 247.164062 629.835938 290.492188 629.605469 335.511719 C 629.605469 335.777344 629.582031 336.039062 629.53125 336.296875 C 629.484375 336.554688 629.40625 336.804688 629.308594 337.050781 C 629.210938 337.292969 629.085938 337.527344 628.941406 337.746094 C 628.796875 337.964844 628.628906 338.167969 628.445312 338.355469 C 628.257812 338.542969 628.058594 338.710938 627.839844 338.855469 C 627.621094 339.003906 627.390625 339.128906 627.144531 339.230469 C 626.902344 339.328125 626.652344 339.40625 626.394531 339.457031 C 626.136719 339.507812 625.875 339.535156 625.609375 339.535156 L 612.699219 339.535156 C 612.222656 339.539062 611.761719 339.457031 611.3125 339.292969 C 610.867188 339.128906 610.460938 338.890625 610.097656 338.582031 C 609.738281 338.273438 609.441406 337.910156 609.207031 337.492188 C 608.976562 337.078125 608.824219 336.632812 608.753906 336.164062 L 600.785156 285.542969 C 600.726562 285.171875 600.605469 284.824219 600.421875 284.496094 C 600.238281 284.171875 600.003906 283.886719 599.714844 283.644531 C 599.425781 283.40625 599.105469 283.222656 598.753906 283.097656 C 598.398438 282.972656 598.035156 282.914062 597.660156 282.917969 C 597.285156 282.925781 596.925781 283 596.574219 283.136719 C 596.226562 283.273438 595.914062 283.46875 595.632812 283.722656 C 595.355469 283.972656 595.132812 284.265625 594.957031 284.597656 C 594.785156 284.929688 594.679688 285.285156 594.632812 285.65625 L 588.308594 338.527344 C 588.25 339.011719 588.105469 339.46875 587.878906 339.902344 C 587.652344 340.332031 587.355469 340.710938 586.992188 341.035156 C 586.625 341.359375 586.214844 341.605469 585.761719 341.78125 C 585.304688 341.953125 584.832031 342.042969 584.34375 342.042969 C 584.28125 342.042969 584.21875 342.042969 584.152344 342.039062 Z M 584.152344 342.039062 " fill-opacity="1" fill-rule="nonzero"/><path fill="#3f3d56" d="M 592.585938 223.277344 C 582.027344 217.410156 573.773438 215.871094 569.796875 215.472656 C 568.679688 215.367188 567.777344 214.871094 567.085938 213.988281 C 566.378906 213.101562 566.105469 212.097656 566.261719 210.972656 L 577.742188 125.769531 C 577.90625 124.527344 578.148438 123.304688 578.46875 122.09375 C 578.789062 120.882812 579.1875 119.699219 579.660156 118.539062 C 580.128906 117.378906 580.675781 116.253906 581.289062 115.164062 C 581.90625 114.074219 582.585938 113.027344 583.335938 112.023438 C 584.085938 111.019531 584.894531 110.066406 585.765625 109.167969 C 586.636719 108.265625 587.558594 107.425781 588.535156 106.640625 C 589.515625 105.859375 590.539062 105.140625 591.605469 104.488281 C 592.675781 103.835938 593.78125 103.253906 594.925781 102.746094 C 596.03125 102.234375 597.167969 101.800781 598.328125 101.433594 C 599.492188 101.070312 600.671875 100.78125 601.871094 100.570312 C 603.070312 100.355469 604.277344 100.21875 605.496094 100.160156 C 606.710938 100.097656 607.925781 100.117188 609.140625 100.210938 C 610.355469 100.308594 611.558594 100.480469 612.75 100.726562 C 613.941406 100.976562 615.113281 101.300781 616.265625 101.695312 C 617.417969 102.09375 618.539062 102.5625 619.628906 103.105469 C 620.722656 103.644531 621.773438 104.253906 622.789062 104.925781 C 623.179688 105.1875 623.566406 105.457031 623.945312 105.726562 C 625.113281 106.582031 626.207031 107.515625 627.238281 108.53125 C 628.265625 109.546875 629.214844 110.632812 630.082031 111.789062 C 630.949219 112.941406 631.730469 114.15625 632.417969 115.425781 C 633.109375 116.695312 633.703125 118.007812 634.199219 119.367188 C 634.695312 120.722656 635.089844 122.109375 635.378906 123.523438 C 635.671875 124.9375 635.859375 126.367188 635.941406 127.808594 C 636.023438 129.253906 635.996094 130.691406 635.867188 132.132812 C 635.734375 133.570312 635.5 134.992188 635.160156 136.398438 C 628.121094 165.1875 625.699219 212.382812 625.289062 221.554688 C 625.269531 221.945312 625.199219 222.324219 625.070312 222.695312 C 624.941406 223.0625 624.761719 223.40625 624.53125 223.722656 C 624.300781 224.039062 624.027344 224.3125 623.71875 224.550781 C 623.40625 224.785156 623.066406 224.972656 622.699219 225.105469 C 618.332031 226.691406 613.828125 227.492188 609.1875 227.511719 C 606.285156 227.527344 603.425781 227.179688 600.613281 226.460938 C 597.800781 225.742188 595.125 224.679688 592.585938 223.277344 Z M 592.585938 223.277344 " fill-opacity="1" fill-rule="nonzero"/><path fill="#a0616a" d="M 623.984375 69.386719 C 623.984375 70.101562 623.949219 70.8125 623.878906 71.523438 C 623.8125 72.234375 623.707031 72.9375 623.566406 73.640625 C 623.425781 74.339844 623.253906 75.03125 623.046875 75.710938 C 622.839844 76.394531 622.601562 77.066406 622.328125 77.726562 C 622.054688 78.386719 621.75 79.03125 621.410156 79.660156 C 621.074219 80.289062 620.707031 80.898438 620.3125 81.492188 C 619.914062 82.085938 619.492188 82.660156 619.039062 83.210938 C 618.585938 83.761719 618.105469 84.289062 617.601562 84.792969 C 617.097656 85.296875 616.570312 85.777344 616.015625 86.230469 C 615.464844 86.683594 614.890625 87.105469 614.296875 87.503906 C 613.703125 87.898438 613.09375 88.265625 612.464844 88.601562 C 611.835938 88.9375 611.191406 89.242188 610.53125 89.515625 C 609.871094 89.789062 609.199219 90.03125 608.515625 90.238281 C 607.832031 90.445312 607.140625 90.617188 606.441406 90.757812 C 605.742188 90.894531 605.035156 91 604.324219 91.070312 C 603.613281 91.140625 602.902344 91.175781 602.1875 91.175781 C 601.476562 91.175781 600.761719 91.140625 600.050781 91.070312 C 599.34375 91 598.636719 90.894531 597.9375 90.757812 C 597.238281 90.617188 596.542969 90.445312 595.863281 90.238281 C 595.179688 90.03125 594.507812 89.789062 593.847656 89.515625 C 593.1875 89.242188 592.542969 88.9375 591.914062 88.601562 C 591.285156 88.265625 590.671875 87.898438 590.078125 87.503906 C 589.484375 87.105469 588.914062 86.683594 588.359375 86.230469 C 587.808594 85.777344 587.28125 85.296875 586.777344 84.792969 C 586.273438 84.289062 585.792969 83.761719 585.339844 83.210938 C 584.886719 82.660156 584.460938 82.085938 584.066406 81.492188 C 583.667969 80.898438 583.300781 80.289062 582.964844 79.660156 C 582.628906 79.03125 582.324219 78.386719 582.050781 77.726562 C 581.777344 77.066406 581.539062 76.394531 581.332031 75.710938 C 581.125 75.03125 580.949219 74.339844 580.8125 73.640625 C 580.671875 72.9375 580.566406 72.234375 580.496094 71.523438 C 580.425781 70.8125 580.390625 70.101562 580.390625 69.386719 C 580.390625 68.675781 580.425781 67.964844 580.496094 67.253906 C 580.566406 66.542969 580.671875 65.835938 580.8125 65.136719 C 580.949219 64.4375 581.125 63.746094 581.332031 63.0625 C 581.539062 62.382812 581.777344 61.710938 582.050781 61.050781 C 582.324219 60.390625 582.628906 59.746094 582.964844 59.117188 C 583.300781 58.488281 583.667969 57.878906 584.066406 57.285156 C 584.460938 56.691406 584.886719 56.117188 585.339844 55.566406 C 585.792969 55.015625 586.273438 54.488281 586.777344 53.984375 C 587.28125 53.476562 587.808594 53 588.359375 52.546875 C 588.914062 52.09375 589.484375 51.667969 590.078125 51.273438 C 590.671875 50.875 591.285156 50.511719 591.914062 50.175781 C 592.542969 49.835938 593.1875 49.53125 593.847656 49.261719 C 594.507812 48.988281 595.179688 48.746094 595.863281 48.539062 C 596.542969 48.332031 597.238281 48.160156 597.9375 48.019531 C 598.636719 47.878906 599.34375 47.777344 600.050781 47.707031 C 600.761719 47.636719 601.476562 47.601562 602.1875 47.601562 C 602.902344 47.601562 603.613281 47.636719 604.324219 47.707031 C 605.035156 47.777344 605.742188 47.878906 606.441406 48.019531 C 607.140625 48.160156 607.832031 48.332031 608.515625 48.539062 C 609.199219 48.746094 609.871094 48.988281 610.53125 49.261719 C 611.191406 49.53125 611.835938 49.835938 612.464844 50.175781 C 613.09375 50.511719 613.703125 50.875 614.296875 51.273438 C 614.890625 51.667969 615.464844 52.09375 616.015625 52.546875 C 616.570312 53 617.097656 53.476562 617.601562 53.984375 C 618.105469 54.488281 618.585938 55.015625 619.039062 55.566406 C 619.492188 56.117188 619.914062 56.691406 620.3125 57.285156 C 620.707031 57.878906 621.074219 58.488281 621.410156 59.117188 C 621.75 59.746094 622.054688 60.390625 622.328125 61.050781 C 622.601562 61.710938 622.839844 62.382812 623.046875 63.0625 C 623.253906 63.746094 623.425781 64.4375 623.566406 65.136719 C 623.707031 65.835938 623.8125 66.542969 623.878906 67.253906 C 623.949219 67.964844 623.984375 68.675781 623.984375 69.386719 Z M 623.984375 69.386719 " fill-opacity="1" fill-rule="nonzero"/><path fill="#2f2e41" d="M 617.613281 86.625 C 613.546875 90.953125 605.996094 88.628906 605.464844 82.714844 C 605.425781 82.253906 605.425781 81.796875 605.476562 81.335938 C 605.75 78.714844 607.261719 76.335938 606.898438 73.570312 C 606.816406 72.871094 606.570312 72.234375 606.15625 71.664062 C 602.914062 67.328125 595.308594 73.605469 592.25 69.679688 C 590.375 67.269531 592.578125 63.480469 591.140625 60.789062 C 589.242188 57.238281 583.617188 58.988281 580.089844 57.046875 C 576.164062 54.882812 576.398438 48.863281 578.980469 45.199219 C 582.132812 40.734375 587.65625 38.351562 593.113281 38.007812 C 598.566406 37.667969 603.988281 39.140625 609.078125 41.125 C 614.867188 43.378906 620.605469 46.492188 624.167969 51.582031 C 628.5 57.765625 628.914062 66.082031 626.75 73.316406 C 625.429688 77.714844 620.933594 83.089844 617.613281 86.625 Z M 617.613281 86.625 " fill-opacity="1" fill-rule="nonzero"/><path fill="#ffffff" d="M 634.875 107.808594 C 634.492188 106.015625 631.21875 103.566406 626.535156 101.570312 C 624.65625 100.8125 622.742188 100.164062 620.789062 99.628906 C 618.835938 99.09375 616.859375 98.675781 614.859375 98.375 C 612.855469 98.074219 610.84375 97.890625 608.820312 97.824219 C 606.796875 97.761719 604.777344 97.816406 602.757812 97.988281 C 600.742188 98.160156 598.742188 98.449219 596.757812 98.859375 C 594.777344 99.265625 592.824219 99.789062 590.902344 100.429688 C 588.980469 101.066406 587.105469 101.8125 585.269531 102.671875 C 583.4375 103.53125 581.660156 104.496094 579.941406 105.5625 C 579.449219 105.589844 579.011719 105.761719 578.632812 106.085938 C 578.257812 106.40625 578.015625 106.808594 577.910156 107.292969 L 562.148438 176.972656 L 560.097656 186.046875 L 558.742188 192.050781 L 556.691406 201.097656 L 555.597656 205.933594 C 555.527344 206.246094 555.527344 206.558594 555.589844 206.871094 C 555.65625 207.1875 555.78125 207.472656 555.972656 207.730469 C 556.160156 207.992188 556.394531 208.199219 556.671875 208.359375 C 556.953125 208.515625 557.25 208.609375 557.570312 208.640625 L 625.628906 214.511719 C 625.691406 214.511719 625.761719 214.519531 625.824219 214.519531 C 626.105469 214.519531 626.375 214.464844 626.636719 214.359375 C 626.894531 214.257812 627.128906 214.109375 627.332031 213.914062 C 627.535156 213.722656 627.699219 213.5 627.816406 213.246094 C 627.9375 212.992188 628.007812 212.722656 628.023438 212.445312 L 628.671875 202.589844 L 629.363281 192.050781 L 629.664062 187.480469 L 630.347656 176.972656 L 634.882812 107.921875 L 634.882812 107.859375 Z M 634.875 107.808594 " fill-opacity="1" fill-rule="nonzero"/><path fill="#a0616a" d="M 523.203125 112.191406 C 523.3125 112.671875 523.382812 113.15625 523.414062 113.648438 L 561.539062 135.628906 L 570.804688 130.296875 L 580.683594 143.226562 L 560.859375 157.347656 L 517.367188 123.050781 C 516.777344 123.269531 516.175781 123.425781 515.554688 123.523438 C 514.933594 123.617188 514.308594 123.648438 513.683594 123.621094 C 513.054688 123.589844 512.4375 123.496094 511.828125 123.339844 C 511.222656 123.183594 510.632812 122.96875 510.070312 122.695312 C 509.503906 122.421875 508.972656 122.09375 508.476562 121.714844 C 507.976562 121.332031 507.519531 120.90625 507.109375 120.433594 C 506.695312 119.957031 506.335938 119.449219 506.027344 118.902344 C 505.71875 118.355469 505.464844 117.785156 505.273438 117.1875 C 505.078125 116.589844 504.949219 115.980469 504.878906 115.355469 C 504.808594 114.734375 504.800781 114.109375 504.859375 113.484375 C 504.914062 112.859375 505.03125 112.246094 505.214844 111.644531 C 505.394531 111.042969 505.632812 110.46875 505.929688 109.914062 C 506.226562 109.359375 506.574219 108.84375 506.976562 108.363281 C 507.378906 107.878906 507.824219 107.441406 508.316406 107.050781 C 508.804688 106.65625 509.332031 106.320312 509.890625 106.03125 C 510.449219 105.746094 511.03125 105.519531 511.632812 105.351562 C 512.238281 105.183594 512.855469 105.078125 513.480469 105.03125 C 514.105469 104.988281 514.730469 105.007812 515.355469 105.089844 C 515.976562 105.171875 516.585938 105.316406 517.175781 105.519531 C 517.769531 105.726562 518.335938 105.988281 518.878906 106.308594 C 519.417969 106.625 519.921875 106.996094 520.386719 107.417969 C 520.851562 107.839844 521.269531 108.300781 521.640625 108.808594 C 522.015625 109.3125 522.332031 109.851562 522.59375 110.421875 C 522.855469 110.992188 523.058594 111.582031 523.203125 112.191406 Z M 523.203125 112.191406 " fill-opacity="1" fill-rule="nonzero"/><path fill="#3f3d56" d="M 562.898438 133.761719 C 562.835938 133.164062 562.902344 132.578125 563.105469 132.011719 C 563.304688 131.441406 563.621094 130.945312 564.046875 130.519531 L 583.449219 111.121094 C 583.925781 110.644531 584.441406 110.214844 584.996094 109.835938 C 585.554688 109.453125 586.140625 109.125 586.753906 108.851562 C 587.371094 108.578125 588.007812 108.363281 588.660156 108.203125 C 589.316406 108.046875 589.980469 107.949219 590.652344 107.914062 C 591.328125 107.878906 591.996094 107.90625 592.664062 107.996094 C 593.332031 108.082031 593.988281 108.230469 594.628906 108.4375 C 595.269531 108.644531 595.886719 108.910156 596.480469 109.230469 C 597.070312 109.554688 597.628906 109.925781 598.152344 110.351562 C 598.675781 110.773438 599.160156 111.242188 599.597656 111.753906 C 600.035156 112.265625 600.421875 112.8125 600.757812 113.398438 C 601.097656 113.980469 601.378906 114.589844 601.601562 115.226562 C 601.828125 115.859375 601.992188 116.511719 602.097656 117.175781 C 602.203125 117.839844 602.246094 118.511719 602.230469 119.183594 C 602.214844 119.855469 602.132812 120.523438 601.996094 121.183594 C 601.855469 121.839844 601.65625 122.480469 601.398438 123.105469 C 601.140625 123.726562 600.828125 124.320312 600.460938 124.886719 L 586.644531 146.167969 C 586.5 146.386719 586.335938 146.589844 586.152344 146.777344 C 585.972656 146.964844 585.773438 147.132812 585.554688 147.28125 C 585.339844 147.429688 585.109375 147.558594 584.871094 147.660156 C 584.628906 147.765625 584.378906 147.84375 584.125 147.898438 C 583.867188 147.953125 583.609375 147.980469 583.347656 147.984375 C 583.085938 147.988281 582.824219 147.964844 582.566406 147.917969 C 582.308594 147.871094 582.058594 147.800781 581.816406 147.703125 C 581.570312 147.605469 581.339844 147.484375 581.121094 147.34375 L 564.699219 136.691406 C 564.191406 136.363281 563.78125 135.945312 563.464844 135.429688 C 563.152344 134.917969 562.960938 134.359375 562.898438 133.761719 Z M 562.898438 133.761719 " fill-opacity="1" fill-rule="nonzero"/><path fill="#cccccc" d="M 630.347656 176.972656 L 629.664062 187.480469 L 560.097656 186.046875 L 562.148438 176.972656 Z M 630.347656 176.972656 " fill-opacity="1" fill-rule="nonzero"/><path fill="#cccccc" d="M 629.363281 192.050781 L 628.671875 202.589844 L 556.691406 201.097656 L 558.742188 192.050781 Z M 629.363281 192.050781 " fill-opacity="1" fill-rule="nonzero"/><path fill="#ffffff" d="M 602.617188 27.058594 C 601.703125 27.058594 600.796875 27.101562 599.886719 27.191406 C 598.980469 27.277344 598.082031 27.410156 597.1875 27.582031 C 596.292969 27.757812 595.40625 27.972656 594.535156 28.234375 C 593.660156 28.492188 592.800781 28.792969 591.957031 29.136719 C 591.109375 29.476562 590.285156 29.859375 589.476562 30.28125 C 588.667969 30.703125 587.882812 31.164062 587.121094 31.660156 C 586.355469 32.15625 585.617188 32.691406 584.90625 33.257812 C 584.195312 33.828125 583.511719 34.429688 582.855469 35.0625 C 582.203125 35.695312 581.578125 36.359375 580.988281 37.054688 C 580.398438 37.75 579.84375 38.46875 579.320312 39.21875 C 578.800781 39.964844 578.316406 40.734375 577.871094 41.53125 C 577.421875 42.324219 577.015625 43.136719 576.648438 43.96875 C 576.28125 44.804688 575.953125 45.652344 575.664062 46.519531 C 575.378906 47.382812 575.136719 48.257812 574.933594 49.148438 C 574.730469 50.035156 574.570312 50.933594 574.457031 51.835938 C 574.339844 52.738281 574.269531 53.644531 574.242188 54.558594 L 568.894531 54.558594 C 568.65625 54.558594 568.429688 54.601562 568.214844 54.691406 C 567.996094 54.78125 567.804688 54.910156 567.636719 55.078125 C 567.472656 55.242188 567.34375 55.433594 567.253906 55.652344 C 567.164062 55.871094 567.117188 56.09375 567.117188 56.332031 L 567.117188 63.425781 C 567.117188 63.664062 567.164062 63.890625 567.253906 64.105469 C 567.34375 64.324219 567.472656 64.515625 567.636719 64.683594 C 567.804688 64.847656 567.996094 64.976562 568.214844 65.066406 C 568.429688 65.15625 568.65625 65.203125 568.894531 65.203125 L 629.238281 65.203125 C 629.476562 65.203125 629.703125 65.15625 629.917969 65.066406 C 630.136719 64.976562 630.328125 64.847656 630.496094 64.683594 C 630.660156 64.515625 630.789062 64.324219 630.878906 64.105469 C 630.96875 63.890625 631.015625 63.664062 631.015625 63.425781 L 631.015625 55.445312 C 631.015625 54.515625 630.96875 53.585938 630.878906 52.660156 C 630.785156 51.738281 630.652344 50.816406 630.46875 49.90625 C 630.289062 48.996094 630.0625 48.09375 629.792969 47.203125 C 629.523438 46.3125 629.210938 45.441406 628.851562 44.582031 C 628.496094 43.722656 628.101562 42.882812 627.660156 42.0625 C 627.222656 41.242188 626.746094 40.445312 626.230469 39.671875 C 625.710938 38.902344 625.160156 38.15625 624.570312 37.4375 C 623.980469 36.71875 623.355469 36.03125 622.695312 35.371094 C 622.039062 34.714844 621.351562 34.089844 620.632812 33.5 C 619.914062 32.910156 619.167969 32.359375 618.394531 31.84375 C 617.621094 31.324219 616.824219 30.847656 616.003906 30.410156 C 615.183594 29.972656 614.34375 29.574219 613.484375 29.21875 C 612.625 28.863281 611.75 28.550781 610.859375 28.28125 C 609.96875 28.011719 609.070312 27.785156 608.15625 27.601562 C 607.246094 27.421875 606.324219 27.285156 605.398438 27.195312 C 604.472656 27.105469 603.546875 27.058594 602.617188 27.058594 Z M 602.617188 27.058594 " fill-opacity="1" fill-rule="nonzero"/><path fill="#e6e6e6" d="M 159.082031 309.636719 C 157.683594 310.125 156.257812 310.527344 154.808594 310.835938 C 153.359375 311.144531 151.894531 311.359375 150.417969 311.480469 C 148.941406 311.601562 147.460938 311.628906 145.980469 311.558594 C 144.5 311.492188 143.03125 311.328125 141.570312 311.070312 C 140.113281 310.8125 138.675781 310.464844 137.257812 310.023438 C 135.84375 309.582031 134.464844 309.050781 133.117188 308.433594 C 131.769531 307.816406 130.46875 307.113281 129.210938 306.328125 C 127.953125 305.542969 126.753906 304.679688 125.605469 303.742188 C 113.878906 293.90625 110.203125 277.699219 107.214844 262.691406 L 98.367188 218.308594 L 116.890625 231.054688 C 130.210938 240.222656 143.828125 249.6875 153.050781 262.964844 C 162.273438 276.242188 166.300781 294.371094 158.890625 308.738281 " fill-opacity="1" fill-rule="nonzero"/><path fill="#f2f2f2" d="M 157.496094 363.371094 C 159.371094 349.722656 161.300781 335.898438 159.984375 322.101562 C 158.816406 309.851562 155.078125 297.882812 147.464844 288.070312 C 143.390625 282.832031 138.546875 278.445312 132.933594 274.910156 C 131.480469 273.992188 130.144531 276.292969 131.589844 277.207031 C 133.984375 278.71875 136.246094 280.410156 138.375 282.28125 C 140.503906 284.152344 142.472656 286.175781 144.28125 288.359375 C 146.089844 290.539062 147.714844 292.847656 149.15625 295.285156 C 150.601562 297.722656 151.84375 300.257812 152.886719 302.894531 C 157.523438 314.679688 158.269531 327.53125 157.46875 340.054688 C 156.988281 347.628906 155.960938 355.152344 154.929688 362.664062 C 154.890625 362.835938 154.882812 363.007812 154.90625 363.179688 C 154.929688 363.351562 154.988281 363.515625 155.074219 363.667969 C 155.160156 363.816406 155.269531 363.949219 155.40625 364.058594 C 155.542969 364.167969 155.695312 364.25 155.859375 364.300781 C 156.03125 364.347656 156.203125 364.359375 156.378906 364.335938 C 156.554688 364.316406 156.71875 364.261719 156.871094 364.171875 C 157.023438 364.085938 157.15625 363.972656 157.261719 363.835938 C 157.371094 363.695312 157.449219 363.542969 157.5 363.371094 Z M 157.496094 363.371094 " fill-opacity="1" fill-rule="nonzero"/><g clip-path="url(#8aca880616)"><path fill="#e6e6e6" d="M 139.441406 339.21875 C 138.839844 340.128906 138.1875 341 137.472656 341.828125 C 136.761719 342.652344 136.003906 343.429688 135.191406 344.160156 C 134.378906 344.890625 133.523438 345.566406 132.628906 346.183594 C 131.730469 346.804688 130.796875 347.363281 129.828125 347.863281 C 128.855469 348.367188 127.859375 348.800781 126.832031 349.175781 C 125.808594 349.546875 124.761719 349.851562 123.699219 350.089844 C 122.632812 350.328125 121.558594 350.496094 120.472656 350.597656 C 119.386719 350.699219 118.296875 350.730469 117.207031 350.691406 C 105.949219 350.15625 96.566406 342.304688 88.121094 334.847656 L 63.136719 312.796875 L 79.671875 312.007812 C 91.5625 311.4375 103.761719 310.910156 115.085938 314.574219 C 126.414062 318.238281 136.859375 327.0625 138.929688 338.777344 " fill-opacity="1" fill-rule="nonzero"/></g><path fill="#f2f2f2" d="M 162.796875 371.21875 C 153.773438 355.257812 143.304688 337.523438 124.605469 331.855469 C 119.355469 330.269531 114.003906 329.714844 108.542969 330.195312 C 106.835938 330.34375 107.261719 332.96875 108.964844 332.824219 C 111.214844 332.636719 113.464844 332.644531 115.714844 332.839844 C 117.964844 333.039062 120.183594 333.425781 122.367188 334.003906 C 124.550781 334.582031 126.667969 335.339844 128.722656 336.28125 C 130.777344 337.21875 132.734375 338.328125 134.597656 339.601562 C 141.828125 344.519531 147.457031 351.359375 152.21875 358.609375 C 155.136719 363.050781 157.75 367.679688 160.363281 372.300781 C 161.199219 373.78125 163.640625 372.714844 162.796875 371.21875 Z M 162.796875 371.21875 " fill-opacity="1" fill-rule="nonzero"/><g clip-path="url(#9795bfe9c5)"><path fill="#cccccc" d="M 722.246094 374.785156 L 90.382812 374.785156 C 90.136719 374.785156 89.929688 374.699219 89.753906 374.523438 C 89.582031 374.351562 89.496094 374.140625 89.496094 373.898438 C 89.496094 373.652344 89.582031 373.441406 89.753906 373.269531 C 89.929688 373.097656 90.136719 373.011719 90.382812 373.011719 L 722.246094 373.011719 C 722.492188 373.011719 722.703125 373.097656 722.875 373.269531 C 723.046875 373.441406 723.136719 373.652344 723.136719 373.898438 C 723.136719 374.140625 723.046875 374.351562 722.875 374.523438 C 722.703125 374.699219 722.492188 374.785156 722.246094 374.785156 Z M 722.246094 374.785156 " fill-opacity="1" fill-rule="nonzero"/></g></svg>