<?xml version="1.0" encoding="UTF-8"?>
<svg version="1.1" xmlns="http://www.w3.org/2000/svg" width="1000" height="200">
<path d="M0 0 C6.56559811 1.03006339 11.73776992 3.31082018 17.625 6.3125 C33.78085603 14.46713872 50.11708493 22.29172598 66.5703125 29.828125 C69 31 69 31 70 32 C70.08669432 33.4887186 70.10703494 34.981445 70.09765625 36.47265625 C70.09282227 37.82133789 70.09282227 37.82133789 70.08789062 39.19726562 C70.07532227 40.61555664 70.07532227 40.61555664 70.0625 42.0625 C70.05798828 43.01189453 70.05347656 43.96128906 70.04882812 44.93945312 C70.0370011 47.29303065 70.02052025 49.64648477 70 52 C65.38518809 50.55315572 61.00873352 48.74426408 56.6171875 46.734375 C55.57390793 46.26055389 55.57390793 46.26055389 54.509552 45.77716064 C53.04151243 45.10956934 51.57414662 44.44049463 50.10742188 43.77001953 C47.90411712 42.76330395 45.69835436 41.76214386 43.4921875 40.76171875 C42.05453547 40.10710461 40.61703096 39.45216639 39.1796875 38.796875 C38.21807205 38.3605777 38.21807205 38.3605777 37.23703003 37.91546631 C31.07248571 35.09120133 25.07811924 32.03905962 19 29 C19 41.87 19 54.74 19 68 C21.660625 69.175625 24.32125 70.35125 27.0625 71.5625 C35.42572392 75.26898989 43.72757393 79.09561011 52 83 C52.07475339 78.86668269 52.07475339 78.86668269 51 75 C48.2783433 72.83676785 45.24404853 71.75181962 42 70.5625 C40.33299448 69.89798484 38.66631012 69.23266326 37 68.56640625 C36.2575 68.28740479 35.515 68.00840332 34.75 67.72094727 C33 67 33 67 32 66 C31.91330568 64.5112814 31.89296506 63.018555 31.90234375 61.52734375 C31.90556641 60.62822266 31.90878906 59.72910156 31.91210938 58.80273438 C31.92048828 57.85720703 31.92886719 56.91167969 31.9375 55.9375 C31.94201172 54.98810547 31.94652344 54.03871094 31.95117188 53.06054688 C31.9629989 50.70696935 31.97947975 48.35351523 32 46 C34 45 34 45 35.91674805 45.6015625 C36.69058838 45.93929687 37.46442871 46.27703125 38.26171875 46.625 C39.13505859 47.00269531 40.00839844 47.38039062 40.90820312 47.76953125 C41.82537109 48.17558594 42.74253906 48.58164063 43.6875 49 C44.55439453 49.37511719 45.42128906 49.75023437 46.31445312 50.13671875 C54.28331126 53.61047154 62.11751862 57.32150869 70 61 C70 77.83 70 94.66 70 112 C59.86203457 108.62067819 59.86203457 108.62067819 56.30859375 107.01953125 C55.51807617 106.66455566 54.72755859 106.30958008 53.91308594 105.94384766 C53.09614258 105.57050293 52.27919922 105.1971582 51.4375 104.8125 C50.56254883 104.41595215 49.68759766 104.0194043 48.78613281 103.61083984 C42.91818105 100.93124876 37.13781556 98.11135565 31.39404297 95.17675781 C23.97374459 91.41723933 16.38724844 88.01596798 8.80761719 84.59228516 C7.81020508 84.14030762 6.81279297 83.68833008 5.78515625 83.22265625 C4.88676025 82.81797119 3.98836426 82.41328613 3.06274414 81.99633789 C1 81 1 81 0 80 C-0.09502416 77.50507612 -0.12557566 75.03793986 -0.11352539 72.54272461 C-0.11367142 71.76229294 -0.11381744 70.98186127 -0.1139679 70.17778015 C-0.11326858 67.5859402 -0.10547536 64.99417122 -0.09765625 62.40234375 C-0.09579213 60.6101536 -0.0943682 58.81796294 -0.09336853 57.02577209 C-0.08954284 52.29929203 -0.07971212 47.57284248 -0.06866455 42.84637451 C-0.05845153 38.0271445 -0.05387115 33.20790958 -0.04882812 28.38867188 C-0.03808989 18.92576781 -0.02101286 9.46288644 0 0 Z " fill="#CDB276" transform="translate(10,62)"/>
<path d="M0 0 C0.99 0.495 0.99 0.495 2 1 C2 27.07 2 53.14 2 80 C-5.92 83.96 -5.92 83.96 -14 88 C-14.99 87.67 -15.98 87.34 -17 87 C-17 69.84 -17 52.68 -17 35 C-21.71160147 39.51127078 -21.71160147 39.51127078 -24.296875 42.9296875 C-26.75 45.875 -26.75 45.875 -33 51 C-38.61 50.67 -44.22 50.34 -50 50 C-50 67.82 -50 85.64 -50 104 C-66 112 -66 112 -68 112 C-68 85.6 -68 59.2 -68 32 C-56.45 32 -44.9 32 -33 32 C-25.09832409 26.21913715 -25.09832409 26.21913715 -20 19 C-18.34375 17.08203125 -18.34375 17.08203125 -17 16 C-16.34 16 -15.68 16 -15 16 C-15 15.34 -15 14.68 -15 14 C-13.49609375 12.51953125 -13.49609375 12.51953125 -11.4375 10.8125 C-7.41324753 7.39798275 -3.67809995 3.78154651 0 0 Z " fill="#BA9D62" transform="translate(152,62)"/>
<path d="M0 0 C4.29 0 8.58 0 13 0 C13.38220703 0.93046143 13.76441406 1.86092285 14.15820312 2.81958008 C15.61863566 6.37428374 17.08017239 9.92853264 18.54199219 13.48266602 C19.16662809 15.00175379 19.79099026 16.52095415 20.41503906 18.0402832 C25.21320074 29.72124477 30.09933452 41.36091948 35 53 C35.33 35.51 35.66 18.02 36 0 C64.7109375 0 64.7109375 0 69.64453125 4.5 C73.92335633 9.99521348 74.62844431 14.21512907 74 21 C72.175964 26.26943734 69.32368367 28.73321678 65 32 C66.69595151 36.09436813 69.56457407 39.19632246 72.4375 42.5 C81 52.42394875 81 52.42394875 81 55 C67.02651912 56.20779186 67.02651912 56.20779186 62.66015625 53.60546875 C60.84487579 51.50828591 59.44133531 49.37027775 58 47 C56.52986214 44.99335387 55.05049086 42.99344356 53.5625 41 C51.7990625 38.525 51.7990625 38.525 50 36 C49.67 42.27 49.34 48.54 49 55 C39.43 55 29.86 55 20 55 C17 47 17 47 17 44 C7.1 44.495 7.1 44.495 -3 45 C-4.98 49.95 -4.98 49.95 -7 55 C-11.95 55 -16.9 55 -22 55 C-17.47251713 42.7172389 -12.62198626 30.59832133 -7.625 18.5 C-6.88128147 16.69410469 -6.13779061 14.88811559 -5.39453125 13.08203125 C-3.5989669 8.72027276 -1.80036149 4.35978048 0 0 Z M49 11 C48.97313447 12.97909398 48.95366625 14.95828971 48.9375 16.9375 C48.92589844 18.03964844 48.91429687 19.14179687 48.90234375 20.27734375 C48.68737429 22.91447634 48.68737429 22.91447634 50 24 C53.31681358 23.7543101 56.07265179 23.52163337 59 21.875 C60.6448094 18.79098238 59.77769676 16.29025552 59 13 C57.23863645 10.81668311 57.23863645 10.81668311 55.0546875 10.8046875 C52.02734375 10.90234375 52.02734375 10.90234375 49 11 Z M6 19 C5.32694982 20.60149886 4.66177773 22.20631029 4 23.8125 C3.62875 24.70582031 3.2575 25.59914062 2.875 26.51953125 C1.83366763 29.0331433 1.83366763 29.0331433 2 32 C5.3 32 8.6 32 12 32 C10.35 27.71 8.7 23.42 7 19 C6.67 19 6.34 19 6 19 Z " fill="#AD9056" transform="translate(494,108)"/>
<path d="M0 0 C2.36221007 0.83291134 4.69111557 1.7278691 7.02047729 2.64868164 C7.89441635 2.98484497 8.76835541 3.3210083 9.66877747 3.6673584 C12.46551771 4.7455254 15.25668172 5.83735783 18.04782104 6.92993164 C19.86582039 7.63398702 21.68417719 8.3371201 23.50289917 9.03930664 C27.1436046 10.44599931 30.78213176 11.85813529 34.41940308 13.27368164 C41.08493318 15.86291488 47.76990077 18.40079795 54.45848083 20.92980957 C55.28645676 21.24373657 56.11443268 21.55766357 56.96749878 21.88110352 C57.69718369 22.15692261 58.42686859 22.4327417 59.17866516 22.71691895 C60.98532104 23.42993164 60.98532104 23.42993164 62.98532104 24.42993164 C61.60180825 28.58047002 59.45775168 29.10266781 55.7026062 31.04931641 C43.58795974 36.91724132 43.58795974 36.91724132 37.61032104 35.99243164 C35.71559047 35.18297396 33.84446268 34.31808594 31.98532104 33.42993164 C29.32925553 32.40333443 26.65817002 31.42154048 23.98678589 30.43554688 C17.95002039 28.1939199 11.96181571 25.82700989 5.98532104 23.42993164 C6.00215942 24.31253662 6.0189978 25.1951416 6.03634644 26.10449219 C6.0776882 29.39559971 6.07857576 32.68165694 6.05245972 35.97265625 C6.04938651 37.39361102 6.0622084 38.81469586 6.09152222 40.23535156 C6.31773337 51.97776703 6.31773337 51.97776703 3.05123901 55.5378418 C0.07611581 57.30071968 -2.35036321 58.62726662 -5.86990356 58.20996094 C-8.96967547 57.08261077 -11.98296239 55.72923874 -15.01467896 54.42993164 C-15.34467896 44.19993164 -15.67467896 33.96993164 -16.01467896 23.42993164 C-18.13905396 24.29618164 -20.26342896 25.16243164 -22.45217896 26.05493164 C-28.2855366 28.40145227 -34.15623512 30.62664632 -40.07717896 32.74243164 C-40.77834839 32.99653809 -41.47951782 33.25064453 -42.20193481 33.51245117 C-52.73972887 37.23107779 -52.73972887 37.23107779 -57.99514771 34.84790039 C-59.40600473 34.12069532 -60.8083025 33.37667679 -62.20217896 32.61743164 C-63.26855591 32.06345703 -63.26855591 32.06345703 -64.35647583 31.49829102 C-67.35897322 29.92501628 -70.18947561 28.31340054 -73.01467896 26.42993164 C-72.51967896 24.94493164 -72.51967896 24.94493164 -72.01467896 23.42993164 C-69.70828247 22.2824707 -69.70828247 22.2824707 -66.64358521 21.19555664 C-65.52065063 20.78982422 -64.39771606 20.3840918 -63.24075317 19.96606445 C-61.42728394 19.32942871 -61.42728394 19.32942871 -59.57717896 18.67993164 C-57.09106592 17.78530887 -54.60538897 16.88947331 -52.12014771 15.99243164 C-50.29169312 15.33694336 -50.29169312 15.33694336 -48.42630005 14.66821289 C-44.05019328 13.07986213 -39.71669358 11.39658761 -35.38967896 9.67993164 C-28.75132241 7.06140486 -22.06043263 4.62842291 -15.31692505 2.29418945 C-4.78619998 -1.3542908 -4.78619998 -1.3542908 0 0 Z " fill="#A78858" transform="translate(87.01467895507813,32.570068359375)"/>
<path d="M0 0 C5.28 0 10.56 0 16 0 C19.96 10.56 23.92 21.12 28 32 C31.15686325 24.08815912 31.15686325 24.08815912 34.31176758 16.17553711 C34.71032959 15.1778833 35.1088916 14.18022949 35.51953125 13.15234375 C35.92276611 12.14163818 36.32600098 11.13093262 36.74145508 10.08959961 C38.11860692 6.7088321 39.56199836 3.35533715 41 0 C46.28 0 51.56 0 57 0 C57.7169216 7.4010715 58.42885011 14.8026003 59.13623047 22.20458984 C59.37738325 24.72067111 59.61988091 27.23662386 59.86376953 29.75244141 C60.2148348 33.37629476 60.56100229 37.00058834 60.90625 40.625 C61.0156189 41.74302002 61.12498779 42.86104004 61.2376709 44.01293945 C61.77506771 49.70610182 62.1211519 55.28163047 62 61 C57.05 61 52.1 61 47 61 C46.01 50.44 45.02 39.88 44 29 C38.555 44.84 38.555 44.84 33 61 C30.03 61 27.06 61 24 61 C21.08313892 53.84917569 18.36895534 46.63966776 15.75 39.375 C14.5125 35.95125 13.275 32.5275 12 29 C11.01 39.56 10.02 50.12 9 61 C4.05 61 -0.9 61 -6 61 C-5.36926514 53.48921623 -4.73541072 45.97870829 -4.09605503 38.46865368 C-3.79930465 34.98146128 -3.50392515 31.49416404 -3.21166992 28.0065918 C-2.87565416 23.99753176 -2.533692 19.98899837 -2.19140625 15.98046875 C-2.08719864 14.72727341 -1.98299103 13.47407806 -1.87562561 12.1829071 C-1.77559738 11.02193008 -1.67556915 9.86095306 -1.57250977 8.66479492 C-1.48590591 7.64109299 -1.39930206 6.61739105 -1.31007385 5.56266785 C-1 3 -1 3 0 0 Z " fill="#FEFEFE" transform="translate(575,37)"/>
<path d="M0 0 C15 0 15 0 18.9921875 3.84765625 C20.00923555 5.55371482 20.96980894 7.29454872 21.875 9.0625 C22.35195313 9.89072266 22.82890625 10.71894531 23.3203125 11.57226562 C24.91907176 14.35957618 26.45761907 17.18110086 28 20 C32.455 27.425 32.455 27.425 37 35 C37.33 23.45 37.66 11.9 38 0 C42.62 0 47.24 0 52 0 C52 20.13 52 40.26 52 61 C37 61 37 61 33.515625 57.66015625 C32.32739258 55.46044922 32.32739258 55.46044922 31.25 53.0625 C30.38750597 51.41878891 29.52151842 49.776907 28.65234375 48.13671875 C28.22550293 47.29028809 27.79866211 46.44385742 27.35888672 45.57177734 C25.1170391 41.32894177 22.46185161 37.37093104 19.8125 33.375 C18.224375 30.94125 16.63625 28.5075 15 26 C15 37.55 15 49.1 15 61 C10.05 61 5.1 61 0 61 C0 40.87 0 20.74 0 0 Z " fill="#FDFDFD" transform="translate(706,37)"/>
<path d="M0 0 C4.29 0 8.58 0 13 0 C13.33 17.16 13.66 34.32 14 52 C18.24428904 43.51972348 18.24428904 43.51972348 21.9375 34.8828125 C22.18491943 34.25954071 22.43233887 33.63626892 22.68725586 32.99411011 C23.4623655 31.0393675 24.23147937 29.08234119 25 27.125 C26.01912854 24.5435952 27.04066657 21.96314759 28.0625 19.3828125 C28.43097046 18.45048798 28.43097046 18.45048798 28.80688477 17.49932861 C31.13064983 11.63461573 33.55528951 5.81517533 36 0 C40.29 0 44.58 0 49 0 C51.02781473 4.85169159 53.0541025 9.7040173 55.07910156 14.55688477 C55.76522657 16.20060582 56.4517369 17.8441661 57.13867188 19.48754883 C59.12052531 24.22922009 61.09477135 28.97392681 63.05773926 33.72344971 C63.67982113 35.22643143 64.30404684 36.72852782 64.93054199 38.22967529 C65.79134607 40.29486996 66.64297729 42.3636098 67.4921875 44.43359375 C67.97800293 45.60849365 68.46381836 46.78339355 68.96435547 47.99389648 C70 51 70 51 70 55 C65.38 55 60.76 55 56 55 C54.68 51.7 53.36 48.4 52 45 C45.73 45 39.46 45 33 45 C31.02 49.95 31.02 49.95 29 55 C19.43 55 9.86 55 0 55 C0 36.85 0 18.7 0 0 Z M42 19 C41.32694982 20.60149886 40.66177773 22.20631029 40 23.8125 C39.62875 24.70582031 39.2575 25.59914062 38.875 26.51953125 C37.83366763 29.0331433 37.83366763 29.0331433 38 32 C41.3 32 44.6 32 48 32 C46.35 27.71 44.7 23.42 43 19 C42.67 19 42.34 19 42 19 Z " fill="#AD9056" transform="translate(577,108)"/>
<path d="M0 0 C4.95 0 9.9 0 15 0 C18.53601227 3.6270963 20.22396332 5.85347978 22.4375 10.1875 C23.23704102 11.59805664 23.23704102 11.59805664 24.05273438 13.03710938 C25.73388921 16.00681402 27.36630257 19.00392591 29 22 C31.64 26.29 34.28 30.58 37 35 C37.33 23.45 37.66 11.9 38 0 C42.62 0 47.24 0 52 0 C52 20.13 52 40.26 52 61 C37 61 37 61 33.48046875 57.58984375 C32.27685547 55.359375 32.27685547 55.359375 31.1875 52.9375 C30.32256226 51.28849668 29.45399967 49.64139017 28.58203125 47.99609375 C28.16131348 47.16190918 27.7405957 46.32772461 27.30712891 45.46826172 C25.27119418 41.62379028 22.84223662 38.07720451 20.375 34.5 C16.11103652 28.22207304 16.11103652 28.22207304 15 26 C14.67 37.55 14.34 49.1 14 61 C9.38 61 4.76 61 0 61 C0 40.87 0 20.74 0 0 Z " fill="#FDFDFD" transform="translate(450,37)"/>
<path d="M0 0 C3.6384458 2.16356492 6.55776295 4.57163288 9.3125 7.8125 C10.01375 8.59625 10.715 9.38 11.4375 10.1875 C16.90503978 17.84205569 17.79404834 26.04988637 17.1328125 35.3359375 C15.64195777 44.0072354 10.1279302 50.91691793 3.43359375 56.37109375 C-3.56447895 61.12669011 -11.42455246 61.75171115 -19.6875 60.8125 C-28.79425266 58.68879088 -35.3089069 54.65411633 -40.5 46.875 C-45.30087317 38.47347195 -46.0814535 29.23136372 -44.03515625 19.80859375 C-41.13381117 10.855516 -36.37445395 5.04165976 -28.25 0.3125 C-19.35743136 -3.76000634 -8.96047793 -4.19312976 0 0 Z M-27.0625 18.75 C-29.77912017 24.06861502 -29.50707136 30.03274027 -28.6875 35.8125 C-27.01606945 40.3858185 -24.79007422 43.04549185 -20.8125 45.8125 C-15.91782719 47.3787953 -12.32985106 47.42435628 -7.5 45.625 C-2.94919627 42.69225982 -0.11443212 39.04458445 1.3125 33.8125 C1.96048248 27.78739974 1.31508718 23.19644943 -1.6875 17.8125 C-5.52032831 13.35938946 -5.52032831 13.35938946 -10.859375 11.57421875 C-18.40240632 11.35707088 -22.17963352 12.71066515 -27.0625 18.75 Z " fill="#FDFDFD" transform="translate(683.6875,38.1875)"/>
<path d="M0 0 C6.95718154 4.89157026 12.43646979 11.43185443 14 20 C14.85554857 31.00992829 13.88663485 40.55700866 6.8125 49.375 C1.45821973 54.9946864 -5.14515633 58.66204569 -12.91796875 59.203125 C-24.6308128 59.37105108 -31.27995246 57.63928623 -39.83203125 49.37890625 C-45.95186495 42.66362927 -47.48219833 34.96444134 -48 26 C-47.36547326 16.60107272 -43.69745849 8.95893094 -36.8671875 2.5390625 C-26.81403122 -5.74743034 -11.06130236 -7.34522632 0 0 Z M-29 16 C-32.06672961 21.42153985 -32.94011492 26.91050011 -31.53125 33.0390625 C-29.86609342 38.33188162 -27.55056274 40.87148812 -23 44 C-18.29477445 45.56840852 -14.47351184 45.54895539 -9.8125 43.8125 C-5.77406657 41.20995401 -3.51960221 38.55880664 -2 34 C-1.41756005 25.61062451 -1.30874166 19.26801746 -7 12.6875 C-10.71978704 9.54892968 -14.74851946 9.53620318 -19.42578125 9.59765625 C-23.83352548 10.2865753 -26.34058664 12.52060085 -29 16 Z " fill="#FEFEFE" transform="translate(972,40)"/>
<path d="M0 0 C6.54371211 4.64624073 11.17920789 11.34254884 13.078125 19.19140625 C14.78890086 29.84340687 12.87993841 39.20622186 6.7421875 48.14453125 C2.00331431 53.96964489 -4.1361783 57.41806498 -11.5078125 58.76953125 C-21.37940624 59.69144733 -29.44610525 58.0166642 -37.8203125 52.64453125 C-45.18195954 44.76928093 -49.0422531 35.96143825 -48.76171875 25.1328125 C-47.63156686 14.61370648 -42.58915933 6.44472373 -34.5078125 -0.23046875 C-24.37661287 -7.3683594 -10.24315355 -5.92659426 0 0 Z M-29.7578125 15.46484375 C-32.82952271 20.73368001 -33.3190593 25.77803377 -32.5078125 31.76953125 C-31.30349884 36.31819794 -29.21653124 39.82437225 -25.5078125 42.76953125 C-21.4740776 44.94992849 -18.05086283 45.23950197 -13.5078125 44.76953125 C-8.22161006 42.61921161 -5.43869203 40.38806938 -3.16796875 35.109375 C-1.47259268 29.10032016 -1.59120627 23.0666638 -4.1328125 17.33203125 C-6.32813951 13.61979425 -8.49892066 11.55126096 -12.5078125 9.76953125 C-19.54919529 8.66859844 -25.27396285 9.38362267 -29.7578125 15.46484375 Z " fill="#FEFEFE" transform="translate(316.5078125,40.23046875)"/>
<path d="M0 0 C2.83376437 1.88315976 5.33833998 3.91357585 7.83984375 6.22265625 C7.25447622 9.88326446 5.75660475 11.76800789 3.27734375 14.47265625 C2.63667969 15.1790625 1.99601562 15.88546875 1.3359375 16.61328125 C0.84222656 17.144375 0.34851563 17.67546875 -0.16015625 18.22265625 C-0.99160156 17.59037109 -0.99160156 17.59037109 -1.83984375 16.9453125 C-2.56429687 16.39746094 -3.28875 15.84960938 -4.03515625 15.28515625 C-4.75445312 14.73988281 -5.47375 14.19460937 -6.21484375 13.6328125 C-10.03638267 10.86258047 -13.54688751 10.62017712 -18.16015625 11.22265625 C-22.41004443 13.26587172 -25.28776252 15.78552145 -27.46484375 20.0390625 C-29.41481661 26.16285368 -29.11778341 32.93348718 -26.47265625 38.78515625 C-24.49684771 42.07361268 -22.87914388 43.92909534 -19.16015625 45.22265625 C-14.21035811 45.72090326 -8.34167012 46.22811934 -4.16015625 43.22265625 C-2.78048101 39.68751332 -2.78048101 39.68751332 -2.16015625 36.22265625 C-6.78015625 36.22265625 -11.40015625 36.22265625 -16.16015625 36.22265625 C-16.16015625 32.26265625 -16.16015625 28.30265625 -16.16015625 24.22265625 C-6.59015625 24.22265625 2.97984375 24.22265625 12.83984375 24.22265625 C13.46072058 44.09071471 13.46072058 44.09071471 7.14453125 51.10546875 C0.76264878 57.28065058 -6.28611852 60.36997014 -15.16015625 60.72265625 C-23.42517498 60.40436285 -30.55027681 57.65506162 -36.62890625 51.9921875 C-43.24872451 44.34224446 -45.6756753 35.54340712 -45.4609375 25.59765625 C-44.54241716 15.29114228 -39.86496431 7.98632326 -32.16015625 1.22265625 C-23.67230156 -5.11865604 -9.13466353 -4.89169122 0 0 Z " fill="#FDFDFD" transform="translate(230.16015625,38.77734375)"/>
<path d="M0 0 C6.68740567 1.11456761 11.6564603 3.26936343 17.625 6.3125 C33.78085603 14.46713872 50.11708493 22.29172598 66.5703125 29.828125 C69 31 69 31 70 32 C70.08669432 33.4887186 70.10703494 34.981445 70.09765625 36.47265625 C70.09282227 37.82133789 70.09282227 37.82133789 70.08789062 39.19726562 C70.07532227 40.61555664 70.07532227 40.61555664 70.0625 42.0625 C70.05798828 43.01189453 70.05347656 43.96128906 70.04882812 44.93945312 C70.0370011 47.29303065 70.02052025 49.64648477 70 52 C65.38518809 50.55315572 61.00873352 48.74426408 56.6171875 46.734375 C55.57390793 46.26055389 55.57390793 46.26055389 54.509552 45.77716064 C53.04151243 45.10956934 51.57414662 44.44049463 50.10742188 43.77001953 C47.90411712 42.76330395 45.69835436 41.76214386 43.4921875 40.76171875 C35.23877819 37.00757108 27.07244201 33.13225222 19 29 C19.01023193 29.99314209 19.02046387 30.98628418 19.03100586 32.00952148 C19.13752503 44.0263708 18.59306491 55.99989943 18 68 C16.515 67.505 16.515 67.505 15 67 C15.495 66.505 15.495 66.505 16 66 C16.07205511 64.31391034 16.08386068 62.62499341 16.0625 60.9375 C16.05347656 60.01839844 16.04445313 59.09929687 16.03515625 58.15234375 C16.02355469 57.44207031 16.01195313 56.73179688 16 56 C14.01508358 56.26676204 14.01508358 56.26676204 12 57 C11.67 57.99 11.34 58.98 11 60 C10.67 59.34 10.34 58.68 10 58 C6.91202978 58.6469565 6.91202978 58.6469565 6 60.875 C5.67 61.57625 5.34 62.2775 5 63 C3.375 64.75 3.375 64.75 2 66 C2.66 66 3.32 66 4 66 C3.34 67.32 2.68 68.64 2 70 C1.34 70 0.68 70 0 70 C0 46.9 0 23.8 0 0 Z " fill="#C4A869" transform="translate(10,62)"/>
<path d="M0 0 C31.74772727 0 31.74772727 0 36.86328125 4.71875 C37.34152344 5.3065625 37.81976562 5.894375 38.3125 6.5 C39.04919922 7.38171875 39.04919922 7.38171875 39.80078125 8.28125 C42.863332 12.67057356 42.5313625 17.88373818 42 23 C40.14428227 29.46147498 36.60297725 32.552014 31 36 C34.94329658 41.53607912 39.24825143 46.60643445 43.8515625 51.60546875 C50 58.45818182 50 58.45818182 50 61 C34.36267791 62.67000527 34.36267791 62.67000527 29.08203125 58.9375 C26.78191026 56.07150854 24.88612986 53.15258667 23 50 C21.4944269 47.92633418 19.97419844 45.86320675 18.4375 43.8125 C17.303125 42.224375 16.16875 40.63625 15 39 C14.67 46.26 14.34 53.52 14 61 C9.38 61 4.76 61 0 61 C0 40.87 0 20.74 0 0 Z M14 12 C14 16.62 14 21.24 14 26 C15.423125 26.061875 16.84625 26.12375 18.3125 26.1875 C19.11300781 26.22230469 19.91351562 26.25710937 20.73828125 26.29296875 C23.52111393 25.9324982 24.31047214 25.19167856 26 23 C27.00635246 20.63537508 27.00635246 20.63537508 27 18 C25.8584081 15.7168162 24.80987317 13.80987317 23 12 C19.99668982 11.85806663 17.00782866 11.95763622 14 12 Z " fill="#FEFEFE" transform="translate(875,37)"/>
<path d="M0 0 C4.62 0 9.24 0 14 0 C17.38782533 7.35432461 20.60368619 14.74622939 23.64453125 22.25 C24.05918137 23.27053467 24.47383148 24.29106934 24.90104675 25.3425293 C25.76690667 27.47638076 26.63150331 29.61074524 27.49487305 31.74560547 C28.82118738 35.02145689 30.15558725 38.2939424 31.49023438 41.56640625 C32.33382822 43.64823703 33.17694465 45.73026135 34.01953125 47.8125 C34.41944778 48.79057617 34.81936432 49.76865234 35.23139954 50.77636719 C35.59565536 51.68161133 35.95991119 52.58685547 36.33520508 53.51953125 C36.65765701 54.31464111 36.98010895 55.10975098 37.31233215 55.92895508 C38 58 38 58 38 61 C33.05 61 28.1 61 23 61 C19 52.375 19 52.375 19 49 C11.41 49.33 3.82 49.66 -4 50 C-5.32 53.63 -6.64 57.26 -8 61 C-13.28 61 -18.56 61 -24 61 C-21.49484736 53.1181422 -18.46813393 45.47923604 -15.375 37.8125 C-14.84262224 36.48752819 -14.31039728 35.16249498 -13.77832031 33.83740234 C-9.23613554 22.53763477 -4.63578365 11.26167643 0 0 Z M7 21 C4.74138003 25.93387858 2.59890486 30.80355921 1 36 C4.96 36 8.92 36 13 36 C10.8092006 28.39230548 10.8092006 28.39230548 8 21 C7.67 21 7.34 21 7 21 Z " fill="#FDFDFD" transform="translate(410,37)"/>
<path d="M0 0 C4.29 0 8.58 0 13 0 C16.19908609 3.42358336 17.79602784 5.95938437 20 10 C21.01716632 11.61535861 22.04691436 13.22283133 23.0859375 14.82421875 C25.27815203 18.20758245 27.46981561 21.59040768 29.62109375 25 C30.0792749 25.721875 30.53745605 26.44375 31.00952148 27.1875 C32 29 32 29 32 31 C32.66 31 33.32 31 34 31 C34 20.77 34 10.54 34 0 C38.29 0 42.58 0 47 0 C47 18.15 47 36.3 47 55 C42.38 55 37.76 55 33 55 C29.99830404 51.97815843 28.82151143 50.42577476 27.125 46.75 C23.13321228 39.07950595 18.87627737 32.31441605 14 25 C13.67 34.9 13.34 44.8 13 55 C8.71 55 4.42 55 0 55 C0 36.85 0 18.7 0 0 Z " fill="#AC9057" transform="translate(227,108)"/>
<path d="M0 0 C4.29 0 8.58 0 13 0 C15.63957525 2.82811634 17.14772026 4.78975965 18.90673828 8.07128906 C20.76466294 11.34900339 22.8759687 14.46185091 24.95092773 17.60498047 C27.65828537 21.72074967 30.32487467 25.86320825 33 30 C33.33 20.1 33.66 10.2 34 0 C38.29 0 42.58 0 47 0 C47 18.15 47 36.3 47 55 C42.71 55 38.42 55 34 55 C31.36042475 52.17188366 29.85227974 50.21024035 28.09326172 46.92871094 C26.23533706 43.65099661 24.1240313 40.53814909 22.04907227 37.39501953 C19.34171463 33.27925033 16.67512533 29.13679175 14 25 C13.67 34.9 13.34 44.8 13 55 C8.71 55 4.42 55 0 55 C0 36.85 0 18.7 0 0 Z " fill="#AD9057" transform="translate(374,108)"/>
<path d="M0 0 C2.52919704 1.82774005 4.34080294 3.80568082 6 6.4453125 C3.36 9.4153125 0.72 12.3853125 -2 15.4453125 C-3.340625 14.4553125 -4.68125 13.4653125 -6.0625 12.4453125 C-10.2438531 9.67958992 -12.89897506 8.48285496 -18 9.4453125 C-21.57545601 11.2330405 -23.55432819 12.82137196 -25.875 16.0703125 C-27.90394453 22.1571461 -27.98510698 27.9527368 -25.375 33.8828125 C-23.23021052 37.58744888 -21.19992526 39.2337956 -17 40.4453125 C-12.97185203 40.61639214 -9.86894843 40.09145364 -6.5625 37.6328125 C-4.70924738 35.32078814 -4.70924738 35.32078814 -4 31.4453125 C-7.96 31.4453125 -11.92 31.4453125 -16 31.4453125 C-16 28.1453125 -16 24.8453125 -16 21.4453125 C-7.42 21.4453125 1.16 21.4453125 10 21.4453125 C10.81737346 38.1197311 10.81737346 38.1197311 5 45.4453125 C-1.64884715 51.31194234 -8.58657517 53.9167325 -17.4140625 53.69140625 C-25.02139137 52.96744595 -30.88487243 50.13302898 -36 44.4453125 C-42.42359409 35.80840749 -43.1553044 26.97259422 -42 16.4453125 C-39.9108191 8.63890972 -34.63547678 2.89075507 -28 -1.5546875 C-18.80274972 -5.38164703 -8.62094865 -4.96271715 0 0 Z " fill="#AC9057" transform="translate(321,110.5546875)"/>
<path d="M0 0 C11.88 0 23.76 0 36 0 C36 4.29 36 8.58 36 13 C29.07 13 22.14 13 15 13 C15 16.63 15 20.26 15 24 C21.6 24 28.2 24 35 24 C35 28.29 35 32.58 35 37 C28.4 37 21.8 37 15 37 C15 40.63 15 44.26 15 48 C21.93 48 28.86 48 36 48 C36 52.29 36 56.58 36 61 C24.12 61 12.24 61 0 61 C0 40.87 0 20.74 0 0 Z " fill="#FEFEFE" transform="translate(510,37)"/>
<path d="M0 0 C5.28 0 10.56 0 16 0 C19.51558131 8.3867201 22.9462983 16.80234183 26.3125 25.25 C27.859375 29.1275 29.40625 33.005 31 37 C35.62 24.79 40.24 12.58 45 0 C50.61 0 56.22 0 62 0 C59.95269784 6.40459738 57.59067496 12.55129318 54.91015625 18.71484375 C54.52435898 19.61062637 54.13856171 20.506409 53.74107361 21.42933655 C52.51834597 24.26690064 51.29070641 27.10230359 50.0625 29.9375 C48.83870388 32.76947889 47.61599222 35.60191887 46.39463806 38.43495178 C45.63823632 40.18876742 44.88033913 41.9419392 44.12062073 43.69432068 C41.64512411 49.42451637 39.2980311 55.19626768 37 61 C33.04 61 29.08 61 25 61 C20.16173624 50.71681712 15.7213366 40.31039194 11.375 29.8125 C10.71375838 28.2219151 10.05230103 26.63141986 9.390625 25.04101562 C7.85084115 21.33661859 6.31754389 17.62961048 4.79040527 13.91998291 C4.07822655 12.19002105 3.36394951 10.46092337 2.64941406 8.73193359 C2.09979004 7.38542725 2.09979004 7.38542725 1.5390625 6.01171875 C1.23436035 5.26752686 0.9296582 4.52333496 0.61572266 3.7565918 C0 2 0 2 0 0 Z " fill="#FDFDFD" transform="translate(329,37)"/>
<path d="M0 0 C11.55 0 23.1 0 35 0 C35 4.29 35 8.58 35 13 C28.07 13 21.14 13 14 13 C14.33 15.97 14.66 18.94 15 22 C14.67 22.66 14.34 23.32 14 24 C20.6 24 27.2 24 34 24 C34 28.29 34 32.58 34 37 C27.4 37 20.8 37 14 37 C14 40.63 14 44.26 14 48 C20.93 48 27.86 48 35 48 C35 52.29 35 56.58 35 61 C23.45 61 11.9 61 0 61 C0 40.87 0 20.74 0 0 Z " fill="#FDFDFD" transform="translate(810,37)"/>
<path d="M0 0 C4.29 0 8.58 0 13 0 C13 6.93 13 13.86 13 21 C18.61 21 24.22 21 30 21 C30 14.07 30 7.14 30 0 C34.29 0 38.58 0 43 0 C43.16716986 7.67199731 43.32777407 15.34409255 43.48217773 23.01635742 C43.53569002 25.62870016 43.59102613 28.24100618 43.64819336 30.85327148 C43.72984758 34.59871498 43.80503427 38.34423971 43.87890625 42.08984375 C43.90594131 43.26586655 43.93297638 44.44188934 43.96083069 45.65354919 C43.98092697 46.73459427 44.00102325 47.81563934 44.02172852 48.92944336 C44.04171402 49.88652695 44.06169952 50.84361053 44.08229065 51.82969666 C44 54 44 54 43 55 C38.66469082 55.14393457 34.33842269 55.04212061 30 55 C30 47.74 30 40.48 30 33 C24.39 33 18.78 33 13 33 C13 40.26 13 47.52 13 55 C8.71 55 4.42 55 0 55 C0 36.85 0 18.7 0 0 Z " fill="#AD9057" transform="translate(428,108)"/>
<path d="M0 0 C10.89 0 21.78 0 33 0 C33 3.63 33 7.26 33 11 C32 12 32 12 30.23413086 12.11352539 C29.48526611 12.10828857 28.73640137 12.10305176 27.96484375 12.09765625 C27.15595703 12.09443359 26.34707031 12.09121094 25.51367188 12.08789062 C24.66353516 12.07951172 23.81339844 12.07113281 22.9375 12.0625 C22.08349609 12.05798828 21.22949219 12.05347656 20.34960938 12.04882812 C18.23304337 12.03700373 16.11651315 12.01906769 14 12 C14 14.97 14 17.94 14 21 C19.94 21 25.88 21 32 21 C32 24.96 32 28.92 32 33 C26.06 33 20.12 33 14 33 C14 36.3 14 39.6 14 43 C15.28777344 42.98839844 16.57554687 42.97679687 17.90234375 42.96484375 C19.58072772 42.9554673 21.25911326 42.94636695 22.9375 42.9375 C24.21270508 42.92493164 24.21270508 42.92493164 25.51367188 42.91210938 C26.32255859 42.90888672 27.13144531 42.90566406 27.96484375 42.90234375 C28.7137085 42.89710693 29.46257324 42.89187012 30.23413086 42.88647461 C32 43 32 43 33 44 C33 47.63 33 51.26 33 55 C22.11 55 11.22 55 0 55 C0 36.85 0 18.7 0 0 Z " fill="#AD9057" transform="translate(188,108)"/>
<path d="M0 0 C10.56 0 21.12 0 32 0 C32 3.63 32 7.26 32 11 C31 12 31 12 29.23413086 12.11352539 C28.48526611 12.10828857 27.73640137 12.10305176 26.96484375 12.09765625 C26.15595703 12.09443359 25.34707031 12.09121094 24.51367188 12.08789062 C23.66353516 12.07951172 22.81339844 12.07113281 21.9375 12.0625 C21.08349609 12.05798828 20.22949219 12.05347656 19.34960938 12.04882812 C17.23304337 12.03700373 15.11651315 12.01906769 13 12 C13 14.97 13 17.94 13 21 C18.94 21 24.88 21 31 21 C31 24.96 31 28.92 31 33 C25.06 33 19.12 33 13 33 C13 36.3 13 39.6 13 43 C19.27 43 25.54 43 32 43 C32 46.96 32 50.92 32 55 C21.44 55 10.88 55 0 55 C0 36.85 0 18.7 0 0 Z " fill="#AC9057" transform="translate(336,108)"/>
<path d="M0 0 C14.52 0 29.04 0 44 0 C44 4.29 44 8.58 44 13 C39.38 13.33 34.76 13.66 30 14 C30 29.51 30 45.02 30 61 C25.05 61 20.1 61 15 61 C15 45.16 15 29.32 15 13 C10.05 13 5.1 13 0 13 C0 8.71 0 4.42 0 0 Z " fill="#FEFEFE" transform="translate(762,37)"/>
<path d="M0 0 C2.31 0.33 4.62 0.66 7 1 C7 1.66 7 2.32 7 3 C7.66 3 8.32 3 9 3 C10.18711389 13.58364898 10.11521814 24.11884033 10.0625 34.75 C10.05747286 36.5260404 10.05291211 38.30208218 10.04882812 40.078125 C10.03792357 44.38545148 10.02072652 48.69271005 10 53 C7.3773768 54.33819498 4.75213401 55.6707151 2.125 57 C1.00544922 57.57234375 1.00544922 57.57234375 -0.13671875 58.15625 C-0.85214844 58.5171875 -1.56757812 58.878125 -2.3046875 59.25 C-2.96452637 59.58515625 -3.62436523 59.9203125 -4.30419922 60.265625 C-6 61 -6 61 -8 61 C-8.04995648 54.84766787 -8.0859794 48.69545744 -8.10986328 42.54296875 C-8.11983476 40.45603373 -8.13341681 38.36911235 -8.15087891 36.28222656 C-8.24551749 24.66951604 -8.21226589 13.44542069 -6 2 C-4.02 2 -2.04 2 0 2 C0 1.34 0 0.68 0 0 Z " fill="#C7AC73" transform="translate(92,113)"/>
<path d="M0 0 C4.95 0 9.9 0 15 0 C15 20.13 15 40.26 15 61 C10.05 61 5.1 61 0 61 C0 40.87 0 20.74 0 0 Z " fill="#FEFEFE" transform="translate(852,37)"/>
<path d="M0 0 C4.95 0 9.9 0 15 0 C15 20.13 15 40.26 15 61 C10.05 61 5.1 61 0 61 C0 40.87 0 20.74 0 0 Z " fill="#FEFEFE" transform="translate(248,37)"/>
<path d="M0 0 C6.56773959 -0.41794706 11.03899527 0.82426304 17 3.5 C18.16208984 4.00080078 18.16208984 4.00080078 19.34765625 4.51171875 C21.23738707 5.3282691 23.11953248 6.1623372 25 7 C23.61644609 11.15066174 21.47227496 11.67316269 17.71655273 13.61914062 C4.7299301 19.91242248 4.7299301 19.91242248 -0.5625 18.5 C-2.3944407 17.71032033 -4.20406914 16.86846591 -6 16 C-7.53777843 15.42346178 -9.08136541 14.86229647 -10.62890625 14.3125 C-17.34910034 11.88435502 -17.34910034 11.88435502 -20.3515625 10.71875 C-21.03041504 10.46029297 -21.70926758 10.20183594 -22.40869141 9.93554688 C-24 9 -24 9 -25 6 C-23.96875 6.2475 -22.9375 6.495 -21.875 6.75 C-17.0645823 7.06034953 -15.81489847 5.7816968 -12 3 C-7.57908623 1.3712423 -4.55463325 0.61980811 0 2 C0 1.34 0 0.68 0 0 Z " fill="#CEB373" transform="translate(125,50)"/>
<path d="M0 0 C0.79277344 0.31582031 1.58554688 0.63164063 2.40234375 0.95703125 C3.21058594 1.29089844 4.01882812 1.62476563 4.8515625 1.96875 C5.68300781 2.30261719 6.51445313 2.63648438 7.37109375 2.98046875 C9.41015076 3.80077904 11.44489449 4.63034451 13.4765625 5.46875 C13.4765625 6.45875 13.4765625 7.44875 13.4765625 8.46875 C7.81904674 10.7645535 3.04711199 11.78071764 -3.06640625 11.4765625 C-5.98103031 11.46729501 -8.65419531 11.96241314 -11.5234375 12.46875 C-19.88856965 13.44996811 -27.36295695 13.74390702 -35.5234375 11.46875 C-35.8534375 10.47875 -36.1834375 9.48875 -36.5234375 8.46875 C-32.3215538 6.78548954 -28.11098646 5.12511888 -23.8984375 3.46875 C-22.70863281 2.99179687 -21.51882812 2.51484375 -20.29296875 2.0234375 C-19.13925781 1.57226562 -17.98554687 1.12109375 -16.796875 0.65625 C-15.73903809 0.23730469 -14.68120117 -0.18164062 -13.59130859 -0.61328125 C-8.65814724 -2.08938237 -4.74795362 -1.92670582 0 0 Z " fill="#DDCA8D" transform="translate(89.5234375,33.53125)"/>
<path d="M0 0 C4.13585402 0.57901956 7.74133771 1.52042122 11.6171875 3.06640625 C12.63554688 3.46923828 13.65390625 3.87207031 14.703125 4.28710938 C15.74984375 4.70798828 16.7965625 5.12886719 17.875 5.5625 C19.47988281 6.19961914 19.47988281 6.19961914 21.1171875 6.84960938 C23.74694526 7.89446849 26.37440342 8.94473782 29 10 C28.40445313 10.14179687 27.80890625 10.28359375 27.1953125 10.4296875 C24.81991286 11.01113985 24.81991286 11.01113985 21.875 12.125 C19 13 19 13 17 12 C13.01010058 12.84401719 10.27283946 13.80511467 6.9375 16.1875 C4 18 4 18 0.8125 17.6875 C-0.115625 17.460625 -1.04375 17.23375 -2 17 C-2.99 17.33 -3.98 17.66 -5 18 C-9 13.25 -9 13.25 -9 11 C-9.63474075 9.65117592 -10.29848848 8.3153341 -11 7 C-14.43724633 7.66275323 -14.43724633 7.66275323 -17.828125 8.5234375 C-20.42597115 9.09346849 -22.84109758 9.16923831 -25.5 9.1875 C-26.4384375 9.20167969 -27.376875 9.21585938 -28.34375 9.23046875 C-31.05994337 8.99479903 -32.67915046 8.38484654 -35 7 C-17.26550487 3.95557834 -17.26550487 3.95557834 -11.8125 4.0625 C-8.74372548 3.99430501 -6.80321467 3.18030091 -4 2 C-2.68 2 -1.36 2 0 2 C0 1.34 0 0.68 0 0 Z " fill="#A98A54" transform="translate(103,40)"/>
<path d="M0 0 C0.33 0 0.66 0 1 0 C1 12.54 1 25.08 1 38 C-6.92 41.96 -6.92 41.96 -15 46 C-15.99 45.67 -16.98 45.34 -18 45 C-18 39.06 -18 33.12 -18 27 C-17.01 26.67 -16.02 26.34 -15 26 C-14.690625 25.360625 -14.38125 24.72125 -14.0625 24.0625 C-12.7657662 21.54531085 -11.5778263 21.03113052 -9 20 C-11.31 19.34 -13.62 18.68 -16 18 C-16 16.02 -16 14.04 -16 12 C-15.34 11.67 -14.68 11.34 -14 11 C-14 12.98 -14 14.96 -14 17 C-12.453125 17.433125 -12.453125 17.433125 -10.875 17.875 C-7.54542863 18.80727998 -4.27618545 19.89556354 -1 21 C-1.01160156 19.81921875 -1.02320313 18.6384375 -1.03515625 17.421875 C-1.04453752 15.86458492 -1.05363736 14.30729312 -1.0625 12.75 C-1.07087891 11.97269531 -1.07925781 11.19539063 -1.08789062 10.39453125 C-1.09272461 9.26337891 -1.09272461 9.26337891 -1.09765625 8.109375 C-1.10551147 7.07248535 -1.10551147 7.07248535 -1.11352539 6.01464844 C-0.99437971 3.90026102 -0.57618237 2.03358485 0 0 Z " fill="#C9AD77" transform="translate(153,104)"/>
<path d="M0 0 C3.35690055 1.34745261 6.70993365 2.70430339 10.0625 4.0625 C10.98611328 4.43310547 11.90972656 4.80371094 12.86132812 5.18554688 C21.07324816 8.52076355 28.93335925 12.23556765 37 16 C37 32.83 37 49.66 37 67 C31.28087215 65.09362405 26.64062487 63.50377148 21.4375 60.8125 C20.40496094 60.28269531 19.37242188 59.75289062 18.30859375 59.20703125 C17.54675781 58.80871094 16.78492187 58.41039062 16 58 C16.99 57.01 17.98 56.02 19 55 C21.64 56.32 24.28 57.64 27 59 C27 59.66 27 60.32 27 61 C30.86763446 62.87543354 30.86763446 62.87543354 35 62 C35.02470469 56.50073576 35.04286223 51.00150378 35.05493164 45.50219727 C35.05996279 43.63109779 35.06678835 41.76000225 35.07543945 39.88891602 C35.08755829 37.20067372 35.09324047 34.51248336 35.09765625 31.82421875 C35.10281754 30.98662521 35.10797882 30.14903168 35.11329651 29.28605652 C35.11362064 25.93624258 35.06684515 23.20053544 34 20 C32.35 19.67 30.7 19.34 29 19 C29 18.01 29 17.02 29 16 C28.01 15.67 27.02 15.34 26 15 C26 14.34 26 13.68 26 13 C21.98195309 12.15901344 18.98196457 11.94595055 15 13 C14.64808594 12.04867187 14.64808594 12.04867187 14.2890625 11.078125 C13.17709092 8.81749261 13.17709092 8.81749261 10.8359375 8.171875 C10.02382813 8.03265625 9.21171875 7.8934375 8.375 7.75 C7.14910156 7.52570313 7.14910156 7.52570313 5.8984375 7.296875 C5.27195312 7.19890625 4.64546875 7.1009375 4 7 C4.33 8.32 4.66 9.64 5 11 C4.0409375 11.2784375 4.0409375 11.2784375 3.0625 11.5625 C0.57873787 12.94246056 0.57873787 12.94246056 0.25 16.625 C0.1675 17.73875 0.085 18.8525 0 20 C0.969375 20.28875 1.93875 20.5775 2.9375 20.875 C6 22 6 22 7 24 C0.125 22.125 0.125 22.125 -1 21 C-1.09880797 19.52347336 -1.13079245 18.04232764 -1.1328125 16.5625 C-1.13410156 15.66789062 -1.13539062 14.77328125 -1.13671875 13.8515625 C-1.13091797 12.44003906 -1.13091797 12.44003906 -1.125 11 C-1.12886719 10.05898437 -1.13273437 9.11796875 -1.13671875 8.1484375 C-1.13542969 7.25382812 -1.13414063 6.35921875 -1.1328125 5.4375 C-1.13112061 4.19806641 -1.13112061 4.19806641 -1.12939453 2.93359375 C-1 1 -1 1 0 0 Z " fill="#AB9764" transform="translate(43,107)"/>
<path d="M0 0 C0.33 0.66 0.66 1.32 1 2 C1.99 3.485 1.99 3.485 3 5 C2.67 5.66 2.34 6.32 2 7 C2.89163577 9.11683841 2.89163577 9.11683841 4 11 C2.68 10.67 1.36 10.34 0 10 C-0.66 11.32 -1.32 12.64 -2 14 C-3.5 12.6875 -3.5 12.6875 -5 11 C-5 10.01 -5 9.02 -5 8 C-6.32 8.33 -7.64 8.66 -9 9 C-9.66 8.01 -10.32 7.02 -11 6 C-11.33 6.66 -11.66 7.32 -12 8 C-14.64 8 -17.28 8 -20 8 C-20 8.99 -20 9.98 -20 11 C-19.34 11.33 -18.68 11.66 -18 12 C-18.66 15.96 -19.32 19.92 -20 24 C-20.33 24 -20.66 24 -21 24 C-21.33 19.38 -21.66 14.76 -22 10 C-23.65 10.33 -25.3 10.66 -27 11 C-27 10.01 -27 9.02 -27 8 C-27.66 7.67 -28.32 7.34 -29 7 C-27.125 3.125 -27.125 3.125 -26 2 C-22.687501 1.97353026 -19.38880972 2.02870439 -16.078125 2.12695312 C-10.28625349 2.21745112 -5.66743227 -0.32385327 0 0 Z " fill="#8C714F" transform="translate(93,46)"/>
<path d="M0 0 C2.475 0.495 2.475 0.495 5 1 C5 1.99 5 2.98 5 4 C-0.65751576 6.2958035 -5.42945051 7.31196764 -11.54296875 7.0078125 C-14.45759281 6.99854501 -17.13075781 7.49366314 -20 8 C-28.36513215 8.98121811 -35.83951945 9.27515702 -44 7 C-44.33 6.01 -44.66 5.02 -45 4 C-40.37207669 1.87365686 -38.77511346 2.40829551 -34 4 C-32.45386986 3.91348369 -30.91090613 3.75997364 -29.375 3.5625 C-26.06295456 3.17905046 -22.89414849 2.96645248 -19.5625 3.0625 C-15.03589517 3.15109903 -10.8758114 2.2696702 -6.48046875 1.2421875 C-3.63269294 0.96413695 -2.38770508 1.49724855 0 3 C0 2.01 0 1.02 0 0 Z " fill="#C5A769" transform="translate(98,38)"/>
<path d="M0 0 C3 2 3 2 3.890625 4.09375 C4.25671875 4.7228125 4.6228125 5.351875 5 6 C7.22163545 6.55491935 7.22163545 6.55491935 9.75 6.5 C14.5418585 6.79775999 17.29818438 7.76091134 21 11 C22.375 13.25 22.375 13.25 23 15 C24.98 14.67 26.96 14.34 29 14 C29 14.66 29 15.32 29 16 C29.99 15.67 30.98 15.34 32 15 C32 15.66 32 16.32 32 17 C32.99 17 33.98 17 35 17 C35 17.66 35 18.32 35 19 C34.34 19 33.68 19 33 19 C33 19.66 33 20.32 33 21 C34.98 21.33 36.96 21.66 39 22 C38.505 23.485 38.505 23.485 38 25 C36.68515625 24.32517578 36.68515625 24.32517578 35.34375 23.63671875 C34.06309638 22.98580447 32.78178375 22.33618598 31.5 21.6875 C30.80962646 21.33792236 30.11925293 20.98834473 29.40795898 20.62817383 C24.85989118 18.35340153 20.27084759 16.20193125 15.62890625 14.125 C14.54351563 13.63813721 13.458125 13.15127441 12.33984375 12.6496582 C10.16810195 11.68075462 7.99233098 10.72082849 5.8125 9.77026367 C4.81347656 9.32400635 3.81445312 8.87774902 2.78515625 8.41796875 C1.88676025 8.02375732 0.98836426 7.6295459 0.06274414 7.22338867 C-2 6 -2 6 -3 3 C-2.01 2.01 -1.02 1.02 0 0 Z M13 8 C13 8.99 13 9.98 13 11 C13.66 10.67 14.32 10.34 15 10 C14.34 9.34 13.68 8.68 13 8 Z " fill="#EAD59C" transform="translate(13,137)"/>
<path d="M0 0 C0.495 1.485 0.495 1.485 1 3 C2.32 2.67 3.64 2.34 5 2 C4.67 3.32 4.34 4.64 4 6 C-2.610054 7.40213267 -8.70023502 8.13732782 -15.46484375 7.66015625 C-16.14301651 7.61434921 -16.82118927 7.56854218 -17.51991272 7.52134705 C-19.65964994 7.37525412 -21.79850575 7.21905884 -23.9375 7.0625 C-25.39904197 6.96091627 -26.8606304 6.85999858 -28.32226562 6.75976562 C-31.88207968 6.51420167 -35.44117734 6.25958023 -39 6 C-38.92273682 6.61415771 -38.84547363 7.22831543 -38.76586914 7.86108398 C-38.66910889 8.66876221 -38.57234863 9.47644043 -38.47265625 10.30859375 C-38.32582397 11.50826782 -38.32582397 11.50826782 -38.17602539 12.73217773 C-37.97509265 15.32089372 -38.27683825 17.50910951 -39 20 C-38.34 20.33 -37.68 20.66 -37 21 C-37.33 21.66 -37.66 22.32 -38 23 C-36.35 23 -34.7 23 -33 23 C-32.67 23.99 -32.34 24.98 -32 26 C-33.98 26 -35.96 26 -38 26 C-38.33 30.62 -38.66 35.24 -39 40 C-39.33 40 -39.66 40 -40 40 C-40 28.45 -40 16.9 -40 5 C-22.8125 5.3125 -22.8125 5.3125 -17.41333008 5.45043945 C-15.99041625 5.46505167 -14.56748143 5.47779061 -13.14453125 5.48828125 C-12.41439819 5.51386108 -11.68426514 5.53944092 -10.93200684 5.5657959 C-6.80392753 5.56930916 -5.20172947 5.16964916 -1.9909668 2.46948242 C-1.33394775 1.65455322 -0.67692871 0.83962402 0 0 Z " fill="#A78F61" transform="translate(124,89)"/>
<path d="M0 0 C6.44579544 1.07429924 10.94130619 2.86078972 16.625 5.9375 C17.56601562 6.44152344 18.50703125 6.94554688 19.4765625 7.46484375 C21.71550048 8.82692212 23.18429742 10.15805894 25 12 C25.99 12.33 26.98 12.66 28 13 C28.33 13.99 28.66 14.98 29 16 C26 17 26 17 23.8125 16.0625 C23.214375 15.711875 22.61625 15.36125 22 15 C22 14.34 22 13.68 22 13 C21.01 13.33 20.02 13.66 19 14 C18.34 12.68 17.68 11.36 17 10 C15.54176788 9.9729957 14.08339325 9.95360213 12.625 9.9375 C11.40683594 9.92009766 11.40683594 9.92009766 10.1640625 9.90234375 C7.95062858 9.85533666 7.95062858 9.85533666 6 11 C7 9 8 7 9 5 C6.03 4.505 6.03 4.505 3 4 C2.67 9.94 2.34 15.88 2 22 C1.34 22.33 0.68 22.66 0 23 C0 15.41 0 7.82 0 0 Z " fill="#DFC891" transform="translate(10,62)"/>
<path d="M0 0 C0.33 0 0.66 0 1 0 C1 12.54 1 25.08 1 38 C-6.92 41.96 -6.92 41.96 -15 46 C-15.99 45.67 -16.98 45.34 -18 45 C-18 41.7 -18 38.4 -18 35 C-16.02 34.505 -16.02 34.505 -14 34 C-14.495 36.475 -14.495 36.475 -15 39 C-13.16715557 40.12516085 -13.16715557 40.12516085 -11 41 C-9.515 40.505 -9.515 40.505 -8 40 C-7.71125 39.195625 -7.4225 38.39125 -7.125 37.5625 C-6 35 -6 35 -3.4296875 33.83984375 C-2.62789062 33.56269531 -1.82609375 33.28554687 -1 33 C-1.00785522 31.71367676 -1.00785522 31.71367676 -1.01586914 30.40136719 C-1.03294152 27.21077727 -1.04546505 24.02021069 -1.05493164 20.82958984 C-1.05995118 19.45035027 -1.06676819 18.07111598 -1.07543945 16.69189453 C-1.0876092 14.70607817 -1.09271633 12.72022251 -1.09765625 10.734375 C-1.10551147 8.94338379 -1.10551147 8.94338379 -1.11352539 7.11621094 C-1.01941946 4.53305383 -0.76626155 2.44991581 0 0 Z " fill="#C6B285" transform="translate(153,104)"/>
<path d="M0 0 C3.96 0 7.92 0 12 0 C12.33 0.99 12.66 1.98 13 3 C12.34 3.66 11.68 4.32 11 5 C11.67546875 4.88140625 12.3509375 4.7628125 13.046875 4.640625 C20.42367067 3.57461407 20.42367067 3.57461407 23.625 5.9375 C24.305625 6.9584375 24.305625 6.9584375 25 8 C18.16949153 11 18.16949153 11 14.5 11 C11.40119387 9.76047755 8.74161645 8.09592378 5.96484375 6.25390625 C4.03023097 5.01929252 2.06845214 3.99046149 0 3 C0 2.01 0 1.02 0 0 Z " fill="#A78B60" transform="translate(20,58)"/>
<path d="M0 0 C1.2065625 0.0309375 1.2065625 0.0309375 2.4375 0.0625 C2.7675 0.7225 3.0975 1.3825 3.4375 2.0625 C4.4275 3.5475 4.4275 3.5475 5.4375 5.0625 C5.1075 5.7225 4.7775 6.3825 4.4375 7.0625 C5.32913577 9.17933841 5.32913577 9.17933841 6.4375 11.0625 C5.1175 10.7325 3.7975 10.4025 2.4375 10.0625 C1.7775 11.3825 1.1175 12.7025 0.4375 14.0625 C-1.0625 12.75 -1.0625 12.75 -2.5625 11.0625 C-2.5625 10.0725 -2.5625 9.0825 -2.5625 8.0625 C-3.8825 8.3925 -5.2025 8.7225 -6.5625 9.0625 C-6.76875 8.423125 -6.975 7.78375 -7.1875 7.125 C-8.45788209 4.71324923 -8.45788209 4.71324923 -11.6875 4.3125 C-12.63625 4.23 -13.585 4.1475 -14.5625 4.0625 C-14.5625 3.7325 -14.5625 3.4025 -14.5625 3.0625 C-13.38880859 2.86333984 -13.38880859 2.86333984 -12.19140625 2.66015625 C-11.17949219 2.48355469 -10.16757813 2.30695312 -9.125 2.125 C-8.11566406 1.95097656 -7.10632813 1.77695312 -6.06640625 1.59765625 C-3.18494227 0.98180513 -2.9634087 0.07227826 0 0 Z " fill="#9B7A4A" transform="translate(90.5625,45.9375)"/>
<path d="M0 0 C1.32257813 0.55880859 1.32257813 0.55880859 2.671875 1.12890625 C10.59926471 4.66176471 10.59926471 4.66176471 12.1875 6.25 C12.27419432 7.7387186 12.29453494 9.231445 12.28515625 10.72265625 C12.28193359 11.62177734 12.27871094 12.52089844 12.27539062 13.44726562 C12.26701172 14.39279297 12.25863281 15.33832031 12.25 16.3125 C12.24548828 17.26189453 12.24097656 18.21128906 12.23632812 19.18945312 C12.2245011 21.54303065 12.20802025 23.89648477 12.1875 26.25 C10.8675 25.59 9.5475 24.93 8.1875 24.25 C9.1775 24.25 10.1675 24.25 11.1875 24.25 C10.93312289 21.62243412 10.65985799 18.99928226 10.375 16.375 C10.30474609 15.62863281 10.23449219 14.88226563 10.16210938 14.11328125 C9.94039777 12.14448223 9.57170661 10.19363342 9.1875 8.25 C8.1975 7.59 7.2075 6.93 6.1875 6.25 C5.8575 6.58 5.5275 6.91 5.1875 7.25 C-0.92361111 8.25 -0.92361111 8.25 -3.8125 8.25 C-3.791875 7.445625 -3.77125 6.64125 -3.75 5.8125 C-3.51616379 3.31645115 -3.51616379 3.31645115 -4.8125 2.25 C-5.8125 1.25 -6.8125 0.25 -7.8125 -0.75 C-4.19770876 -1.95493041 -3.41532607 -1.44797234 0 0 Z " fill="#A59162" transform="translate(67.8125,87.75)"/>
<path d="M0 0 C3.0625 0.25 3.0625 0.25 6 1 C6.495 1.99 6.495 1.99 7 3 C7.99 3.66 8.98 4.32 10 5 C7.1875 5.625 7.1875 5.625 4 6 C3.01 5.34 2.02 4.68 1 4 C-1.03095121 4.20392565 -1.03095121 4.20392565 -3.25 4.875 C-9.06275772 6.21903971 -14.64102409 6.11425538 -20.58203125 5.97265625 C-23.91597012 5.87877862 -23.91597012 5.87877862 -26.76171875 6.62109375 C-29 7 -29 7 -32 5 C-32 4.34 -32 3.68 -32 3 C-29.03 2.34 -26.06 1.68 -23 1 C-23.33 1.66 -23.66 2.32 -24 3 C-23.4225 2.814375 -22.845 2.62875 -22.25 2.4375 C-19.73154364 1.94780015 -18.44547696 2.33305174 -16 3 C-13.41619823 3.25030977 -13.41619823 3.25030977 -11 3 C-10.34 2.34 -9.68 1.68 -9 1 C-6.66666667 1.33333333 -4.33333333 1.66666667 -2 2 C-1.34 1.34 -0.68 0.68 0 0 Z " fill="#DABD7C" transform="translate(92,36)"/>
<path d="M0 0 C4.29 0 8.58 0 13 0 C14.485 4.455 14.485 4.455 16 9 C15.34 8.67 14.68 8.34 14 8 C13.26924352 5.6859378 12.59861742 3.35171131 12 1 C8.7 1 5.4 1 2 1 C0.95319577 3.54223884 -0.02359241 6.0724624 -0.875 8.6875 C-2.63505872 13.86989511 -4.48274548 19.15514777 -7.0625 23.9921875 C-8.1018167 25.98167773 -8.1018167 25.98167773 -8.37109375 28.26171875 C-9.26435669 32.1510189 -11.13839563 35.33980731 -13.0625 38.8125 C-13.43955078 39.50537109 -13.81660156 40.19824219 -14.20507812 40.91210938 C-15.13083852 42.61128985 -16.06462312 44.30609425 -17 46 C-17.33 45.34 -17.66 44.68 -18 44 C-17.22012416 41.6816868 -16.37497034 39.47725413 -15.4296875 37.2265625 C-15.15158234 36.54757904 -14.87347717 35.86859558 -14.58694458 35.16903687 C-13.69019609 32.9846319 -12.78275055 30.80485271 -11.875 28.625 C-11.28575489 27.19429993 -10.69720539 25.76331316 -10.109375 24.33203125 C-8.41662655 20.21701759 -6.71033431 16.10773038 -5 12 C-4.73948853 11.37379761 -4.47897705 10.74759521 -4.21057129 10.10241699 C-2.80917726 6.73405101 -1.40505938 3.36684039 0 0 Z " fill="#A99469" transform="translate(613,108)"/>
<path d="M0 0 C4.29 0 8.58 0 13 0 C14.32 1.65 15.64 3.3 17 5 C16.67 5.66 16.34 6.32 16 7 C14.5 5.625 14.5 5.625 13 4 C13 3.34 13 2.68 13 2 C11.35425434 1.97311849 9.70838587 1.95365877 8.0625 1.9375 C6.68771484 1.92009766 6.68771484 1.92009766 5.28515625 1.90234375 C3.03406673 1.74050951 3.03406673 1.74050951 2 3 C1.90680551 4.5348297 1.882542 6.07392082 1.88647461 7.61157227 C1.88655014 8.59251358 1.88662567 9.5734549 1.88670349 10.5841217 C1.89186478 11.6507756 1.89702606 12.7174295 1.90234375 13.81640625 C1.9037587 14.9025975 1.90517365 15.98878876 1.90663147 17.1078949 C1.91224952 20.59279075 1.92480508 24.07762342 1.9375 27.5625 C1.94251267 29.91861887 1.94707598 32.27473874 1.95117188 34.63085938 C1.96222482 40.42059743 1.97950154 46.21028799 2 52 C5.3 52.66 8.6 53.32 12 54 C12 51.36 12 48.72 12 46 C12.33 46 12.66 46 13 46 C13 48.97 13 51.94 13 55 C8.71 55 4.42 55 0 55 C0 36.85 0 18.7 0 0 Z " fill="#A28E62" transform="translate(374,108)"/>
<path d="M0 0 C2.97 0.495 2.97 0.495 6 1 C5.01 1.33 4.02 1.66 3 2 C3 2.66 3 3.32 3 4 C2.01 4 1.02 4 0 4 C0 4.99 0 5.98 0 7 C-8.7511989 12.19655331 -8.7511989 12.19655331 -14.0390625 11.734375 C-16.7950785 10.97665631 -19.37145732 10.12043229 -22 9 C-22.74378906 8.69191406 -23.48757812 8.38382813 -24.25390625 8.06640625 C-26 7 -26 7 -27 4 C-26.34 4 -25.68 4 -25 4 C-25 4.66 -25 5.32 -25 6 C-24.13375 5.690625 -24.13375 5.690625 -23.25 5.375 C-20.42481692 4.90413615 -19.45449344 5.61934744 -17 7 C-15.6757713 7.36784131 -14.34386088 7.71202981 -13 8 C-13 7.34 -13 6.68 -13 6 C-10.36 6.33 -7.72 6.66 -5 7 C-5.66 5.68 -6.32 4.36 -7 3 C-5.5459375 2.814375 -5.5459375 2.814375 -4.0625 2.625 C-3.051875 2.41875 -2.04125 2.2125 -1 2 C-0.67 1.34 -0.34 0.68 0 0 Z " fill="#D5C58D" transform="translate(141,57)"/>
<path d="M0 0 C6.249375 -0.0928125 6.249375 -0.0928125 12.625 -0.1875 C13.92775879 -0.21481201 15.23051758 -0.24212402 16.57275391 -0.27026367 C27.37918808 -0.34806197 27.37918808 -0.34806197 32 3 C32.495 3.99 32.495 3.99 33 5 C29.55159242 4.20421364 26.40094522 3.13364841 23 2 C16.07 1.67 9.14 1.34 2 1 C1.67 17.5 1.34 34 1 51 C0.67 51 0.34 51 0 51 C0 34.17 0 17.34 0 0 Z " fill="#A58F64" transform="translate(530,108)"/>
<path d="M0 0 C6.4309854 -0.40419212 10.56870579 0.69047648 16.3125 3.5 C21.42281605 6.10587222 21.42281605 6.10587222 27 7 C27.33 7.99 27.66 8.98 28 10 C26.3125 10.6875 26.3125 10.6875 24 11 C22.31791365 10.02616054 20.65261839 9.02304948 19 8 C15.58674935 7.18378789 12.8893566 7.00763058 9.375 7.25 C6 7 6 7 3.6875 4.625 C3.130625 3.75875 2.57375 2.8925 2 2 C1.34 1.34 0.68 0.68 0 0 Z " fill="#D7C28D" transform="translate(36,137)"/>
<path d="M0 0 C6.56773959 -0.41794706 11.03899527 0.82426304 17 3.5 C18.16208984 4.00080078 18.16208984 4.00080078 19.34765625 4.51171875 C21.23738707 5.3282691 23.11953248 6.1623372 25 7 C24 10 24 10 22.15234375 10.94921875 C21.42144531 11.19285156 20.69054687 11.43648437 19.9375 11.6875 C19.20402344 11.93886719 18.47054687 12.19023438 17.71484375 12.44921875 C17.14894531 12.63097656 16.58304688 12.81273437 16 13 C16 12.34 16 11.68 16 11 C16.99 11 17.98 11 19 11 C18.37195713 8.99990103 18.37195713 8.99990103 17 7 C14.54739609 5.86112152 14.54739609 5.86112152 11.6875 5.25 C10.74261719 5.00765625 9.79773438 4.7653125 8.82421875 4.515625 C4.79984047 3.78088374 1.89379695 3.70206768 -2 5 C-1.34 3.35 -0.68 1.7 0 0 Z " fill="#BEA97A" transform="translate(125,50)"/>
<path d="M0 0 C2.68762943 2.57077598 3.94746924 3.91230425 4.1328125 7.75 C4.13023438 8.8225 4.12765625 9.895 4.125 11 C4.12757812 12.0725 4.13015625 13.145 4.1328125 14.25 C4 17 4 17 3 19 C2.34 19 1.68 19 1 19 C0.67 19.99 0.34 20.98 0 22 C-0.66 22 -1.32 22 -2 22 C-2.33 22.66 -2.66 23.32 -3 24 C-2.55422168 21.17673731 -2.08475788 18.3741455 -1.453125 15.5859375 C-0.35168544 10.65922811 0.12712013 7.00942282 -1 2 C-0.67 1.34 -0.34 0.68 0 0 Z " fill="#D3BF86" transform="translate(98,144)"/>
<path d="M0 0 C4.29 0 8.58 0 13 0 C13 6.93 13 13.86 13 21 C12.67 21 12.34 21 12 21 C11.93941406 19.71222656 11.87882812 18.42445312 11.81640625 17.09765625 C11.73201753 15.41925841 11.6473687 13.74087364 11.5625 12.0625 C11.52318359 11.21236328 11.48386719 10.36222656 11.44335938 9.48632812 C11.38051758 8.27299805 11.38051758 8.27299805 11.31640625 7.03515625 C11.27974854 6.2862915 11.24309082 5.53742676 11.20532227 4.76586914 C11.18228937 2.97538674 11.18228937 2.97538674 10 2 C7.36 1.67 4.72 1.34 2 1 C1.67 14.86 1.34 28.72 1 43 C0.67 43 0.34 43 0 43 C0 28.81 0 14.62 0 0 Z " fill="#A79569" transform="translate(428,108)"/>
<path d="M0 0 C0.66 0.33 1.32 0.66 2 1 C2 3.97 2 6.94 2 10 C1.34 9.67 0.68 9.34 0 9 C-0.99 9.33 -1.98 9.66 -3 10 C-3.99 10 -4.98 10 -6 10 C-7.41377341 12.63904371 -8.37240135 15.07120629 -9 18 C-10.5625 16.75 -10.5625 16.75 -12 15 C-11.8425103 10.59028849 -8.42605089 8.09304092 -5.4375 5.25 C-4.91736328 4.74339844 -4.39722656 4.23679687 -3.86132812 3.71484375 C-2.58089916 2.46965595 -1.29132446 1.23388498 0 0 Z " fill="#C9B37C" transform="translate(152,62)"/>
<path d="M0 0 C-2.32699449 1.1604673 -4.66029746 2.30316604 -7 3.4375 C-7.64839844 3.76298828 -8.29679687 4.08847656 -8.96484375 4.42382812 C-13.69670273 6.69605744 -17.76438733 7.58512444 -23 8 C-23 8.66 -23 9.32 -23 10 C-22.34 10 -21.68 10 -21 10 C-21 10.66 -21 11.32 -21 12 C-21.66 12 -22.32 12 -23 12 C-23.33 12.66 -23.66 13.32 -24 14 C-23.360625 14.12375 -22.72125 14.2475 -22.0625 14.375 C-21.381875 14.58125 -20.70125 14.7875 -20 15 C-19.67 15.66 -19.34 16.32 -19 17 C-23.05281712 15.77472971 -26.44360764 14.30119506 -30 12 C-29.67 11.01 -29.34 10.02 -29 9 C-26.43969727 7.72558594 -26.43969727 7.72558594 -23.06640625 6.484375 C-21.86048828 6.03835937 -20.65457031 5.59234375 -19.41210938 5.1328125 C-18.78071045 4.90625977 -18.14931152 4.67970703 -17.4987793 4.44628906 C-15.56840347 3.7521229 -13.64643419 3.03776752 -11.72460938 2.3203125 C-2.26700864 -1.13350432 -2.26700864 -1.13350432 0 0 Z " fill="#8F7A53" transform="translate(44,47)"/>
<path d="M0 0 C0.33 0 0.66 0 1 0 C1 2.97 1 5.94 1 9 C6.94 9 12.88 9 19 9 C19 12.96 19 16.92 19 21 C13.06 21 7.12 21 1 21 C1 20.67 1 20.34 1 20 C6.28 20 11.56 20 17 20 C17 17.69 17 15.38 17 13 C14.94077598 10.94077598 10.78291876 11.58572421 7.9375 11.4375 C7.17888672 11.39431641 6.42027344 11.35113281 5.63867188 11.30664062 C3.75934562 11.20026367 1.87969756 11.09960066 0 11 C0 7.37 0 3.74 0 0 Z " fill="#9F8C62" transform="translate(201,120)"/>
<path d="M0 0 C1.62928325 -0.08560641 3.25569243 -0.23816275 4.875 -0.4375 C8.27991702 -0.84879732 11.5690821 -1.05533739 15 -1 C14.67 -0.01 14.34 0.98 14 2 C8.82682579 3.06309567 3.87630664 3.11693938 -1.375 3.0625 C-2.20644531 3.05798828 -3.03789063 3.05347656 -3.89453125 3.04882812 C-5.92971897 3.03713164 -7.96486923 3.01919935 -10 3 C-10.33 2.01 -10.66 1.02 -11 0 C-6.37207669 -2.12634314 -4.77511346 -1.59170449 0 0 Z " fill="#CCB174" transform="translate(64,42)"/>
<path d="M0 0 C2.475 0.99 2.475 0.99 5 2 C5 14.87 5 27.74 5 41 C2.91649635 36.8329927 2.77250426 35.12092169 2.83984375 30.58984375 C2.8562793 28.73456055 2.8562793 28.73456055 2.87304688 26.84179688 C2.89431641 25.55337891 2.91558594 24.26496094 2.9375 22.9375 C2.97188399 20.38417047 3.00203583 17.83077937 3.02734375 15.27734375 C3.04531006 14.14546631 3.06327637 13.01358887 3.08178711 11.84741211 C3.13500141 8.92357207 3.13500141 8.92357207 2 6 C0.35 5.67 -1.3 5.34 -3 5 C-1.125 1.125 -1.125 1.125 0 0 Z " fill="#B39E71" transform="translate(75,121)"/>
<path d="M0 0 C0.33 0 0.66 0 1 0 C2.0162256 5.60805977 1.96017114 10.76497252 1.5625 16.4375 C1.51029297 17.26443359 1.45808594 18.09136719 1.40429688 18.94335938 C1.27590237 20.96265478 1.13884576 22.98139629 1 25 C2.65 25 4.3 25 6 25 C5.43628586 28.26954202 4.50037734 29.82575883 2 32 C2.66 32 3.32 32 4 32 C3.34 33.32 2.68 34.64 2 36 C1.34 36 0.68 36 0 36 C0 24.12 0 12.24 0 0 Z " fill="#AF9468" transform="translate(10,96)"/>
<path d="M0 0 C0.66 0.99 1.32 1.98 2 3 C1.01 3.33 0.02 3.66 -1 4 C-1.66 3.67 -2.32 3.34 -3 3 C-2.67 4.98 -2.34 6.96 -2 9 C-5.00610306 8.01761338 -8.00429568 7.0136219 -11 6 C-11.99 5.67 -12.98 5.34 -14 5 C-16 4 -16 4 -17 1 C-15.39125 1.2784375 -15.39125 1.2784375 -13.75 1.5625 C-10.50500633 1.94108259 -8.97938242 1.95765864 -6 1 C-5.01 1 -4.02 1 -3 1 C-2.01 0.67 -1.02 0.34 0 0 Z " fill="#C5AA72" transform="translate(117,55)"/>
<path d="M0 0 C4.84286815 1.49359485 9.31350896 3.45033567 13.875 5.625 C14.56335938 5.94984375 15.25171875 6.2746875 15.9609375 6.609375 C17.64205219 7.40323472 19.32122921 8.20119558 21 9 C20.67 9.66 20.34 10.32 20 11 C17.525 10.505 17.525 10.505 15 10 C15 9.34 15 8.68 15 8 C10.98195309 7.15901344 7.98196457 6.94595055 4 8 C3.7525 7.38125 3.505 6.7625 3.25 6.125 C1.79371361 3.64931313 0.62187494 3.04874998 -2 2 C-1.34 2 -0.68 2 0 2 C0 1.34 0 0.68 0 0 Z " fill="#A68F64" transform="translate(54,112)"/>
<path d="M0 0 C3.59297223 -0.44912153 5.72246335 0.24925512 8.8125 1.9375 C12.92235372 4.15290686 16.36399029 4.66885645 21 5 C21 5.66 21 6.32 21 7 C21.66 7 22.32 7 23 7 C23 7.99 23 8.98 23 10 C25.475 10.495 25.475 10.495 28 11 C28 11.66 28 12.32 28 13 C21.35233644 10.9770602 15.18055813 8.34927071 8.9375 5.3125 C8.07189453 4.89677734 7.20628906 4.48105469 6.31445312 4.05273438 C4.20729015 3.03989913 2.1025906 2.0222841 0 1 C0 0.67 0 0.34 0 0 Z " fill="#A4905F" transform="translate(33,92)"/>
<path d="M0 0 C0.33 0.99 0.66 1.98 1 3 C2.32 2.67 3.64 2.34 5 2 C4.67 3.32 4.34 4.64 4 6 C2.3373217 6.35268934 0.66934283 6.68033861 -1 7 C-2.5159375 7.309375 -2.5159375 7.309375 -4.0625 7.625 C-10.43568193 8.23196971 -17.55416461 8.63055693 -23 5 C-21.75863281 5.05800781 -20.51726562 5.11601563 -19.23828125 5.17578125 C-17.59639186 5.22269238 -15.95446168 5.26819109 -14.3125 5.3125 C-13.49587891 5.35439453 -12.67925781 5.39628906 -11.83789062 5.43945312 C-7.26744186 5.53197233 -5.59262788 5.48446766 -1.91796875 2.48046875 C-1.28503906 1.66191406 -0.65210937 0.84335938 0 0 Z " fill="#A28C60" transform="translate(124,89)"/>
<path d="M0 0 C0 5.61 0 11.22 0 17 C-2.64 17 -5.28 17 -8 17 C-6.68 16.67 -5.36 16.34 -4 16 C-4 15.34 -4 14.68 -4 14 C-3.34 14 -2.68 14 -2 14 C-1.67 10.37 -1.34 6.74 -1 3 C-2.65 3.33 -4.3 3.66 -6 4 C-8.3125 3.0625 -8.3125 3.0625 -10 2 C-6.60610229 -1.39389771 -4.62737121 -1.1568428 0 0 Z " fill="#C3A976" transform="translate(92,69)"/>
<path d="M0 0 C-2.22648599 2.56045889 -3.68669466 3.38599586 -7 4 C-8.83074172 4.11576749 -10.6656449 4.17490141 -12.5 4.1875 C-13.4384375 4.20167969 -14.376875 4.21585938 -15.34375 4.23046875 C-18.05994337 3.99479903 -19.67915046 3.38484654 -22 2 C-21.18015625 1.86722656 -20.3603125 1.73445313 -19.515625 1.59765625 C-18.43796875 1.42105469 -17.3603125 1.24445312 -16.25 1.0625 C-15.18265625 0.88847656 -14.1153125 0.71445312 -13.015625 0.53515625 C-10.1206693 0.06770552 -10.1206693 0.06770552 -7.8125 -0.59375 C-5.08759203 -1.20450523 -2.70118799 -0.55251573 0 0 Z " fill="#B9995F" transform="translate(90,45)"/>
<path d="M0 0 C0.598125 0.53625 1.19625 1.0725 1.8125 1.625 C-1.75467969 4.00311979 -4.4460199 5.70792762 -8.8125 5.5 C-11.70226367 4.43535023 -12.46395031 3.10571603 -14.1875 0.625 C-4.19187637 -1.80826039 -4.19187637 -1.80826039 0 0 Z " fill="#B29A63" transform="translate(43.1875,63.375)"/>
<path d="M0 0 C2.97 0.495 2.97 0.495 6 1 C5.125 6.75 5.125 6.75 4 9 C-0.95 9 -5.9 9 -11 9 C-10.01 6.36 -9.02 3.72 -8 1 C-7.34 1.33 -6.68 1.66 -6 2 C-6.33 3.65 -6.66 5.3 -7 7 C-4.03 7 -1.06 7 2 7 C2 5.68 2 4.36 2 3 C1.34 2.67 0.68 2.34 0 2 C0 1.34 0 0.68 0 0 Z " fill="#A38B5B" transform="translate(602,154)"/>
<path d="M0 0 C1.94113934 0.92994117 3.8777951 1.8692453 5.8125 2.8125 C6.89144531 3.33457031 7.97039063 3.85664062 9.08203125 4.39453125 C11.6107469 5.78583263 13.05329501 6.95975963 15 9 C15.99 9.33 16.98 9.66 18 10 C18.33 10.99 18.66 11.98 19 13 C16 14 16 14 13.8125 13.0625 C13.214375 12.711875 12.61625 12.36125 12 12 C12 11.34 12 10.68 12 10 C11.01 10.33 10.02 10.66 9 11 C8.814375 10.05125 8.62875 9.1025 8.4375 8.125 C7.26599195 4.61628301 7.26599195 4.61628301 3.375 3.625 C2.26125 3.41875 1.1475 3.2125 0 3 C0 2.01 0 1.02 0 0 Z " fill="#E5C888" transform="translate(20,65)"/>
<path d="M0 0 C0 0.66 0 1.32 0 2 C0.99 1.67 1.98 1.34 3 1 C3 1.66 3 2.32 3 3 C3.99 3 4.98 3 6 3 C6 3.66 6 4.32 6 5 C5.34 5 4.68 5 4 5 C4 5.66 4 6.32 4 7 C6.97 7.495 6.97 7.495 10 8 C9.67 8.99 9.34 9.98 9 11 C6.68109183 9.90786906 4.37050252 8.80224952 2.0625 7.6875 C1.0734668 7.2244043 1.0734668 7.2244043 0.06445312 6.75195312 C-1.66276021 5.91049022 -3.3360527 4.96052335 -5 4 C-5.33 3.01 -5.66 2.02 -6 1 C-3.92446352 0.4465236 -2.15634036 0 0 0 Z " fill="#D1BC89" transform="translate(42,151)"/>
<path d="M0 0 C1.65 0 3.3 0 5 0 C5.33 1.32 5.66 2.64 6 4 C5.0409375 4.2784375 5.0409375 4.2784375 4.0625 4.5625 C1.57873787 5.94246056 1.57873787 5.94246056 1.25 9.625 C1.1675 10.73875 1.085 11.8525 1 13 C1.969375 13.28875 2.93875 13.5775 3.9375 13.875 C7 15 7 15 8 17 C1.125 15.125 1.125 15.125 0 14 C-0.07271741 11.64686445 -0.08370868 9.29166332 -0.0625 6.9375 C-0.05347656 5.64714844 -0.04445312 4.35679688 -0.03515625 3.02734375 C-0.02355469 2.02832031 -0.01195312 1.02929688 0 0 Z " fill="#A68B63" transform="translate(42,114)"/>
<path d="M0 0 C4.13585402 0.57901956 7.74133771 1.52042122 11.6171875 3.06640625 C12.63554688 3.46923828 13.65390625 3.87207031 14.703125 4.28710938 C15.74984375 4.70798828 16.7965625 5.12886719 17.875 5.5625 C18.94492188 5.98724609 20.01484375 6.41199219 21.1171875 6.84960938 C23.74694526 7.89446849 26.37440342 8.94473782 29 10 C22.09492574 12.05809989 15.8620093 8.12989192 9.66796875 5.2421875 C6.47367834 3.75494833 3.245749 2.37042736 0 1 C0 0.67 0 0.34 0 0 Z " fill="#A28F62" transform="translate(103,40)"/>
<path d="M0 0 C4.05281712 1.22527029 7.44360764 2.69880494 11 5 C9.66666667 5.33333333 8.33333333 5.66666667 7 6 C5.9171875 6.309375 5.9171875 6.309375 4.8125 6.625 C4.214375 6.74875 3.61625 6.8725 3 7 C2.67 6.67 2.34 6.34 2 6 C0.33382885 5.95936168 -1.33388095 5.957279 -3 6 C-2 4 -1 2 0 0 Z " fill="#C0A160" transform="translate(52,81)"/>
<path d="M0 0 C2.64656616 2.64656616 3.44524611 5.66245757 4.625 9.125 C5.40875 11.39375 6.1925 13.6625 7 16 C2.05 16 -2.9 16 -8 16 C-8 15.34 -8 14.68 -8 14 C-4.04 14.33 -0.08 14.66 4 15 C3.67 13.35 3.34 11.7 3 10 C2.34 10 1.68 10 1 10 C0.67 6.7 0.34 3.4 0 0 Z " fill="#9E885D" transform="translate(522,147)"/>
<path d="M0 0 C3.63 0.33 7.26 0.66 11 1 C10.67 2.32 10.34 3.64 10 5 C8.54207116 5.05399736 7.08357288 5.09279177 5.625 5.125 C4.81289062 5.14820313 4.00078125 5.17140625 3.1640625 5.1953125 C1 5 1 5 -1 3 C-0.67 2.01 -0.34 1.02 0 0 Z " fill="#8B6A3E" transform="translate(71,49)"/>
<path d="M0 0 C0.99 0 1.98 0 3 0 C3.33 0.66 3.66 1.32 4 2 C4.66 1.67 5.32 1.34 6 1 C6.99 1.99 7.98 2.98 9 4 C7.40084119 4.69906942 5.79544955 5.38389468 4.1875 6.0625 C3.29417969 6.44535156 2.40085937 6.82820313 1.48046875 7.22265625 C-1 8 -1 8 -4 7 C-2.68 6.67 -1.36 6.34 0 6 C-0.185625 5.38125 -0.37125 4.7625 -0.5625 4.125 C-1 2 -1 2 0 0 Z " fill="#A1885D" transform="translate(48,57)"/>
<path d="M0 0 C0.99 0.33 1.98 0.66 3 1 C3.75 3 3.75 3 4 5 C3.67 5.33 3.34 5.66 3 6 C2.76572222 8.01594582 2.58663876 10.038474 2.4375 12.0625 C2.31181641 13.71958984 2.31181641 13.71958984 2.18359375 15.41015625 C2.12300781 16.26480469 2.06242187 17.11945313 2 18 C1.34 17.67 0.68 17.34 0 17 C0 11.39 0 5.78 0 0 Z " fill="#DDC690" transform="translate(84,143)"/>
<path d="M0 0 C1.4540625 0.0309375 1.4540625 0.0309375 2.9375 0.0625 C2.2775 1.3825 1.6175 2.7025 0.9375 4.0625 C2.2575 4.7225 3.5775 5.3825 4.9375 6.0625 C4.2775 6.7225 3.6175 7.3825 2.9375 8.0625 C-0.6925 6.4125 -4.3225 4.7625 -8.0625 3.0625 C-6.7425 2.4025 -5.4225 1.7425 -4.0625 1.0625 C-3.0625 0.0625 -3.0625 0.0625 0 0 Z " fill="#C2AB7B" transform="translate(58.0625,128.9375)"/>
<path d="M0 0 C2.97 0.495 2.97 0.495 6 1 C5.01 1.33 4.02 1.66 3 2 C3 2.66 3 3.32 3 4 C2.01 4 1.02 4 0 4 C0 4.99 0 5.98 0 7 C-1.65 7.33 -3.3 7.66 -5 8 C-5.66 6.35 -6.32 4.7 -7 3 C-5.5459375 2.814375 -5.5459375 2.814375 -4.0625 2.625 C-2.5465625 2.315625 -2.5465625 2.315625 -1 2 C-0.67 1.34 -0.34 0.68 0 0 Z " fill="#D3BA82" transform="translate(141,57)"/>
<path d="M0 0 C1.258125 -0.020625 2.51625 -0.04125 3.8125 -0.0625 C4.52019531 -0.07410156 5.22789063 -0.08570313 5.95703125 -0.09765625 C8 0 8 0 11 1 C12.1875 3.0625 12.1875 3.0625 13 5 C11.68 4.67 10.36 4.34 9 4 C8.34 5.32 7.68 6.64 7 8 C5.5 6.6875 5.5 6.6875 4 5 C4 4.01 4 3.02 4 2 C2.68 2.33 1.36 2.66 0 3 C0 2.01 0 1.02 0 0 Z " fill="#8C6F47" transform="translate(84,52)"/>
<path d="M0 0 C6.99155447 0.01431229 11.73379026 1.6145421 17.5625 5.375 C15.5625 6.375 15.5625 6.375 13.13671875 5.59765625 C11.21986669 4.82728404 9.30319843 4.05645435 7.38671875 3.28515625 C3.31599044 1.97328945 0.60342774 2.02802409 -3.4375 3.375 C-5.625 2.4375 -5.625 2.4375 -7.4375 1.375 C-5.5494684 -0.5130316 -2.52589623 0.07069247 0 0 Z " fill="#A69369" transform="translate(305.4375,106.625)"/>
<path d="M0 0 C1.3125 2.0625 1.3125 2.0625 2 4 C-4.75 5 -4.75 5 -7 5 C-7 3.35 -7 1.7 -7 0 C-4.25509788 -1.37245106 -2.87939419 -0.93580311 0 0 Z " fill="#A98E51" transform="translate(71,91)"/>
<path d="M0 0 C2.97 0.99 5.94 1.98 9 3 C8.01 4.485 8.01 4.485 7 6 C7 5.34 7 4.68 7 4 C5.824375 5.2375 5.824375 5.2375 4.625 6.5 C2 9 2 9 0 9 C0 6.03 0 3.06 0 0 Z " fill="#B19565" transform="translate(136,121)"/>
<path d="M0 0 C0.66 0.33 1.32 0.66 2 1 C2 3.97 2 6.94 2 10 C1.34 9.67 0.68 9.34 0 9 C-0.99 9.33 -1.98 9.66 -3 10 C-3.66 9.01 -4.32 8.02 -5 7 C-4.34 7 -3.68 7 -3 7 C-2.690625 6.030625 -2.38125 5.06125 -2.0625 4.0625 C-1 1 -1 1 0 0 Z " fill="#D0B981" transform="translate(152,62)"/>
<path d="M0 0 C2.475 0.495 2.475 0.495 5 1 C5 1.99 5 2.98 5 4 C-1.85988773 4.94870788 -8.14011227 4.94870788 -15 4 C-11.32221294 2.03206131 -8.19216779 1.29944056 -4 1 C-1.5625 1.9375 -1.5625 1.9375 0 3 C0 2.01 0 1.02 0 0 Z " fill="#CAAE74" transform="translate(98,38)"/>
<path d="M0 0 C3.12613393 2.96160056 5.04783565 5.09567131 7 9 C1.72 9 -3.56 9 -9 9 C-9 8.67 -9 8.34 -9 8 C-3.06 7.505 -3.06 7.505 3 7 C2.01 5.35 1.02 3.7 0 2 C0 1.34 0 0.68 0 0 Z " fill="#9C865D" transform="translate(568,154)"/>
<path d="M0 0 C-2.41464681 1.15026086 -4.83153318 2.29532205 -7.25 3.4375 C-7.93191406 3.76298828 -8.61382812 4.08847656 -9.31640625 4.42382812 C-9.98027344 4.73642578 -10.64414062 5.04902344 -11.328125 5.37109375 C-11.9355957 5.65911865 -12.54306641 5.94714355 -13.16894531 6.24389648 C-17.29677929 7.94841673 -21.59490936 8.40700703 -26 9 C-23.21939667 6.21939667 -19.87694911 5.31298158 -16.25 4 C-15.54617187 3.73960938 -14.84234375 3.47921875 -14.1171875 3.2109375 C-12.0822338 2.46201402 -10.04172849 1.73020859 -8 1 C-6.88109375 0.5875 -5.7621875 0.175 -4.609375 -0.25 C-2 -1 -2 -1 0 0 Z " fill="#846F50" transform="translate(44,47)"/>
<path d="M0 0 C5.67276511 -0.29341888 8.99067246 -0.00559652 14 3 C10.73050748 4.63474626 7.22843775 4.01418775 3.62890625 3.9375 C0.88888663 3.87393186 0.88888663 3.87393186 -2 5 C-1.34 3.35 -0.68 1.7 0 0 Z " fill="#B89E68" transform="translate(125,50)"/>
<path d="M0 0 C0.33 0 0.66 0 1 0 C1 1.65 1 3.3 1 5 C-1.28703308 6.19725883 -3.57884862 7.38297018 -5.875 8.5625 C-6.52597656 8.90474609 -7.17695312 9.24699219 -7.84765625 9.59960938 C-9.53529857 10.46082891 -11.26579593 11.23686703 -13 12 C-13.66 11.67 -14.32 11.34 -15 11 C-13.02 10.34 -11.04 9.68 -9 9 C-9 8.34 -9 7.68 -9 7 C-7.68 7 -6.36 7 -5 7 C-5 6.34 -5 5.68 -5 5 C-3.625 3.375 -3.625 3.375 -2 2 C-1.34 2 -0.68 2 0 2 C0 1.34 0 0.68 0 0 Z " fill="#BFAC80" transform="translate(101,161)"/>
<path d="M0 0 C3.66871014 2.44580676 5.06212134 5.12424268 7 9 C5.5164999 8.57742724 4.03823576 8.13643678 2.5625 7.6875 C1.73878906 7.44386719 0.91507813 7.20023438 0.06640625 6.94921875 C-0.61550781 6.63597656 -1.29742187 6.32273438 -2 6 C-2.33 5.01 -2.66 4.02 -3 3 C-2.01 2.01 -1.02 1.02 0 0 Z " fill="#DBC48E" transform="translate(13,137)"/>
<path d="M0 0 C0.66 0.33 1.32 0.66 2 1 C1.67 1.99 1.34 2.98 1 4 C0.34 3.67 -0.32 3.34 -1 3 C-1 7.62 -1 12.24 -1 17 C-4.16130459 12.78492722 -4.3367697 11.93928888 -4 7 C-3.34 7 -2.68 7 -2 7 C-2 5.02 -2 3.04 -2 1 C-1.34 0.67 -0.68 0.34 0 0 Z " fill="#B39A6E" transform="translate(30,88)"/>
<path d="M0 0 C4.33304076 0.64465202 7.86672065 2.18925122 11.8125 4.0625 C12.97394531 4.61035156 14.13539062 5.15820312 15.33203125 5.72265625 C16.21246094 6.14417969 17.09289062 6.56570312 18 7 C18 7.33 18 7.66 18 8 C16.02 8.33 14.04 8.66 12 9 C11.67 8.34 11.34 7.68 11 7 C10.34 6.855625 9.68 6.71125 9 6.5625 C8.34 6.376875 7.68 6.19125 7 6 C6.67 5.01 6.34 4.02 6 3 C5.195625 2.87625 4.39125 2.7525 3.5625 2.625 C2.716875 2.41875 1.87125 2.2125 1 2 C0.67 1.34 0.34 0.68 0 0 Z " fill="#C7B484" transform="translate(32,72)"/>
<path d="M0 0 C2.00720923 0.28674418 4.0085944 0.61866701 6 1 C5.67 1.99 5.34 2.98 5 4 C-1.625 4.125 -1.625 4.125 -5 3 C-6.32 3 -7.64 3 -9 3 C-7 1 -7 1 -3.9375 0.9375 C-2.4834375 0.9684375 -2.4834375 0.9684375 -1 1 C-0.67 0.67 -0.34 0.34 0 0 Z " fill="#E3C786" transform="translate(76,36)"/>
<path d="M0 0 C2.64 0.33 5.28 0.66 8 1 C8 1.66 8 2.32 8 3 C6.02 3 4.04 3 2 3 C1.67 7.62 1.34 12.24 1 17 C0.67 17 0.34 17 0 17 C0 11.39 0 5.78 0 0 Z " fill="#91754D" transform="translate(84,112)"/>
<path d="M0 0 C1 3 1 3 -1 8 C-5.95 8 -10.9 8 -16 8 C-15.34 7.01 -14.68 6.02 -14 5 C-13.67 5.33 -13.34 5.66 -13 6 C-9.58542707 6.08567029 -6.31801655 5.81866095 -3 5 C-0.78693049 2.62744885 -0.78693049 2.62744885 0 0 Z " fill="#9F8A5E" transform="translate(488,155)"/>
<path d="M0 0 C0.99 0.99 1.98 1.98 3 3 C2.33677734 3.55300781 2.33677734 3.55300781 1.66015625 4.1171875 C-0.50624621 6.57414276 -1.38999638 9.07428524 -2.5625 12.125 C-4.78173719 17.8908686 -4.78173719 17.8908686 -7 19 C-5.17778624 12.38757278 -2.94776396 6.19479329 0 0 Z " fill="#A59365" transform="translate(492,113)"/>
<path d="M0 0 C0.66 0.66 1.32 1.32 2 2 C-0.64 2 -3.28 2 -6 2 C-6 2.66 -6 3.32 -6 4 C-9.78187881 5.83691257 -11.94568308 6.15837626 -16 5 C-11.86087349 0.86087349 -5.74903932 -0.68440944 0 0 Z " fill="#DCC896" transform="translate(85,32)"/>
<path d="M0 0 C3.36338044 3.36338044 4 6.28835716 4 11 C-0.62 11 -5.24 11 -10 11 C-9.67 10.34 -9.34 9.68 -9 9 C-5.37 9 -1.74 9 2 9 C1.34 7.35 0.68 5.7 0 4 C0 2.68 0 1.36 0 0 Z " fill="#9D8760" transform="translate(643,152)"/>
<path d="M0 0 C0.66 0 1.32 0 2 0 C1.67 6.27 1.34 12.54 1 19 C2.32 19.66 3.64 20.32 5 21 C5 21.33 5 21.66 5 22 C3.35 22 1.7 22 0 22 C0 14.74 0 7.48 0 0 Z " fill="#A38C63" transform="translate(458,141)"/>
<path d="M0 0 C0 2.31 0 4.62 0 7 C-0.66 5.68 -1.32 4.36 -2 3 C-3.175625 4.2065625 -3.175625 4.2065625 -4.375 5.4375 C-7 8 -7 8 -9 9 C-9 7.35 -9 5.7 -9 4 C-7.68872739 3.3309224 -6.3759455 2.66480194 -5.0625 2 C-4.33160156 1.62875 -3.60070312 1.2575 -2.84765625 0.875 C-1 0 -1 0 0 0 Z " fill="#A58D5F" transform="translate(137,94)"/>
<path d="M0 0 C1.58628608 0.59637091 3.16892059 1.20245925 4.75 1.8125 C5.63171875 2.14894531 6.5134375 2.48539063 7.421875 2.83203125 C9.93039808 3.96846822 11.87279005 5.26542927 14 7 C12.02 7 10.04 7 8 7 C8 6.34 8 5.68 8 5 C7.2575 4.87625 6.515 4.7525 5.75 4.625 C3.19858515 4.04513299 1.2732427 3.26291261 -1 2 C-0.67 1.34 -0.34 0.68 0 0 Z " fill="#C1AF86" transform="translate(28,130)"/>
<path d="M0 0 C2.64 0 5.28 0 8 0 C8 0.33 8 0.66 8 1 C6.35 1.33 4.7 1.66 3 2 C2.67 8.27 2.34 14.54 2 21 C1.67 21 1.34 21 1 21 C0.67 14.07 0.34 7.14 0 0 Z " fill="#AC9262" transform="translate(577,108)"/>
<path d="M0 0 C2.61973266 2.61973266 2.70813314 4.35166422 3 8 C2.02083184 10.7115426 1.05198782 11.94801218 -1 14 C-1.027193 12.41676312 -1.04648306 10.83338938 -1.0625 9.25 C-1.07410156 8.36828125 -1.08570312 7.4865625 -1.09765625 6.578125 C-1.00826198 4.2181162 -0.66912821 2.25501476 0 0 Z " fill="#B29769" transform="translate(85,125)"/>
<path d="M0 0 C2.1519437 3.22791555 2.20086443 4.28400809 2 8 C-1.465 9.485 -1.465 9.485 -5 11 C-4.731875 10.484375 -4.46375 9.96875 -4.1875 9.4375 C-2.67650593 6.33598585 -1.34427274 3.17737194 0 0 Z " fill="#A6895C" transform="translate(90,57)"/>
<path d="M0 0 C0.99 0 1.98 0 3 0 C3 0.99 3 1.98 3 3 C-3.625 5.125 -3.625 5.125 -7 4 C-7.99 4.33 -8.98 4.66 -10 5 C-10.33 4.01 -10.66 3.02 -11 2 C-10.28972656 1.93941406 -9.57945313 1.87882812 -8.84765625 1.81640625 C-7.46900391 1.69072266 -7.46900391 1.69072266 -6.0625 1.5625 C-5.14597656 1.48128906 -4.22945312 1.40007813 -3.28515625 1.31640625 C-1.03840268 1.23955024 -1.03840268 1.23955024 0 0 Z " fill="#927343" transform="translate(37,51)"/>
<path d="M0 0 C2.2477975 2.05233685 3.0022242 3.00667261 4 6 C3.07796291 8.36522558 2.08301035 10.70401807 1 13 C0.67 13 0.34 13 0 13 C0.020625 12.113125 0.04125 11.22625 0.0625 10.3125 C0.10182983 7.07324065 0.10182983 7.07324065 -0.5625 4.25 C-1 2 -1 2 0 0 Z " fill="#EBCF94" transform="translate(98,144)"/>
<path d="M0 0 C0.33 0 0.66 0 1 0 C1 1.65 1 3.3 1 5 C1.969375 5.12375 2.93875 5.2475 3.9375 5.375 C5.4534375 5.684375 5.4534375 5.684375 7 6 C7.33 6.66 7.66 7.32 8 8 C7.01 9.485 7.01 9.485 6 11 C1.125 8.25 1.125 8.25 0 6 C-0.039992 4.00039988 -0.04346799 1.99952758 0 0 Z " fill="#C6AA6F" transform="translate(73,75)"/>
<path d="M0 0 C0.309375 0.928125 0.309375 0.928125 0.625 1.875 C2.54775888 4.84653645 4.66594527 5.13024659 8 6 C4.8320594 7.87729813 2.64331523 8.09587672 -1 8 C-1.99 8.495 -1.99 8.495 -3 9 C-2 7 -1 5 0 3 C-0.66 2.67 -1.32 2.34 -2 2 C-1.34 2 -0.68 2 0 2 C0 1.34 0 0.68 0 0 Z " fill="#F4DB9E" transform="translate(19,64)"/>
<path d="M0 0 C1.916588 -0.02712153 3.8332873 -0.04645097 5.75 -0.0625 C7.35101563 -0.07990234 7.35101563 -0.07990234 8.984375 -0.09765625 C11.53368501 -0.01510087 13.57933591 0.25382442 16 1 C16 1.66 16 2.32 16 3 C10.22192976 3.2358396 5.48675196 2.86783046 0 1 C0 0.67 0 0.34 0 0 Z " fill="#A48B5D" transform="translate(294,161)"/>
<path d="M0 0 C3.37462715 0.54723683 5.08235 1.0549 8 3 C7.67 3.66 7.34 4.32 7 5 C4.69 5 2.38 5 0 5 C-0.33 4.01 -0.66 3.02 -1 2 C-0.67 1.34 -0.34 0.68 0 0 Z " fill="#E9D091" transform="translate(42,139)"/>
<path d="M0 0 C2.31 0 4.62 0 7 0 C6.360625 0.309375 5.72125 0.61875 5.0625 0.9375 C3.06389179 1.8345163 3.06389179 1.8345163 2 3 C1.76321284 5.69235776 1.57801975 8.36498156 1.4375 11.0625 C1.39431641 11.82111328 1.35113281 12.57972656 1.30664062 13.36132812 C1.20026367 15.24065438 1.09960066 17.12030244 1 19 C0.67 19 0.34 19 0 19 C0 12.73 0 6.46 0 0 Z " fill="#A89267" transform="translate(458,108)"/>
<path d="M0 0 C0.598125 0.20625 1.19625 0.4125 1.8125 0.625 C1.02875 1.3675 0.245 2.11 -0.5625 2.875 C-2.75254531 5.16933318 -4.01481386 6.74658858 -5.1875 9.625 C-5.48046875 3.5703125 -5.48046875 3.5703125 -5.1875 1.625 C-2.1875 -0.375 -2.1875 -0.375 0 0 Z " fill="#C4A877" transform="translate(15.1875,130.375)"/>
<path d="M0 0 C0.33 0 0.66 0 1 0 C1 3.3 1 6.6 1 10 C0.01 10 -0.98 10 -2 10 C-3.75 7.6875 -3.75 7.6875 -5 5 C-4.67 4.01 -4.34 3.02 -4 2 C-3.01 3.32 -2.02 4.64 -1 6 C-0.67 4.02 -0.34 2.04 0 0 Z " fill="#9E875B" transform="translate(408,132)"/>
<path d="M0 0 C5.75 1.75 5.75 1.75 8 4 C6.02 4.99 6.02 4.99 4 6 C3.34 5.34 2.68 4.68 2 4 C0.68252676 3.30251417 -0.64914193 2.63040043 -2 2 C-1.34 2 -0.68 2 0 2 C0 1.34 0 0.68 0 0 Z " fill="#9B7F5E" transform="translate(54,112)"/>
<path d="M0 0 C2.375 -0.1875 2.375 -0.1875 5 0 C5.66 0.99 6.32 1.98 7 3 C8.98 2.67 10.96 2.34 13 2 C11.35 3.65 9.7 5.3 8 7 C2.25 2.25 2.25 2.25 0 0 Z " fill="#A08F64" transform="translate(310,119)"/>
<path d="M0 0 C2.9375 0.375 2.9375 0.375 6 1 C6.33 1.66 6.66 2.32 7 3 C7.99 3.66 8.98 4.32 10 5 C7.125 5.625 7.125 5.625 4 6 C3.34 5.34 2.68 4.68 2 4 C2 3.01 2 2.02 2 1 C1.34 0.67 0.68 0.34 0 0 Z " fill="#D0B77D" transform="translate(92,36)"/>
<path d="M0 0 C1.08667969 0.29197266 1.08667969 0.29197266 2.1953125 0.58984375 C2.74960937 0.74582031 3.30390625 0.90179688 3.875 1.0625 C4.205 2.7125 4.535 4.3625 4.875 6.0625 C4.524375 5.588125 4.17375 5.11375 3.8125 4.625 C1.05731343 2.40307535 -1.67481423 2.5097463 -5.125 2.0625 C-5.455 1.4025 -5.785 0.7425 -6.125 0.0625 C-3.57797384 -1.21101308 -2.6967055 -0.73941925 0 0 Z " fill="#A69065" transform="translate(549.125,116.9375)"/>
<path d="M0 0 C-0.66 0 -1.32 0 -2 0 C-2.28875 0.639375 -2.5775 1.27875 -2.875 1.9375 C-4 4 -4 4 -6 5 C-6.99 4.34 -7.98 3.68 -9 3 C-9 2.34 -9 1.68 -9 1 C-3.375 -1.125 -3.375 -1.125 0 0 Z " fill="#D5C089" transform="translate(69,38)"/>
<path d="M0 0 C1.65 0 3.3 0 5 0 C4.75 1.875 4.75 1.875 4 4 C1.9375 5.25 1.9375 5.25 0 6 C0 4.02 0 2.04 0 0 Z " fill="#AF9059" transform="translate(11,121)"/>
<path d="M0 0 C0.33 0.66 0.66 1.32 1 2 C0.34 2 -0.32 2 -1 2 C-1 2.66 -1 3.32 -1 4 C-1.763125 4.268125 -2.52625 4.53625 -3.3125 4.8125 C-5.87380884 5.94424112 -7.19692938 6.91223401 -9 9 C-9.66 8.67 -10.32 8.34 -11 8 C-9.73427767 6.84852339 -8.46222094 5.70400686 -7.1875 4.5625 C-6.47980469 3.92441406 -5.77210938 3.28632812 -5.04296875 2.62890625 C-3 1 -3 1 0 0 Z " fill="#AA966B" transform="translate(296,108)"/>
<path d="M0 0 C0.66 0 1.32 0 2 0 C3 3 3 3 2 6 C0.35 5.67 -1.3 5.34 -3 5 C-1.125 1.125 -1.125 1.125 0 0 Z " fill="#916F40" transform="translate(67,48)"/>
<path d="M0 0 C2.75 0.8125 2.75 0.8125 5 2 C5 2.66 5 3.32 5 4 C4.01 4.33 3.02 4.66 2 5 C1.34 4.67 0.68 4.34 0 4 C-1.32860925 3.64830932 -2.66158328 3.31229724 -4 3 C-2.3125 1.375 -2.3125 1.375 0 0 Z " fill="#B2965A" transform="translate(120,48)"/>
<path d="M0 0 C-0.99 1.485 -0.99 1.485 -2 3 C-5.125 3.1875 -5.125 3.1875 -8 3 C-8 2.01 -8 1.02 -8 0 C-4.71023192 -1.09658936 -3.28696233 -0.79953138 0 0 Z " fill="#EDD292" transform="translate(87,34)"/>
<path d="M0 0 C6.875 2.75 6.875 2.75 8 5 C5.03 4.67 2.06 4.34 -1 4 C-1 1 -1 1 0 0 Z " fill="#B19D63" transform="translate(61,162)"/>
<path d="M0 0 C0.66 0.33 1.32 0.66 2 1 C0.88121617 2.17262904 -0.24523051 3.33795138 -1.375 4.5 C-2.00148438 5.1496875 -2.62796875 5.799375 -3.2734375 6.46875 C-5 8 -5 8 -7 8 C-6.01347016 4.68167234 -5.31268497 3.23451373 -2.5 1.125 C-1.675 0.75375 -0.85 0.3825 0 0 Z " fill="#B3A173" transform="translate(125,104)"/>
<path d="M0 0 C0.33 1.32 0.66 2.64 1 4 C-0.8125 4.6875 -0.8125 4.6875 -3 5 C-4.75 3.5625 -4.75 3.5625 -6 2 C-2.25 0 -2.25 0 0 0 Z " fill="#DECA8B" transform="translate(42,151)"/>
<path d="M0 0 C8.19256018 0.35010941 8.19256018 0.35010941 11.5625 3.0625 C12.036875 3.701875 12.51125 4.34125 13 5 C10.02277453 4.29666462 7.14743457 3.41751463 4.25 2.4375 C3.45078125 2.16808594 2.6515625 1.89867188 1.828125 1.62109375 C1.22484375 1.41613281 0.6215625 1.21117188 0 1 C0 0.67 0 0.34 0 0 Z " fill="#AC986C" transform="translate(550,108)"/>
<path d="M0 0 C3.96 1.98 7.92 3.96 12 6 C8.35839192 7.21386936 7.66834531 6.6674695 4.3125 5.0625 C3.50425781 4.68222656 2.69601563 4.30195312 1.86328125 3.91015625 C1.24839844 3.60980469 0.63351563 3.30945313 0 3 C0 2.01 0 1.02 0 0 Z " fill="#D1BF93" transform="translate(20,65)"/>
<path d="M0 0 C2.475 0.495 2.475 0.495 5 1 C5 1.66 5 2.32 5 3 C6.98 3.66 8.96 4.32 11 5 C8 6 8 6 4.375 4.75 C1 3 1 3 0 0 Z " fill="#AF9A71" transform="translate(100,56)"/>
<path d="M0 0 C0.99 0 1.98 0 3 0 C2.67 1.65 2.34 3.3 2 5 C1.01 5.33 0.02 5.66 -1 6 C-1.33 6.66 -1.66 7.32 -2 8 C-1.125 2.25 -1.125 2.25 0 0 Z " fill="#D4B977" transform="translate(97,160)"/>
<path d="M0 0 C0.99 0.33 1.98 0.66 3 1 C3 3.64 3 6.28 3 9 C2.34 9 1.68 9 1 9 C0.67 6.03 0.34 3.06 0 0 Z " fill="#A79264" transform="translate(199,141)"/>
<path d="M0 0 C0.99 0 1.98 0 3 0 C3 1.65 3 3.3 3 5 C1.35 4.67 -0.3 4.34 -2 4 C-1.34 2.68 -0.68 1.36 0 0 Z " fill="#CBB076" transform="translate(75,106)"/>
<path d="M0 0 C1.65 0 3.3 0 5 0 C5.33 0.99 5.66 1.98 6 3 C3.69 3.33 1.38 3.66 -1 4 C-0.67 2.68 -0.34 1.36 0 0 Z " fill="#B29357" transform="translate(67,92)"/>
<path d="M0 0 C0.33 1.32 0.66 2.64 1 4 C-0.98 5.32 -2.96 6.64 -5 8 C-5.66 7.67 -6.32 7.34 -7 7 C-4.69 4.69 -2.38 2.38 0 0 Z " fill="#A9966F" transform="translate(132,81)"/>
<path d="M0 0 C4.05281712 1.22527029 7.44360764 2.69880494 11 5 C8 6 8 6 6.2109375 5.29296875 C5.60507812 4.92816406 4.99921875 4.56335938 4.375 4.1875 C3.76398437 3.83042969 3.15296875 3.47335938 2.5234375 3.10546875 C1 2 1 2 0 0 Z " fill="#B49F71" transform="translate(52,81)"/>
<path d="M0 0 C0.66 0 1.32 0 2 0 C2 0.66 2 1.32 2 2 C2.99 2 3.98 2 5 2 C5.33 2.99 5.66 3.98 6 5 C6.66 5.66 7.32 6.32 8 7 C5.6875 6.875 5.6875 6.875 3 6 C1.1875 2.9375 1.1875 2.9375 0 0 Z " fill="#A58E64" transform="translate(256,155)"/>
<path d="M0 0 C4 4.5 4 4.5 4 9 C3.01 8.34 2.02 7.68 1 7 C0.3125 3.375 0.3125 3.375 0 0 Z " fill="#A79360" transform="translate(393,118)"/>
<path d="M0 0 C0.5534764 2.07553648 1 3.84365964 1 6 C-0.65 5.67 -2.3 5.34 -4 5 C-4.33 4.01 -4.66 3.02 -5 2 C-3.35 2 -1.7 2 0 2 C0 1.34 0 0.68 0 0 Z " fill="#BEA773" transform="translate(73,105)"/>
<path d="M0 0 C2.475 0.99 2.475 0.99 5 2 C3.3545622 3.68762851 1.68711423 5.3540349 0 7 C-0.33 7 -0.66 7 -1 7 C-1.04254356 5.00045254 -1.04080783 2.99958364 -1 1 C-0.67 0.67 -0.34 0.34 0 0 Z " fill="#AA9B6E" transform="translate(43,107)"/>
<path d="M0 0 C0.99 0.33 1.98 0.66 3 1 C2.34 2.32 1.68 3.64 1 5 C-2.3 4.67 -5.6 4.34 -9 4 C-9 3.67 -9 3.34 -9 3 C-4.545 2.505 -4.545 2.505 0 2 C0 1.34 0 0.68 0 0 Z " fill="#A28C5C" transform="translate(505,137)"/>
<path d="M0 0 C3.08089673 2.77280706 4.68775452 5.06326356 6 9 C4.68 8.67 3.36 8.34 2 8 C1.34 5.36 0.68 2.72 0 0 Z " fill="#A68F62" transform="translate(250,125)"/>
<path d="M0 0 C-0.33 1.32 -0.66 2.64 -1 4 C-3.31 4.33 -5.62 4.66 -8 5 C-3.16129032 0 -3.16129032 0 0 0 Z " fill="#AA8E50" transform="translate(129,91)"/>
<path d="M0 0 C2.4375 0.375 2.4375 0.375 5 1 C5.33 1.66 5.66 2.32 6 3 C5.34 3.66 4.68 4.32 4 5 C1.525 4.01 1.525 4.01 -1 3 C-0.67 2.01 -0.34 1.02 0 0 Z " fill="#BA9E5D" transform="translate(35,89)"/>
<path d="M0 0 C1.32 0.66 2.64 1.32 4 2 C3.67 3.32 3.34 4.64 3 6 C1.68 6 0.36 6 -1 6 C-0.67 4.02 -0.34 2.04 0 0 Z " fill="#B9A262" transform="translate(73,81)"/>
<path d="M0 0 C0.66 0.33 1.32 0.66 2 1 C1.67 2.32 1.34 3.64 1 5 C-0.98 5 -2.96 5 -5 5 C-3.625 3.5 -3.625 3.5 -2 2 C-1.34 2 -0.68 2 0 2 C0 1.34 0 0.68 0 0 Z " fill="#B79A6C" transform="translate(90,64)"/>
<path d="M0 0 C1.98 0 3.96 0 6 0 C6 0.99 6 1.98 6 3 C4.02 3 2.04 3 0 3 C0 2.01 0 1.02 0 0 Z " fill="#A68553" transform="translate(20,58)"/>
</svg>
